<?xml version="1.0" encoding="utf-8" ?>
<svg baseProfile="full" height="300mm" version="1.1" viewBox="0,0,200,300" width="200mm" xmlns="http://www.w3.org/2000/svg" xmlns:ev="http://www.w3.org/2001/xml-events" xmlns:xlink="http://www.w3.org/1999/xlink"><defs /><rect fill="#222222" height="300" width="200" x="0" y="0" /><text fill="#FFFFFF" style="font-size:12px; font-family:Arial; font-weight:bold;" x="10" y="20">Over 1km Runs</text><text fill="#FFFFFF" style="font-size:4px; font-family:Arial" x="10" y="280">ATHLETE</text><text fill="#FFFFFF" style="font-size:9px; font-family:Arial" x="10" y="290">bjing</text><text fill="#FFFFFF" style="font-size:4px; font-family:Arial" x="120" y="280">STATISTICS</text><text fill="#FFFFFF" style="font-size:3px; font-family:Arial" x="120" y="285">Number: 2</text><text fill="#FFFFFF" style="font-size:3px; font-family:Arial" x="120" y="290">Weekly: 2.0</text><text fill="#FFFFFF" style="font-size:3px; font-family:Arial" x="141" y="285">Total: 4.2 km</text><text fill="#FFFFFF" style="font-size:3px; font-family:Arial" x="141" y="290">Avg: 2.1 km</text><text fill="#FFFFFF" style="font-size:3px; font-family:Arial" x="167" y="285">Min: 1.5 km</text><text fill="#FFFFFF" style="font-size:3px; font-family:Arial" x="167" y="290">Max: 2.7 km</text><polyline fill="none" points="46.0,45.415976083488204 47.945945946034044,46.54472620994784 50.0,47.29722571501043 52.37837837776169,49.053056091070175 55.29729729704559,49.42930512910243 56.70270270248875,50.056386601761915 58.10810810793191,53.066373191191815 58.86486486438662,53.944284549565054 60.27027026982978,54.94761104427744 61.891891891136765,57.33050816715695 63.0810810807161,58.584662681329064 66.97297297278419,59.83881590794772 67.62162162177265,60.34047683828976 69.99999999953434,60.71672240074258 72.48648648615927,61.469213178381324 78.6486486485228,64.35375686630141 79.62162162130699,64.2283420652384 80.16216216189787,64.85541594319511 82.21621621586382,65.9841481129406 83.18918918864802,66.10956273390912 84.48648648615927,66.73663564678282 86.86486486438662,68.74326680519152 90.86486486438662,71.62779332208447 92.59459459455684,73.383588738041 95.51351351290941,75.01396793674212 98.6486486485228,77.14599899144378 102.10810810793191,80.40674517385196 102.21621621586382,79.9050924811745 103.51351351290941,80.40674517385196 105.67567567527294,80.78298455791082 106.97297297278419,81.28463689016644 111.62162162130699,83.9183082554955 114.32432432379574,85.92491119983606 116.0540540535003,86.67738645465579 117.56756756780669,87.80609846836887 120.05405405396596,88.43316024716478 121.99999999953434,88.30774791713338 124.59459459455684,89.06022170488723 131.08108108118176,90.31434365455061 140.27027026982978,92.57175992010161 143.2972972970456,92.94799555919599 144.59459459455684,93.57505469990429 151.40540540544316,94.95458367699757 153.3513513514772,95.7070533715887 153.78378378320485,96.20869957760442 154.0,97.46281419089064 153.56756756734103,98.84233877935912 153.0270270272158,99.97103955689818 153.13513513468206,101.7267942498438 153.0270270272158,102.60467065055855 149.56756756734103,107.87191581132356 147.62162162130699,111.88503974361811 145.13513513468206,115.14569323533215 144.27027026982978,117.52847297757398 141.67567567527294,121.29074732260779 140.37837837822735,124.5513757194858 139.18918918911368,126.43250352982432 138.1081081079319,128.68985308031552 137.24324324307963,130.3201584960334 136.05405405396596,131.82505387242418 135.51351351337507,132.95372418884654 134.6486486485228,134.5840239166282" stroke="#4dd2ff" stroke-linecap="round" stroke-linejoin="round" stroke-width="0.5"><title>2022-05-21 1.5km</title></polyline><polyline fill="none" points="154.0,210.00029411853757 152.5928338766098,208.77593915094621 151.18566775228828,208.16376110143028 150.04234527703375,207.44955290097278 148.01954397419468,205.4089552143123 147.22801302932203,205.10286520019872 145.2931596096605,204.59271496685687 144.06188925122842,203.1642929209047 142.65472312737256,202.4500811281614 141.2475570035167,201.22571686084848 140.36807817639783,200.91962555825012 139.04885993525386,199.89932053594384 135.17915309453383,198.06276885641273 132.8925081435591,196.2262137835496 131.1335504888557,195.7160589947598 127.70358306216076,193.0632498706691 126.64820846915245,191.9409054175485 124.80130293173715,191.0226226496161 121.89902280131355,190.30840213253396 121.10749185690656,190.71652820508461 118.11726384377107,193.7774684082251 115.30293159652501,196.12418284686282 112.75244299694896,199.69525940559106 111.87296416936442,200.61353416147176 110.81758957635611,201.32774727395736 109.58631921838969,201.83789918286493 107.82736156368628,204.49068488902412 106.33224755711854,205.71504513459513 105.62866449542344,207.14346351509448 104.22149837156758,207.5515826754854 103.51791530987248,208.06173139018938 99.03257328970358,212.448999529297 96.92182410461828,214.18349554535234 95.07491856673732,216.22407521912828 92.96416938118637,218.9788511340157 90.85342019563541,220.81536416936433 89.35830618906766,222.95795842219377 86.98371335538104,225.2025760198012 86.28013029368594,226.0187993440195 84.25732899038121,227.54921627085423 83.55374592868611,228.56949291285127 82.93811074923724,228.97760327660944 81.97068403940648,230.20193336205557 80.47557003237307,231.5282892533578 78.98045602580532,233.16072484379401 77.7491856678389,234.07896868541138 77.30944625427946,234.18099572637584 76.69381107529625,233.87491457170108 73.08794788317755,231.83437113068067 70.80130293173715,230.71207045268966 66.75570032559335,227.44718854880193 65.78827361576259,227.0390775569249 63.589576547499746,225.81474357581465 61.918566775508225,225.30460397189017 61.214983713347465,224.5904080866021 59.80781758995727,224.18229592207354 58.488599348813295,223.57012736063916 55.4983713356778,221.22347771649947 52.50814332254231,219.59102252288722 48.902280130423605,217.1423347053351 46.0,215.61190175672527 48.198697068262845,217.9585646483465 53.035830619279295,220.61130733293248 55.762214983813465,222.6518738117884 56.55374592868611,223.46809923055116 58.04885993525386,224.28432397876168 60.33550488622859,226.32488291792106 62.53420195449144,227.44718854880193 65.08469055406749,228.46746529557277 66.57980456063524,229.3857134724385 67.28338762233034,229.4877409953624 69.8338762219064,227.54921627085423 71.5928338766098,225.30460397189017 75.2866449514404,222.03970430785557 77.7491856678389,219.3869654351729 78.27687296411023,218.16262202942744 78.8925081435591,217.3463922542869 80.56351791555062,216.0200174402562 82.76221498381346,214.48958276334452 86.54397394135594,211.12261818058323 89.44625407224521,207.85767193557695 93.75570032605901,203.77647404914023 97.97719869716093,200.51150367513765 100.87947882758453,197.45058420923306 102.5504885991104,195.81808997347252 104.66123778512701,194.2876241921913 106.24429967440665,192.0429367836914 107.7394136809744,190.51246518961852 108.7947882739827,190.00230746809393 110.11400651466101,188.67589616618352 110.99348534271121,188.26776925602462 112.13680781796575,188.06370573781896 114.86319218249992,186.12510022654897 115.91856677550822,185.81900427362416 121.89902280131355,189.08402290917002 123.65798045601696,190.71652820508461 125.41693811072037,191.73684265342308 127.35179153084755,193.2673123620334" stroke="#4dd2ff" stroke-linecap="round" stroke-linejoin="round" stroke-width="0.5"><title>2022-05-18 2.7km</title></polyline></svg>