<?xml version="1.0" encoding="utf-8" ?>
<svg baseProfile="full" height="300mm" version="1.1" viewBox="0,0,200,300" width="200mm" xmlns="http://www.w3.org/2000/svg" xmlns:ev="http://www.w3.org/2001/xml-events" xmlns:xlink="http://www.w3.org/1999/xlink"><defs /><rect fill="#222222" height="300" width="200" x="0" y="0" /><text fill="#FFFFFF" style="font-size:12px; font-family:Arial; font-weight:bold;" x="10" y="20">Over 1km Runs</text><text fill="#FFFFFF" style="font-size:4px; font-family:Arial" x="10" y="280">ATHLETE</text><text fill="#FFFFFF" style="font-size:9px; font-family:Arial" x="10" y="290">bjing</text><text fill="#FFFFFF" style="font-size:4px; font-family:Arial" x="120" y="280">STATISTICS</text><text fill="#FFFFFF" style="font-size:3px; font-family:Arial" x="120" y="285">Number: 7</text><text fill="#FFFFFF" style="font-size:3px; font-family:Arial" x="120" y="290">Weekly: 3.5</text><text fill="#FFFFFF" style="font-size:3px; font-family:Arial" x="141" y="285">Total: 12.2 km</text><text fill="#FFFFFF" style="font-size:3px; font-family:Arial" x="141" y="290">Avg: 1.7 km</text><text fill="#FFFFFF" style="font-size:3px; font-family:Arial" x="167" y="285">Min: 1.0 km</text><text fill="#FFFFFF" style="font-size:3px; font-family:Arial" x="167" y="290">Max: 2.7 km</text><polyline fill="none" points="23.8888036608696,87.0 24.574386483756825,80.42190802039113 24.44973506173119,77.24127010273514 24.574386483756825,75.65094576228876 24.82368932850659,74.6389193139039 25.01066646235995,74.20519324834459 25.135317884618416,73.19316472444916 25.38462072913535,72.25342265120707 26.444157819263637,69.50647710013436 27.44136919802986,68.13300031021936 28.251603443175554,67.33782831410645 29.685094800544903,65.38603870209772 30.55765475681983,64.66315228905296 31.554866135818884,64.1571313586901 32.55207751435228,63.43424368550768 33.73626602673903,62.20533293945482 34.48417456075549,61.771599223604426 35.23208309500478,61.04870910389582 37.03952871914953,59.67521583393682 38.72232292080298,58.01256250514416 39.65720858843997,57.43424738460453 40.467442833818495,57.1450896463939 41.028374234447256,56.34990525478497 42.58651701407507,54.75953377998667 45.079545461107045,53.09686885587871 46.575362528907135,51.506490041385405 47.82187675265595,50.63900917535648 49.317693820921704,49.12091509101447 49.6293223768007,48.54259267495945 52.122350823832676,45.50639220606536 53.80514502548613,42.68705148791196 54.24142500385642,41.16894027631497 54.61537927086465,40.446029026352335 55.051659249002114,39.28936948382761 55.986544916639104,36.108545954863075 56.04887062800117,35.3856295144069 55.986544916639104,34.445837033272255 56.1111963391304,33.0" stroke="#4dd2ff" stroke-linecap="round" stroke-linejoin="round" stroke-width="0.5"><title>2022-05-29 1.0km</title></polyline><polyline fill="none" points="160.69740001892205,33.0 160.58307214686647,33.265253498830134 159.71418031991925,34.724142877123086 159.16540653456468,35.81167323840782 158.22791798447724,37.29707316830172 156.42153760732617,48.35772922702017 160.72026559326332,55.20077586499974 161.291904953192,55.863852153735934 162.20652792893816,57.216522509464994 162.54951154475566,57.853070816316176 164.19583290116861,60.42577092270949 165.11045587691478,61.91102943167789 165.15618702559732,62.07016376583488 165.13332145125605,62.521043847489636 165.20191817451268,62.839311667048605 165.43057391839102,63.44932389288442 165.77355753432494,65.22630782649503 166.00221327820327,65.88935840444174 166.02507885266095,66.47284150664927 165.9793477037456,67.24197631145944 165.7049608110683,68.67415226541925 165.29338047199417,69.97371247012052 164.74460668652318,71.03457310135127 164.31016077299137,71.72413017766667 163.89858043403365,72.17499342566589 163.37267222290393,72.83802618598565 162.48091482149903,73.68670563836349 160.99465248605702,74.82711426645983 157.86206879408564,77.39964549406432 156.78738679760136,78.35439284035238 156.12428514030762,79.07045103685232 155.5983769291779,79.73346611767192 155.11819986684714,80.44952049560379 154.93527527176775,80.79428671125788 154.59229165583383,81.8020622447657 154.34077033749782,82.88939460008987 154.29503918881528,83.28719797806116 154.29503918881528,84.34800399464439 154.22644246555865,85.43532564604538 153.97492114733905,86.94696034636581 154.06638344482053,87.0 154.11211459361948,86.92044051553239" stroke="#4dd2ff" stroke-linecap="round" stroke-linejoin="round" stroke-width="0.5"><title>2022-05-29 2.6km</title></polyline><polyline fill="none" points="62.25744272209704,93.0 62.080269048921764,93.10276480700122 61.150107263587415,94.02764712218777 60.6185862433631,94.84976330137579 58.84684950928204,96.64813773729838 57.03081935667433,98.34374200398452 55.74631022429094,99.6282868681592 53.00011828658171,102.76256250712322 52.380010429536924,103.37913901210413 51.93707624590024,103.63604566507274 51.13979471568018,104.61228974422556 50.25392634887248,105.38300740972045 48.03925543092191,107.84929596766597 45.47023716662079,110.46971425114316 42.90121890208684,113.29564016955555 39.75638619903475,116.58397025399609 38.91481125028804,117.61156897715409 37.807475791545585,118.690545367077 34.48546941508539,122.4926341167884 33.023786609526724,124.2909092810005 31.739277477143332,126.19193600473227 30.676235436927527,127.32227279778454 29.17025921284221,129.4288027411676 28.505857937503606,130.1994822138222 27.841456662165,131.32980996204424 27.265642223646864,132.1004865092982 26.11401334637776,133.84734895950533 25.62678574468009,134.4638871930656 20.222988705383614,143.04396549984813 19.55858743027784,143.96875558409374 17.74255727767013,147.0" stroke="#4dd2ff" stroke-linecap="round" stroke-linejoin="round" stroke-width="0.5"><title>2022-05-25 1.5km</title></polyline><polyline fill="none" points="182.2930582219269,93.0 181.90003662742674,93.1013188517536 180.80830997577868,94.26648415232194 180.76464090985246,94.41846203236491 180.1532739852555,95.22900993490475 179.3235617298633,95.9382382578915 178.84320200327784,96.59680650255177 177.66413721977733,97.76196355221327 176.70341776660644,98.57250596466474 176.00471270969138,99.38304704625625 175.48068391694687,99.78831708800863 175.17500045453198,100.24424548714887 173.12255434994586,102.57453961772262 172.24917302886024,103.38507412790204 171.81248236820102,103.58770754767465 171.11377731128596,104.55021515500266 170.24039599020034,105.31008825622848 167.9696045552846,107.94430595132872 167.62025202671066,108.14693749934668 166.65953257353976,109.1600939927157 165.87348938477226,109.8693023006781 164.73809366696514,111.18640074101859 163.99571954412386,111.89560613810318 162.90399289270863,113.21269917220343 162.55464036436751,113.4153285578941 161.76859717513435,114.42847423875355 161.06989211845212,115.08701781637501 160.37118706153706,115.84687469882192 159.93449640087783,116.30278826705762 158.97377694770694,117.46789880603319 157.8820502962917,118.48103617000743 156.74665457871743,119.89942498682649 155.56758979521692,121.16584012960084 154.03917248314247,122.93881587201031 153.12212209613062,124.05325450820965 152.8601076998748,124.6104728829232 151.89938824647106,125.9275319960725 151.200683189556,126.63671621694812 150.32730186847039,127.80180236857268 149.75960400979966,128.51098389722756 149.62859681178816,128.8149185263028 149.0608989528846,129.52409859967884 148.88622268871404,129.62540995550808 148.66787735838443,129.9293438984605 147.96917230146937,131.09442228008993 147.48881257488392,131.65163270788617 147.40147444279864,131.95556540362304 147.09579098038375,132.3101533120498 146.30974779161625,133.5258813505061 145.82938806456514,133.98177859323914 145.39269740413874,134.8935718156281 145.08701394172385,135.29881270730402 144.82499954546802,135.7547083128593 143.6459347619675,137.5276316664822 142.20485558197834,139.95905905609834 141.7244958553929,140.516259479773 141.33147426089272,141.32673170094495 140.54543107189238,142.5424375384464 140.02140227914788,143.20094361712108 138.27463963697664,146.13888311499613 137.83794897631742,146.8480383057904 137.70694177830592,146.89869220912806 137.7942799103912,146.8480383057904 137.88161804247648,147.0 137.92528710863553,146.9493461070524 138.05629430687986,146.5947687117441" stroke="#4dd2ff" stroke-linecap="round" stroke-linejoin="round" stroke-width="0.5"><title>2022-05-25 1.6km</title></polyline><polyline fill="none" points="51.75887850485742,180.702719740686 48.12523364415392,177.8924612334231 45.29906542040408,176.01895171636716 41.86728971917182,174.1454391219886 35.71028037369251,169.81292946403846 29.957009345758706,166.53426256938837 27.33271028008312,164.426543161273 23.900934579316527,162.904298944748 21.074766354635358,162.20172400574666 19.459813083987683,161.26495674764737 19.15700934547931,161.14786078652833 18.753271027933806,161.6162445595255 17.642990653868765,163.48977772996295 15.422429906204343,166.7684533742722 13.0,171.45225937769283 13.302803738042712,172.27192345121875 14.413084112107754,173.20868167106528 16.330841121729463,173.91124983131886 18.955140186473727,175.43347936100326 20.872897196095437,177.42408414266538 21.983177569694817,178.36083813209552 25.515887850429863,180.23434380348772 31.672897195909172,184.2155331398826 37.32523364480585,187.14286937681027 38.94018691545352,188.3138017684687 40.55514018703252,189.71891905204393 41.968224299140275,190.3043840760365 43.986915887799114,191.9436845452292 45.70280373841524,192.17787013435736 52.16261682193726,195.8077406170778 56.1999999997206,198.38377072755247 58.92523364489898,198.8521392135881 59.93457943899557,198.50086286710575 60.94392523355782,197.91540204896592 61.549532710108906,197.09575639944524 61.85233644861728,197.21284867066424 62.0542056071572,196.97866411553696 62.76074766321108,195.8077406170778 64.57757009286433,194.05135311593767 65.18317756988108,192.2949629110517 66.89906542003155,190.07019810262136 67.0,189.71891905204393 67.0,189.48473295825534 66.09158878494054,189.0163606266724 64.27476635482162,188.78217438876163 62.96261682221666,187.6112424778985 62.25607476569712,185.9719357835129 61.347663551103324,185.15228155290242 58.11775700887665,183.86425228673033 55.99813084071502,182.34203400625847 49.74018691526726,178.47793232637923" stroke="#4dd2ff" stroke-linecap="round" stroke-linejoin="round" stroke-width="0.5"><title>2022-05-23 1.3km</title></polyline><polyline fill="none" points="133.0,157.7079880417441 133.97297297301702,158.27236310497392 135.0,158.6486128575052 136.18918918888085,159.5265280455351 137.6486486485228,159.71465256455122 138.35135135124438,160.02819330088096 139.05405405396596,161.5331865955959 139.4324324321933,161.97214227478253 140.1351351349149,162.47380552213872 140.94594594556838,163.66525408357847 141.54054054035805,164.29233134066453 143.4864864863921,164.91940795397386 143.81081081088632,165.17023841914488 144.99999999976717,165.3583612003713 146.24324324307963,165.73460658919066 149.3243243242614,167.1768784331507 149.8108108106535,167.1141710326192 150.08108108094893,167.42770797159756 151.1081081079319,167.9920740564703 151.594594594324,168.05478136695456 152.24324324307963,168.3683178233914 153.4324324321933,169.37163340259576 155.4324324321933,170.81389666104224 156.29729729727842,171.6917943690205 157.7567567564547,172.50698396837106 159.3243243242614,173.5729994957219 161.05405405396596,175.20337258692598 161.1081081079319,174.95254624058725 161.7567567564547,175.20337258692598 162.83783783763647,175.3914922789554 163.4864864863921,175.64231844508322 165.8108108106535,176.95915412774775 167.16216216189787,177.96245559991803 168.02702702675015,178.3386932273279 168.78378378390335,178.90304923418444 170.02702702698298,179.2165801235824 170.99999999976717,179.1538739585667 172.29729729727842,179.5301108524436 175.54054054059088,180.1571718272753 180.1351351349149,181.2858799600508 181.6486486485228,181.473997779598 182.29729729727842,181.78752734995214 185.70270270272158,182.4772918384988 186.6756756757386,182.85352668579435 186.89189189160243,183.1043497888022 187.0,183.73140709544532 186.78378378367051,184.42116938967956 186.5135135136079,184.9855197784491 186.56756756734103,185.8633971249219 186.5135135136079,186.30233532527927 184.78378378367051,188.93595790566178 183.8108108106535,190.94251987180905 182.56756756734103,192.57284661766607 182.1351351349149,193.764236488787 180.83783783763647,195.6453736613039 180.18918918911368,197.2756878597429 179.59459459455684,198.21625176491216 179.05405405396596,199.34492654015776 178.62162162153982,200.1600792480167 178.02702702698298,200.9125269362121 177.75675675668754,201.47686209442327 177.3243243242614,202.2920119583141" stroke="#4dd2ff" stroke-linecap="round" stroke-linejoin="round" stroke-width="0.5"><title>2022-05-21 1.5km</title></polyline><polyline fill="none" points="67.0,240.00014705926878 66.2964169383049,239.3879695754731 65.59283387614414,239.08188055071514 65.02117263851687,238.7247764504864 64.00977198709734,237.70447760715615 63.614006514661014,237.55143260009936 62.64657980483025,237.29635748342844 62.03094462561421,236.58214646045235 61.32736156368628,236.2250405640807 60.62377850175835,235.61285843042424 60.184039088198915,235.45981277912506 59.52442996762693,234.94966026797192 57.589576547266915,234.03138442820637 56.44625407177955,233.1131068917748 55.566775244427845,232.8580294973799 53.85179153108038,231.53162493533455 53.324104234576225,230.97045270877425 52.40065146586858,230.51131132480805 50.949511400656775,230.15420106626698 50.55374592845328,230.3582641025423 49.058631921885535,231.88873420411255 47.65146579826251,233.0620914234314 46.37622149847448,234.84762970279553 45.93648208468221,235.30676708073588 45.40879478817806,235.66387363697868 44.793159609194845,235.91894959143247 43.91368078184314,237.24534244451206 43.16612377855927,237.85752256729756 42.81433224771172,238.57173175754724 42.11074918578379,238.7757913377427 41.75895765493624,239.0308656950947 39.51628664485179,241.2244997646485 38.46091205230914,242.09174777267617 37.53745928336866,243.11203760956414 36.48208469059318,244.48942556700786 35.426710097817704,245.40768208468216 34.67915309453383,246.47897921109688 33.49185667769052,247.6012880099006 33.14006514684297,248.00939967200975 32.128664495190606,248.77460813542712 31.776872964343056,249.28474645642564 31.46905537461862,249.48880163830472 30.98534201970324,250.10096668102778 30.237785016186535,250.7641446266789 29.490228012902662,251.580362421897 28.87459283391945,252.0394843427057 28.654723127139732,252.09049786318792 28.346905537648126,251.93745728585054 26.543973941588774,250.91718556534033 25.400651465868577,250.35603522634483 23.377850162796676,248.72359427440097 22.894136807881296,248.51953877846245 21.794788273749873,247.90737178790732 20.959283387754112,247.6523019859451 20.607491856673732,247.29520404330106 19.903908794978634,247.09114796103677 19.244299674406648,246.78506368031958 17.7491856678389,245.61173885824974 16.254071661271155,244.7955112614436 14.451140065211803,243.57116735266754 13.0,242.80595087836264 14.099348534131423,243.97928232417325 16.517915309639648,245.30565366646624 17.881107491906732,246.3259369058942 18.276872964343056,246.73404961527558 19.02442996762693,247.14216198938084 20.167752443114296,248.16244145896053 21.26710097724572,248.72359427440097 22.542345277033746,249.23373264778638 23.28990228031762,249.69285673621926 23.64169381116517,249.7438704976812 24.916938110953197,248.77460813542712 25.7964169383049,247.6523019859451 27.643322475720197,246.0198521539278 28.87459283391945,244.69348271758645 29.138436482055113,244.08131101471372 29.44625407177955,243.67319612714346 30.28175895777531,243.0100087201281 31.381107491906732,242.24479138167226 33.27198697067797,240.56130909029162 34.723127036122605,238.92883596778847 36.87785016302951,236.88823702457012 38.988599348580465,235.25575183756882 40.43973941379227,233.72529210461653 41.2752442995552,232.90904498673626 42.33061889256351,232.14381209609564 43.122149837203324,231.0214683918457 43.8697068404872,230.25623259480926 44.39739413699135,230.00115373404697 45.05700325733051,229.33794808309176 45.496742671355605,229.1338846280123 46.06840390898287,229.03185286890948 47.43159609124996,228.06255011327448 47.95928338775411,227.90950213681208 50.949511400656775,229.542011454585 51.82899022800848,230.3582641025423 52.70846905536018,230.86842132671154 53.675895765423775,231.6336561810167" stroke="#4dd2ff" stroke-linecap="round" stroke-linejoin="round" stroke-width="0.5"><title>2022-05-18 2.7km</title></polyline></svg>