<?xml version="1.0" encoding="utf-8" ?>
<svg baseProfile="full" height="300mm" version="1.1" viewBox="0,0,200,300" width="200mm" xmlns="http://www.w3.org/2000/svg" xmlns:ev="http://www.w3.org/2001/xml-events" xmlns:xlink="http://www.w3.org/1999/xlink"><defs /><rect fill="#222222" height="300" width="200" x="0" y="0" /><text fill="#FFFFFF" style="font-size:12px; font-family:Arial; font-weight:bold;" x="10" y="20">Over 1km Runs</text><text fill="#FFFFFF" style="font-size:4px; font-family:Arial" x="10" y="280">ATHLETE</text><text fill="#FFFFFF" style="font-size:9px; font-family:Arial" x="10" y="290">bjing</text><text fill="#FFFFFF" style="font-size:4px; font-family:Arial" x="120" y="280">STATISTICS</text><text fill="#FFFFFF" style="font-size:3px; font-family:Arial" x="120" y="285">Number: 15</text><text fill="#FFFFFF" style="font-size:3px; font-family:Arial" x="120" y="290">Weekly: 1.9</text><text fill="#FFFFFF" style="font-size:3px; font-family:Arial" x="141" y="285">Total: 22.9 km</text><text fill="#FFFFFF" style="font-size:3px; font-family:Arial" x="141" y="290">Avg: 1.5 km</text><text fill="#FFFFFF" style="font-size:3px; font-family:Arial" x="167" y="285">Min: 1.0 km</text><text fill="#FFFFFF" style="font-size:3px; font-family:Arial" x="167" y="290">Max: 2.7 km</text><polyline fill="none" points="45.760000000242144,49.12772494379897 44.68000000016764,48.29244920692872 41.920000000391155,45.50819303654134 34.00000000046566,41.19258467690088 28.959999999962747,37.4338178205071 24.16000000014901,34.788753417902626 21.520000000484288,33.6750405470375 20.43999999994412,33.39661218645051 19.600000000093132,33.535826373961754 18.760000000242144,34.231897096848115 16.600000000558794,38.54752760473639 15.160000000149012,41.05337127542589 12.399999999906868,45.92583182628732 16.360000000335276,50.79827487352304 21.880000000353903,53.72173230012413 31.600000000093132,60.12547416787129 36.8800000003539,62.90970033232588 41.80000000074506,66.11155335605145 45.40000000037253,68.1997142995242 51.040000000502914,72.23681634129025 55.60000000009313,74.60338781354949" stroke="#4dd2ff" stroke-linecap="round" stroke-linejoin="round" stroke-width="0.5"><title>2022-09-14 1.1km</title></polyline><polyline fill="none" points="87.58658725093119,75.59999999997672 87.86367235681973,74.37861234933371 88.02992342039943,74.05719415092608 89.63701703515835,71.55012654303573 90.13577022613026,70.45729906170163 90.85619150171988,69.68589027994312 89.96951916255057,68.97876472905045 89.85868512000889,68.72162796737393 91.18869362887926,64.67171004711417 91.46577873500064,64.67171004711417 93.9595446891617,65.05741764366394 95.23413617676124,64.86456387519138 95.95455745211802,64.47885615989799 96.84122979152016,63.57887056749314 97.94957021554,62.03603511553956 98.28207234246656,61.20033099257853 98.55915744882077,59.978915269253775 99.3904127664864,59.400349095405545 100.33250212692656,60.04320036660647 101.93959574191831,58.05035927874269 104.43336169607937,52.97180010168813 104.48877871711738,52.77894261275651 103.9900255263783,51.87894021242391 104.04544254764915,51.49322450213367 105.81878722598776,48.214631376438774 107.75838296790607,44.87173444387736 107.86921701068059,44.678874461271334 108.20171913783997,44.550301106472034 108.36797020141967,44.35744102485478 108.92214041342959,42.62169761827681 111.02798721916042,37.478725954308175 112.08091062190942,35.35723784181755 112.41341274906881,34.39292268815916 112.41341274906881,34.13577172992518 112.24716168548912,33.81433288345579 111.52674041013233,33.492893872084096 110.03048083744943,32.399999999965075" stroke="#4dd2ff" stroke-linecap="round" stroke-linejoin="round" stroke-width="0.5"><title>2022-08-14 1.0km</title></polyline><polyline fill="none" points="152.50789546617307,38.21419341416913 153.03895001101773,38.560731898091035 153.76915001042653,39.215303716628114 154.00148637383245,39.369320449157385 155.2295500091277,39.63884957876871 155.69422273605596,40.02389085679897 156.59037728072144,40.485939868784044 157.12143182568252,40.60145203291904 157.68567727983464,40.60145203291904 158.3826863701688,40.0623949628789 160.20818636845797,37.40560237347381 160.70605000446085,36.481496192951454 160.8056227316847,36.21196479490027 161.60220454912633,34.864304899732815 161.66858636727557,34.55626767259673 161.86773182172328,34.01720191637287 162.19964091223665,33.63215447336552 162.4651681848336,33.4011258178798 162.6311227302067,32.74654385479516 163.1953681842424,32.438504888588795 163.49408636568114,32.40000000002328 163.7596136382781,32.51551465387456 164.02514091075864,32.708038997865515 164.58938636479434,33.01607774262084 164.82172272820026,33.24710663524456 165.61830454564188,33.59364970726892 166.71360454475507,34.36374427707051 167.21146818064153,34.97981879473082 167.57656818057876,35.17234187404392 169.26930454256944,35.980937728105346 169.73397726938128,36.13495578840957 169.9663136327872,36.13495578840957 170.53055908693932,36.404487241845345 170.63013181404676,36.59700959007023 170.82927726849448,36.789531839312986 172.5552045397926,37.752141604345525 173.15264090290293,38.21419341416913 173.91603181138635,38.175689118448645 174.08198635675944,38.25269770587329 174.71261362882797,38.79175737622427 175.3100499920547,39.13829532667296 175.84110453689937,39.60034542926587 176.4385409001261,39.946882632910274 176.93640453601256,40.37042766917148 177.20193180860952,40.52444392739562 177.43426817189902,40.83247625429067 179.22657726122998,41.94909131922759 179.4257227156777,42.103106929484056 179.49210453382693,42.2571224764979 179.4589136247523,42.719168738112785 179.22657726122998,42.7961763930507 179.19338635215536,42.87318403221434 179.12700453400612,43.18121443071868 178.6955227162689,43.489244576281635 178.09808635315858,44.952384314266965 177.73298635345418,45.4529308094352 177.40107726294082,46.14599408491631 177.20193180860952,46.91606288935873 177.23512271756772,47.532116795075126 177.10235908138566,48.22517622978194 176.93640453601256,48.379189263650915 176.17301362752914,48.84122798588942 175.1772863556398,49.26476298144553 174.87856817408465,49.57278813244193 174.67942271963693,50.034825384878786 174.6130409016041,50.41985599391046 174.3807045381982,50.997401166532654 174.3807045381982,51.574945450236555 174.14836817479227,52.152488844818436 173.88284090231173,52.537517280783504 173.51774090260733,52.76853415253572 173.01987726660445,53.3075729671109 172.58839544886723,54.00062173375045 172.05734090378974,55.078695048287045 171.85819544934202,55.73323804954998 171.62585908605251,56.349277478148 171.5926681769779,56.65729681318044 171.65904999501072,57.23483238500194 171.62585908605251,57.42734404458315 171.75862272223458,57.81236706767231 171.32714090449736,59.4679615648638 171.26075908634812,59.54496578243561 170.43098635971546,60.315007087541744 169.80035908764694,60.73852913180599 169.30249545152765,60.96954095453839 168.6054863613099,61.008042911067605 167.60975908942055,60.700027147482615 167.24465908983257,60.700027147482615 167.04551363538485,60.854035060998285 166.71360454475507,61.393062260031 166.580840908573,61.85508495714748 166.580840908573,62.933135704894084 166.48126818134915,63.39515650575049 166.54764999938197,63.934180054435274 166.44807727227453,64.55020601910655 165.6514954548329,65.85925783615676 164.82172272820026,67.93833074774011 164.25747727416456,68.47734777050209 163.85918636550196,68.55435013907845 163.56046818383038,68.40034538591863 163.3945136385737,67.97683198942104 163.29494091146626,67.93833074774011 163.16217727505136,68.05383446067572 162.96303182083648,68.47734777050209 162.26602273038588,68.70835482879193 162.79707727546338,68.82385830473504 162.56474091182463,69.24737074546283 162.33240454853512,69.47837732976768 161.66858636727557,69.55537949295831 161.30348636768758,69.86338798774523 160.54009545920417,71.28792398740188 159.44479545997456,73.44396818731911 158.9137409151299,73.90597604721552 158.84735909686424,73.90597604721552 158.88055000593886,74.21398097102065 158.5818318245001,74.86849059475935 158.41587727912702,75.0224926933297 157.58610455261078,75.48449860981782 157.22100455290638,75.52299907713314 156.65675909887068,75.25349572268897 156.2916590992827,75.33049670088803 156.19208637205884,75.52299907713314 155.66103182698134,75.60000000000582" stroke="#4dd2ff" stroke-linecap="round" stroke-linejoin="round" stroke-width="0.5"><title>2022-08-14 2.4km</title></polyline><polyline fill="none" points="13.997115875827149,123.59999999997672 15.840200049802661,121.65072062343825 17.791700940346345,119.07263192627579 19.905826904345304,116.87181592162233 21.47786928829737,114.67099201411474 23.863037042552605,112.281517109368 25.055620920145884,110.70948906504782 27.711830465123057,108.005591396417 28.579164194175974,107.3138947278494 29.66333135543391,105.80473564995918 30.584873442305252,104.92439113842556 32.048499109689146,103.28946226212429 33.67474985169247,101.96893960103625 37.08987640962005,98.13311954360688 38.87875222531147,96.49817254935624 41.53496177052148,93.29114846844459 44.73325489577837,90.14699092000956 46.30529727973044,88.38625564641552 46.955797576578334,87.75742039416218 48.52783996029757,85.87091076566139 49.883048911811784,84.67611833033152 50.913007714785635,83.60709154518554 52.48505009850487,82.09787408541888 54.00288412417285,80.39999999996508" stroke="#4dd2ff" stroke-linecap="round" stroke-linejoin="round" stroke-width="0.5"><title>2022-07-12 1.0km</title></polyline><polyline fill="none" points="114.16580110741779,80.39999999996508 110.22441618400626,86.15661914716475 109.38976996485144,87.07121636607917 108.64786221436225,88.20101072639227 108.32327757356688,88.84660640975926 99.37401533545926,101.11277324805269 98.72484605386853,102.13494085537968 98.400261413306,102.99571203097003 97.98293830361217,103.37229897547513 97.65835366304964,103.856481792056 97.00918438145891,104.44826018286403 95.15441500558518,107.19195126078557 94.18066108343191,108.48309503210476 92.69684558268636,110.95777836750494 91.95493783243,112.03372399834916 91.12029161327519,113.70143535989337 89.49736840929836,116.71406178415054 89.49736840929836,117.35962233593455 89.03367606550455,118.05897870287299 88.8945683625061,118.6507410533959 88.338137549581,119.1349097522907 88.05992214311846,119.45768863637932 86.80795281473547,121.98611634934787 85.83419889234938,123.59999999997672" stroke="#4dd2ff" stroke-linecap="round" stroke-linejoin="round" stroke-width="0.5"><title>2022-07-04 1.1km</title></polyline><polyline fill="none" points="154.06134269665927,80.39999999996508 155.5217289114371,81.50120455306023 156.83607650455087,82.17886816320242 158.44250134006143,83.19536253489787 159.46477169031277,83.53419371385826 161.36327376915142,84.55068641679827 164.6491427514702,86.92249785462627 167.5699151805602,88.19310832145857 168.73822415200993,89.12488808721537 172.53522830968723,91.15785847062944 174.57976900972426,92.34375554847065 177.20846419595182,93.69906440831255 177.7926186816767,94.12259797059232 177.93865730334073,94.37671800382668 177.8656379925087,95.05437104299199 177.28148350678384,95.81673004670301 175.74807798163965,96.66379478090676 174.7258076313883,97.51085864560446 172.68126693135127,99.54380837455392 170.4906876096502,101.57675309630577 165.01423930516466,106.99791454366641 163.62687240121886,108.18378886382561 162.31252480857074,109.62377681984799 161.5093123903498,110.30141734180506 157.78532754350454,113.94372561533237 155.5217289114371,116.06133931671502 154.93757442571223,116.82367891917238 155.0836130469106,117.58601781795733 156.32494132919237,119.02598937205039 161.144215837121,121.82122110074852 162.96969860512763,123.09177784854546 163.40781446918845,123.17648156214273 164.6491427514702,123.00707412615884 166.54764483030885,122.32944403454894 166.83972207363695,122.4141478263773 168.2270889771171,123.59999999997672 168.6652048411779,123.51529632986058 168.957282084506,123.17648156214273" stroke="#4dd2ff" stroke-linecap="round" stroke-linejoin="round" stroke-width="0.5"><title>2022-06-28 1.0km</title></polyline><polyline fill="none" points="17.57543887058273,171.59999999997672 19.01709313876927,169.86728170869173 21.23106219386682,168.37355489941547 22.05486463289708,167.71631388756214 23.03313002944924,166.70057631708914 24.68073490774259,164.31059856375214 25.81346326135099,161.44261229160475 26.48280274309218,160.42686376115307 28.43933353596367,156.8418547635083 29.31462362757884,155.64684685191605 31.16817911528051,153.31657435983652 32.40388277429156,151.94230671669357 33.79404938989319,150.5680358253885 37.34669740870595,147.28172269562492 38.94281463441439,145.48918043152662 40.17851829319261,143.93563933193218 40.59041951247491,143.5771292578429 42.28951204335317,141.4260641708388 42.95885152509436,140.2310245722765 44.29753048857674,138.43846056831535 45.22430823254399,136.705643444031 45.73918475699611,135.27158398670144 46.46001189108938,132.82172423013253 47.28381433011964,131.32790223852498 48.05612911679782,130.3121010917239 48.77695625089109,129.53531078173546 49.5492710378021,128.8182726512896 50.42456112918444,128.39999999996508 50.01265990990214,128.4597532543121 49.13736981828697,129.23654500156408 48.828443903476,129.41580448806053 48.46803033631295,129.774323295278 47.23232667776756,131.4474081392982 46.76893780590035,131.8656785977073 46.51149954367429,132.3437016105163 46.46001189108938,132.88147702999413 46.20257362909615,133.8375209918595 45.43025884218514,135.8093566977186 44.70943170809187,137.24341482826276 44.4005057932809,138.02019483875483 43.01033917744644,139.87251221376937 41.72314786631614,140.29077661060728 40.28149359789677,141.1870564474957 37.5526480183471,142.68085310555762 35.02975304867141,143.69663264061091 32.76429634098895,145.07091977464734 30.7047902434133,145.9074407874723" stroke="#4dd2ff" stroke-linecap="round" stroke-linejoin="round" stroke-width="0.5"><title>2022-06-15 1.5km</title></polyline><polyline fill="none" points="82.18007796164602,171.60000000000582 82.86545957857743,170.2605339345173 83.55084119550884,169.25593149551423 84.70516812917776,168.16760939126834 85.85949506284669,166.82813204126433 86.61702211294323,166.07467409651144 87.15811286331154,165.697944601794 87.77134904684499,164.98634349435451 88.38458523037843,164.56775402708445 89.89963933057152,163.77243285431177 91.3064752810169,162.8096735679719 92.3525840647053,161.88877125209547 92.64116579806432,161.51203788653947 93.14618383161724,161.30274142170674 93.3626201315783,161.09344484948087 94.12014718190767,160.21439807192655 94.44480163208209,159.96324150133296 94.94981966540217,159.50278738653287 95.95985573227517,157.95398336290964 96.32058289926499,157.57724635873456 96.64523734920658,156.82377130517852 97.04203723254614,156.195874362631 97.25847353274003,155.6098363432102 97.76349156629294,154.8144976827316 98.08814601623453,154.01915746935993 98.37672774982639,153.01451498048846 98.62923676637001,152.38661216688342 99.27854566671886,151.38196565187536 99.49498196667992,150.75406032186584 100.10821815021336,149.74940978075028 100.46894531697035,149.3726651891193 100.97396335052326,148.74475676205475 101.98399941739626,147.8238226516405 104.40087143471465,146.14939166227123 104.8337440348696,145.56333919000463 105.33876206842251,144.684258900641 106.20450726873241,142.7167866169475 106.99810703564435,141.16791877240757 107.21454333560541,140.83302765330882 107.3949069189839,140.70744341262616 107.79170680232346,139.702768093528 108.5853065692354,138.5725053976348 108.98210645280778,137.86085690613254 111.11039673676714,135.474732302333 113.31083245389163,133.59093984676292 113.77977777086198,133.13045592149138 114.17657765420154,132.50252245704178 115.65555903804488,131.24665262398776 116.3048679381609,130.4094039175252 116.80988597148098,129.9070538674423 117.74777660518885,128.60931337057264 117.81992203858681,128.40000000002328 117.71170388860628,128.4418626827828 117.42312215524726,128.73490134134772" stroke="#4dd2ff" stroke-linecap="round" stroke-linejoin="round" stroke-width="0.5"><title>2022-06-13 1.5km</title></polyline><polyline fill="none" points="153.1110429286491,171.59999999997672 153.65950918686576,166.33752641628962 153.5597880491987,163.79301608214155 153.65950918686576,162.52075660979608 153.85895146266557,161.71113545109984 154.00853316974826,161.36415459867567 154.10825430741534,160.5545317795477 154.30769658321515,159.8027381208958 155.1553262551315,157.60518168011913 155.95309535833076,156.5064002481522 156.60128275421448,155.8702626512386 157.7480758400634,154.30883096164325 158.44612380536273,153.730521831254 159.24389290832914,153.3257050869288 160.04166201129556,152.74739494838286 160.98901282134466,151.76426635152893 161.58733964851126,151.41727937886026 162.1856664759107,150.83896728308173 163.6316229752265,149.7401726670796 164.97785833640955,148.4100500040804 165.72576687065884,147.94739790767198 166.3739542667754,147.71607171709184 166.82269938732497,147.0799242038047 168.0692136110738,145.8076270239544 170.06363636860624,144.47749508469133 171.26029002293944,143.20519203308504 172.2575014019385,142.51120734028518 173.45415505650453,141.29673207277665 173.7034579012543,140.83407413994428 175.69788065878674,138.40511376480572 177.04411602020264,136.14964119030628 177.3931400028523,134.9351522210054 177.69230341655202,134.35682322102366 178.0413273992017,133.43149558705045 178.78923593321815,130.88683676387882 178.8390965021681,130.30850361147895 178.78923593321815,129.5566696265596 178.88895707111806,128.39999999996508" stroke="#4dd2ff" stroke-linecap="round" stroke-linejoin="round" stroke-width="0.5"><title>2022-05-29 1.0km</title></polyline><polyline fill="none" points="34.55792001518421,176.40000000000873 34.46645771746989,176.61220279907866 33.77134425600525,177.7793143017043 33.33232522767503,178.6493385907379 32.582334387581795,179.83765853465593 31.137230085907504,188.6861833816074 34.57621247461066,194.16062069201143 35.03352396248374,194.69108172299457 35.765222343150526,195.77321800756908 36.03960923582781,196.28245665307622 37.35666632093489,198.34061673819087 38.08836470148526,199.52882354534813 38.12494962045457,199.65613101268536 38.106657161028124,200.0168350779859 38.161534539656714,200.27144933363888 38.3444591347361,200.75945911431336 38.61884602741338,202.18104626120476 38.80177062260918,202.71148672356503 38.820063082152046,203.1782732053398 38.78347816306632,203.79358104917628 38.56396864890121,204.93932181234413 38.234704377595335,205.97896997610223 37.79568534926511,206.82765848108102 37.448128618416376,207.37930414214497 37.11886434722692,207.73999474055017 36.698137778323144,208.27042094880017 35.98473185731564,208.94936451068497 34.79572198877577,209.86169141317077 32.28965503524523,211.91971639524854 31.429909438127652,212.68351427229936 30.89942811219953,213.25636082948768 30.47870154341217,213.78677289413463 30.094559893477708,214.35961639648303 29.94822021748405,214.63542936900922 29.67383332469035,215.44164979581547 29.4726162700681,216.31151568007772 29.436031350982375,216.62975838244893 29.436031350982375,217.4784031957388 29.3811539724702,218.34826051683922 29.179936917847954,219.55756827710138 29.25310675590299,219.60000000000582 29.289691674988717,219.53635241244046" stroke="#4dd2ff" stroke-linecap="round" stroke-linejoin="round" stroke-width="0.5"><title>2022-05-29 2.6km</title></polyline><polyline fill="none" points="117.80595417774748,176.40000000002328 117.66421523911413,176.4822118456359 116.92008581082337,177.22211769779096 116.49486899469048,177.87981064114138 115.07747960742563,179.31851018985617 113.62465548526961,180.67499360322836 112.59704817947932,181.7026294945681 110.40009462926537,184.21005000572768 109.90400834369939,184.7033112097124 109.54966099676676,184.90883653209312 108.91183577256743,185.68983179540373 108.20314107905142,186.30640592781128 106.43140434473753,188.27943677414441 104.37618973327335,190.37577140095527 102.32097512169275,192.63651213567937 99.80510895932093,195.26717620322597 99.13184900023043,196.08925518175238 98.2459806331899,196.95243629367906 95.58837553206831,199.99410729345982 94.41902928764466,201.43272742483532 93.39142198162153,202.9535488038091 92.54098834947217,203.85781823826255 91.33620737027377,205.54304219296318 90.80468634993304,206.15958577109268 90.27316532970872,207.0638479696645 89.81251377891749,207.68038920746767 88.89121067710221,209.07787916762754 88.50142859574407,209.57110975446994 84.17839096440002,216.43517239991343 83.6468699441757,217.17500446730992 82.1940458221361,219.60000000000582" stroke="#4dd2ff" stroke-linecap="round" stroke-linejoin="round" stroke-width="0.5"><title>2022-05-25 1.5km</title></polyline><polyline fill="none" points="183.83444657735527,176.40000000002328 183.52002930187155,176.48105508144363 182.6466479805531,177.41318732188665 182.61171272781212,177.53476962589775 182.12261918804143,178.18320794796455 181.45884938375093,178.75059060633066 181.07456160255242,179.27744520205306 180.13130977575202,180.20957084177644 179.36273421312217,180.85800477175508 178.80377016763669,181.50643763702828 178.38454713346437,181.83065367041854 178.14000036357902,182.19539638975402 176.49804347986355,184.05963169419556 175.7993384229485,184.70805930235656 175.44998589449096,184.870166038163 174.89102184888907,185.6401721240254 174.192316791974,186.2480706050119 172.3756836442044,188.35544476108043 172.09620162134524,188.5175499995239 171.3276260588318,189.32807519420749 170.69879150763154,189.8954418405774 169.7904749334557,190.9491205928498 169.19657563511282,191.51648491050582 168.3231943140272,192.57015933777438 168.04371229140088,192.73226284634438 167.4148777400842,193.5427793910203 166.8559136945987,194.0696142531233 166.29694964911323,194.67749975906918 165.9475971206557,195.0422306136752 165.17902155814227,195.97431904484984 164.30564023694023,196.78482893604087 163.3973236628808,197.91953998949612 162.4540718360804,198.93267210372142 161.23133798642084,200.35105269763153 160.49769767688122,201.24260360660264 160.28808615973685,201.68837830636767 159.519510597107,202.74202559687546 158.96054655162152,203.30937297357013 158.26184149470646,204.2414418948756 157.80768320779316,204.8087871177995 157.70287744922098,205.05193482106552 157.24871916230768,205.619278879778 157.1089781508781,205.70032796444139 156.93430188659113,205.94347511880915 156.37533784110565,206.8755378240894 155.99105005979072,207.3213061663555 155.92117955419235,207.56445232292754 155.6766327841906,207.8481226496515 155.04779823310673,208.82070508043398 154.66351045155898,209.18542287460878 154.31415792333428,209.91485745253158 154.0696111532161,210.2390501658665 153.85999963630456,210.60376665031072 152.91674780950416,212.02210533322068 151.76388446555939,213.96724724490196 151.37959668412805,214.4130075838475 151.06517940864433,215.06138536077924 150.43634485744406,216.03395003077458 150.01712182327174,216.56075489372597 148.61971170944162,218.91110649201437 148.2703591809841,219.47843064466724 148.16555342264473,219.5189537673432 148.2354239282431,219.47843064466724 148.30529443384148,219.60000000000582 148.3402296868153,219.55947688565357 148.44503544527106,219.27581496944185" stroke="#4dd2ff" stroke-linecap="round" stroke-linejoin="round" stroke-width="0.5"><title>2022-05-25 1.6km</title></polyline><polyline fill="none" points="43.40710280369967,246.56217579252552 40.50018691504374,244.31396898668027 38.2392523358576,242.8151613730588 35.49383177515119,241.31635129760252 30.568224298767745,237.85034357121913 25.9656074764207,235.22741005552234 23.8661682237871,233.5412345289369 21.120747663080692,232.3234391558217 18.85981308342889,231.76137920457404 17.567850466817617,231.01196539809462 17.325607476290315,230.9182886291528 17.002616822253913,231.2929956476437 16.114392522722483,232.79182218393544 14.337943925056607,235.4147626993945 12.399999999906868,239.16180750215426 12.642242989968508,239.81753876095172 13.530467289499938,240.5669453368173 15.064672897104174,241.1289998650318 17.164112149272114,242.34678348881425 18.698317756410688,243.93926731409738 19.586542055476457,244.68867050565314 22.412710280157626,246.1874750428251 27.338317756541073,249.37242651189445 31.860186915379018,251.7142955014133 33.15214953199029,252.6510414147633 34.444112149532884,253.7751352415653 35.574579439125955,254.24350726080593 37.18953271023929,255.55494763620663 38.562242990359664,255.74229610752081 43.730093457270414,258.6461924936739 46.959999999497086,260.7070165819605 49.14018691563979,261.0817113708472 49.947663550730795,260.8006902936613 50.755140186753124,260.33232163917273 51.23962616780773,259.67660511954455 51.48186915880069,259.77027893654304 51.64336448581889,259.5829312924179 52.2085981303826,258.6461924936739 53.66205607401207,257.24108249269193 54.146542055532336,255.8359703287715 55.51925233611837,254.0561584820971 55.59999999962747,253.7751352415653 55.59999999962747,253.58778636652278 54.873271027579904,253.213088501303 53.41981308348477,253.0257395109511 52.37009345786646,252.0889939822955 51.80485981237143,250.77754862676375 51.07813084078953,250.12182524229866 48.49420560710132,249.09140182938427 46.798504672478884,247.87362720503006 41.792149532120675,244.7823458611383" stroke="#4dd2ff" stroke-linecap="round" stroke-linejoin="round" stroke-width="0.5"><title>2022-05-23 1.3km</title></polyline><polyline fill="none" points="78.39999999990687,228.16639043335454 79.17837837827392,228.61789048393257 79.99999999976717,228.91889028597507 80.95135135110468,229.62122243642807 82.11891891877167,229.77172205160605 82.68108108080924,230.0225546406873 83.24324324307963,231.2265492764418 83.54594594566151,231.57771381980274 84.10810810793191,231.97904441770515 84.7567567564547,232.93220326685696 85.23243243223988,233.4338650724967 86.78918918897398,233.93552636317327 87.04864864842966,234.13619073529844 87.99999999976717,234.28668896027375 88.9945945944637,234.5876852713409 91.45945945917629,235.7415027465322 91.84864864847623,235.69133682607207 92.06486486457288,235.9421663772664 92.88648648629896,236.3936592451355 93.27567567536607,236.44382509353454 93.79459459427744,236.69465425869566 94.74594594561495,237.4973067220708 96.34594594570808,238.65111732881633 97.03783783782274,239.35343549516983 98.20540540502407,240.00558717470267 99.45945945917629,240.85839959653094 100.84324324317276,242.16269806952914 100.88648648629896,241.96203699245234 101.4054054049775,242.16269806952914 102.27027027006261,242.3131938231527 102.78918918897398,242.5138547560491 104.6486486485228,243.56732330218074 105.72972972947173,244.36996447990532 106.42162162135355,244.67095458184485 107.02702702698298,245.12243938734173 108.02162162144668,245.3732640988601 108.7999999995809,245.32309916685335 109.83783783763647,245.62408868194325 112.43243243219331,246.12573746178532 116.10810810793191,247.02870396804065 117.3189189187251,247.17919822366093 117.83783783763647,247.4300218799326 120.56216216203757,247.98183347078157 121.34054054040462,248.28282134860638 121.51351351314224,248.4834798310476 121.5999999998603,248.98512567635044 121.42702702688985,249.53693551171455 121.21081081079319,249.988415822736 121.25405405368656,250.69071769993752 121.21081081079319,251.0418682601885 119.82702702679671,253.14876632450614 119.04864864842966,254.75401589742978 118.05405405373313,256.05827729412704 117.70810810779221,257.0113891910005 116.67027026996948,258.51629892902565 116.15135135129094,259.8205502877827 115.67567567550577,260.573001411889 115.24324324307963,261.47594123211456 114.89729729713872,262.12806339841336 114.42162162158638,262.7300215489813 114.2054054052569,263.1814896755095 113.85945945931599,263.83360956664546" stroke="#4dd2ff" stroke-linecap="round" stroke-linejoin="round" stroke-width="0.5"><title>2022-05-21 1.5km</title></polyline><polyline fill="none" points="187.60000000009313,246.00011764740339 187.03713355062064,245.5103756603785 186.4742671009153,245.26550444055465 186.0169381108135,244.97982116037747 185.2078175896313,244.1635820857191 184.8912052117521,244.04114608009695 184.11726384377107,243.83708598674275 183.62475570046809,243.2657171683677 183.06188925087918,242.9800324512762 182.49902280140668,242.4902867443452 182.14723127044272,242.36785022329423 181.61954397405498,241.9597282143659 180.0716612378601,241.22510754255927 179.15700325730722,240.4904855134082 178.4534201953793,240.28642359792138 177.08143322484102,239.22529994827346 176.65928338759113,238.77636216703104 175.92052117269486,238.40904905984644 174.7596091205487,238.12336085300194 174.4429967426695,238.28661128203385 173.24690553743858,239.51098736329004 172.1211726384936,240.4496731387335 171.10097719868645,241.87810376222478 170.7491856677225,242.24541366458288 170.327035830589,242.53109890958876 169.83452768728603,242.73515967314597 169.1309446253581,243.79627395560965 168.53289902280085,244.2860180538264 168.2514657981228,244.8573854060378 167.6885993485339,245.0206330701767 167.40716612385586,245.22469255607575 165.61302931595128,246.9795998117188 164.76872964180075,247.67339821814676 164.02996742667165,248.48963008765713 163.1856677525211,249.59154045360629 162.34136807825416,250.32614566772827 161.7433224755805,251.1831833688775 160.79348534205928,252.08103040792048 160.51205211738124,252.4075197376078 159.70293159608264,253.0196865083417 159.4214983714046,253.42779716514633 159.1752442996949,253.59104131063214 158.78827361564618,254.0807733448164 158.1902280129725,254.61131570133148 157.59218241041526,255.26428993750596 157.09967426711228,255.63158747417037 156.9237785016885,255.6723982905678 156.6775244299788,255.54996582868625 155.2351791531546,254.73374845224316 154.32052117271814,254.2848281810875 152.70228013023734,252.9788754195033 152.31530944630504,252.81563102276414 151.43583061895333,252.32589743033168 150.76742671011016,252.12184158875607 150.4859934853157,251.83616323463502 149.92312703595962,251.67291836882941 149.39543973945547,251.42805094423238 148.19934853422455,250.48939108659397 147.00325732899364,249.83640900914907 145.56091205216944,248.85693388213986 144.40000000002328,248.2447607026843 145.279478827375,249.18342585931532 147.2143322476186,250.2445229331788 148.30488599347882,251.06074952470954 148.62149837147444,251.38723969220882 149.2195439740317,251.7137295914872 150.13420195446815,252.5299531671626 151.01368078181986,252.9788754195033 152.033876221627,253.38698611821746 152.63192182418425,253.7542853889754 152.9133550488623,253.7950963981566 153.93355048866943,253.0196865083417 154.63713355059735,252.12184158875607 156.1146579805063,250.8158817231306 157.09967426711228,249.75478617407498 157.3107491856208,249.26504881176515 157.5570032573305,248.93855690170312 158.22540716617368,248.40800697609666 159.10488599340897,247.7958331053378 160.6175895765191,246.4490472722391 161.77850162878167,245.14306877422496 163.50228013040032,243.5105896196328 165.1908794788178,242.20460147006088 166.35179153096396,240.9802336836874 167.02019543969072,240.327235989389 167.8644951140741,239.71504967685905 168.4977198697161,238.81717471347656 169.09576547227334,238.2049860758416 169.51791530952323,238.00092298723757 170.04560260591097,237.4703584664676 170.39739413699135,237.3071077023924 170.85472312709317,237.22548229512176 171.9452768729534,236.4500400906254 172.3674267102033,236.3276017094322 174.7596091205487,237.6336091636622 175.46319218247663,238.28661128203385 176.16677524428815,238.6947370613634 176.9407166123856,239.30692494480172" stroke="#4dd2ff" stroke-linecap="round" stroke-linejoin="round" stroke-width="0.5"><title>2022-05-18 2.7km</title></polyline></svg>