<?xml version="1.0" encoding="utf-8" ?>
<svg baseProfile="full" height="300mm" version="1.1" viewBox="0,0,200,300" width="200mm" xmlns="http://www.w3.org/2000/svg" xmlns:ev="http://www.w3.org/2001/xml-events" xmlns:xlink="http://www.w3.org/1999/xlink"><defs /><rect fill="#222222" height="300" width="200" x="0" y="0" /><text fill="#FFFFFF" style="font-size:12px; font-family:Arial; font-weight:bold;" x="10" y="20">Over 1km Runs</text><text fill="#FFFFFF" style="font-size:4px; font-family:Arial" x="10" y="280">ATHLETE</text><text fill="#FFFFFF" style="font-size:9px; font-family:Arial" x="10" y="290">bjing</text><text fill="#FFFFFF" style="font-size:4px; font-family:Arial" x="120" y="280">STATISTICS</text><text fill="#FFFFFF" style="font-size:3px; font-family:Arial" x="120" y="285">Number: 11</text><text fill="#FFFFFF" style="font-size:3px; font-family:Arial" x="120" y="290">Weekly: 2.2</text><text fill="#FFFFFF" style="font-size:3px; font-family:Arial" x="141" y="285">Total: 17.4 km</text><text fill="#FFFFFF" style="font-size:3px; font-family:Arial" x="141" y="290">Avg: 1.6 km</text><text fill="#FFFFFF" style="font-size:3px; font-family:Arial" x="167" y="285">Min: 1.0 km</text><text fill="#FFFFFF" style="font-size:3px; font-family:Arial" x="167" y="290">Max: 2.7 km</text><polyline fill="none" points="57.707251384621486,33.0 52.78052023029886,40.19577393401414 51.73721245629713,41.33902045758441 50.80982776824385,42.751263407990336 50.40409696730785,43.55825801222818 39.217519169673324,58.89096656005131 38.40605756780133,60.16867606929736 38.00032676686533,61.24464003875619 37.478672879748046,61.71537371940212 37.07294207904488,62.320602240099106 36.26148047694005,63.060325228609145 33.94301875727251,66.48993907601107 32.725826354464516,68.1038687901455 30.871056978590786,71.19722295942483 29.943672291003168,72.54215499793645 28.900364516768605,74.62679419986671 26.87171051208861,78.39257723017363 26.87171051208861,79.19952791999094 26.29209508234635,80.07372337859124 26.118210453307256,80.81342631677398 25.42267193738371,81.41863719036337 25.074902679305524,81.82211079553235 23.50994101865217,84.98264543671394 22.292748615611345,87.0" stroke="#4dd2ff" stroke-linecap="round" stroke-linejoin="round" stroke-width="0.5"><title>2022-07-04 1.1km</title></polyline><polyline fill="none" points="85.07667837105691,33.0 86.90216113906354,34.37650569132529 88.54509563092142,35.22358520398848 90.55312667554244,36.49420316866599 91.83096461277455,36.917742142337374 94.20409221155569,38.188358020968735 98.31142843933776,41.153122318326496 101.96239397581667,42.74138540180866 103.42278019012883,43.906110109062865 108.16903538722545,46.447323088301346 110.72471126262099,47.92969443555921 114.01058024493977,49.62383051041979 114.74077335232869,50.153247463167645 114.92332162894309,50.47089750482701 114.83204749086872,51.31796380376909 114.1018543834798,52.270912558422424 112.18509747693315,53.32974347611889 110.90725953970104,54.388573306961916 108.35158366430551,56.9297604681924 105.61335951229557,59.4709413703531 98.76779913157225,66.24739317956846 97.03359050210565,67.72973607981112 95.39065601071343,69.52972102479544 94.38664048817009,70.37677167728543 89.7316594296135,74.9296570190927 86.90216113906354,77.57667414587922 86.17196803214028,78.52959864889272 86.35451630875468,79.48252227238845 87.90617666160688,81.2824867151212 93.93026979640126,84.77652637590654 96.21212325664237,86.36472231068183 96.75976808648556,86.47060195275117 98.31142843933776,86.25884265766945 100.6845560381189,85.41180504322983 101.04965259181336,85.51768478297163 102.78386122127995,87.0 103.33150605205446,86.89412041229662 103.69660260574892,86.47060195275117" stroke="#4dd2ff" stroke-linecap="round" stroke-linejoin="round" stroke-width="0.5"><title>2022-06-28 1.0km</title></polyline><polyline fill="none" points="139.46929858834483,87.0 141.27136642369442,84.83410213590832 144.03882774244994,82.96694362431299 145.06858079112135,82.14539235952543 146.29141253675334,80.87572039640509 148.35091863456182,77.88824820471928 149.76682907668874,74.30326536454959 150.60350342886522,73.03357970149955 153.0491669201292,68.55231845442904 154.14327953453176,67.05855856498238 156.46022389433347,64.1457179497811 158.00485346792266,62.427883395925164 159.7425617375411,60.71004478173563 164.18337176088244,56.60215336957481 166.17851829295978,54.36147553951014 167.72314786654897,52.41954916494433 168.23802439076826,51.97141157236183 170.36189005430788,49.28258021362126 171.19856440648437,47.78878071537474 172.87191311083734,45.54807571042329 174.0303852907382,43.382054305053316 174.67398094641976,41.58947998343501 175.57501486409456,38.527155287680216 176.60476791276596,36.65987779822899 177.5701613961719,35.39012636465486 178.4711953138467,34.419138477242086 179.43658879725263,33.52284081414109 180.53070141165517,33.0 180.01582488743588,33.07469156791922 178.92171227303334,34.045681251969654 178.53555487957783,34.269755610090215 178.0850379203912,34.71790411911206 176.5404083475005,36.80926017416641 175.96117225731723,37.332098247192334 175.6393744298257,37.929627013159916 175.57501486409456,38.60184628755087 175.2532170363702,39.796901239897124 174.28782355296426,42.26169587217737 173.38678963528946,44.054268535343 173.00063224183396,45.02524354844354 171.26292397198267,47.340640267240815 169.65393483289517,47.8634707632591 167.85186699754559,48.983820559456944 164.4408100231085,50.85106638201978 161.2871913111303,52.120790800778195 158.4553704264108,53.83864971838193 155.88098780438304,54.884300984384026" stroke="#4dd2ff" stroke-linecap="round" stroke-linejoin="round" stroke-width="0.5"><title>2022-06-15 1.5km</title></polyline><polyline fill="none" points="17.725097452057526,147.0 18.58182447310537,145.32566741813207 19.438551494386047,144.06991436937824 20.881460161181167,142.70951173908543 22.324368828209117,141.0351650515804 23.27127764117904,140.09334262064658 23.94764107884839,139.62243075223523 24.71418630820699,138.73292936795042 25.48073153756559,138.20969253385556 27.374549163039774,137.21554106788244 29.13309410121292,136.01209195997217 30.440730080707,134.8609640650975 30.801457247231156,134.39004735817434 31.432729789288715,134.1284267771407 31.703275164356455,133.8668060618511 32.65018397709355,132.76799758989364 33.05600203969516,132.45405187664437 33.68727458151989,131.8784842331661 34.94981966516934,129.94247920362977 35.40072862384841,129.4715579483891 35.80654668645002,128.52971413146588 36.30254654074088,127.74484295331058 36.57309191580862,127.01229542901274 37.204364457633346,126.0181221034145 37.61018252000213,125.02394683670718 37.970909687224776,123.76814372561057 38.28654595790431,122.98326520857518 39.09818208310753,121.7274570648442 39.3687274584081,120.94257540232502 40.1352726877667,119.68676222593058 40.586181645980105,119.21583148639183 41.217454188037664,118.43094595256844 42.47999927168712,117.27977831455064 45.50108929327689,115.18673957785359 46.04218004341237,114.4541739874985 46.6734525852371,113.3553236257867 47.75563408550806,110.89598327115527 48.74763379432261,108.95989846551674 49.01817916939035,108.54128456665785 49.24363364861347,108.3843042657827 49.739633502904326,107.12846011691727 50.73163321125321,105.71563174706534 51.2276330657769,104.82607113264385 53.88799592084251,101.84341537789442 56.63854056713171,99.4886748084682 57.22472221334465,98.9130699018715 57.720722067635506,98.12815307130222 59.5694487974979,96.5583157799847 60.38108492246829,95.51175489689922 61.01235746429302,94.88381733428105 62.18472075625323,93.26164171320852 62.274902547942474,93.0 62.139629860408604,93.05232835345669 61.77890269388445,93.41862667669193" stroke="#4dd2ff" stroke-linecap="round" stroke-linejoin="round" stroke-width="0.5"><title>2022-06-13 1.5km</title></polyline><polyline fill="none" points="83.8888036608696,147.0 84.57438648375683,140.42190802039113 84.44973506173119,137.24127010273514 84.57438648375683,135.65094576228876 84.82368932850659,134.6389193139039 85.01066646235995,134.20519324834459 85.13531788461842,133.19316472444916 85.38462072913535,132.25342265120707 86.44415781926364,129.50647710013436 87.44136919802986,128.13300031021936 88.25160344317555,127.33782831410645 89.6850948005449,125.38603870209772 90.55765475681983,124.66315228905296 91.55486613581888,124.1571313586901 92.55207751435228,123.43424368550768 93.73626602673903,122.20533293945482 94.48417456075549,121.77159922360443 95.23208309500478,121.04870910389582 97.03952871914953,119.67521583393682 98.72232292080298,118.01256250514416 99.65720858843997,117.43424738460453 100.4674428338185,117.1450896463939 101.02837423444726,116.34990525478497 102.58651701407507,114.75953377998667 105.07954546110705,113.09686885587871 106.57536252890714,111.5064900413854 107.82187675265595,110.63900917535648 109.3176938209217,109.12091509101447 109.6293223768007,108.54259267495945 112.12235082383268,105.50639220606536 113.80514502548613,102.68705148791196 114.24142500385642,101.16894027631497 114.61537927086465,100.44602902635233 115.05165924900211,99.28936948382761 115.9865449166391,96.10854595486308 116.04887062800117,95.3856295144069 115.9865449166391,94.44583703327226 116.1111963391304,93.0" stroke="#4dd2ff" stroke-linecap="round" stroke-linejoin="round" stroke-width="0.5"><title>2022-05-29 1.0km</title></polyline><polyline fill="none" points="160.69740001892205,93.0 160.58307214686647,93.26525349883013 159.71418031991925,94.72414287712309 159.16540653456468,95.81167323840782 158.22791798447724,97.29707316830172 156.42153760732617,108.35772922702017 160.72026559326332,115.20077586499974 161.291904953192,115.86385215373593 162.20652792893816,117.216522509465 162.54951154475566,117.85307081631618 164.19583290116861,120.42577092270949 165.11045587691478,121.91102943167789 165.15618702559732,122.07016376583488 165.13332145125605,122.52104384748964 165.20191817451268,122.8393116670486 165.43057391839102,123.44932389288442 165.77355753432494,125.22630782649503 166.00221327820327,125.88935840444174 166.02507885266095,126.47284150664927 165.9793477037456,127.24197631145944 165.7049608110683,128.67415226541925 165.29338047199417,129.97371247012052 164.74460668652318,131.03457310135127 164.31016077299137,131.72413017766667 163.89858043403365,132.1749934256659 163.37267222290393,132.83802618598565 162.48091482149903,133.6867056383635 160.99465248605702,134.82711426645983 157.86206879408564,137.39964549406432 156.78738679760136,138.35439284035238 156.12428514030762,139.07045103685232 155.5983769291779,139.73346611767192 155.11819986684714,140.4495204956038 154.93527527176775,140.79428671125788 154.59229165583383,141.8020622447657 154.34077033749782,142.88939460008987 154.29503918881528,143.28719797806116 154.29503918881528,144.3480039946444 154.22644246555865,145.43532564604538 153.97492114733905,146.9469603463658 154.06638344482053,147.0 154.11211459361948,146.9204405155324" stroke="#4dd2ff" stroke-linecap="round" stroke-linejoin="round" stroke-width="0.5"><title>2022-05-29 2.6km</title></polyline><polyline fill="none" points="62.25744272209704,153.0 62.080269048921764,153.10276480700122 61.150107263587415,154.02764712218777 60.6185862433631,154.8497633013758 58.84684950928204,156.64813773729838 57.03081935667433,158.34374200398452 55.74631022429094,159.6282868681592 53.00011828658171,162.76256250712322 52.380010429536924,163.37913901210413 51.93707624590024,163.63604566507274 51.13979471568018,164.61228974422556 50.25392634887248,165.38300740972045 48.03925543092191,167.84929596766597 45.47023716662079,170.46971425114316 42.90121890208684,173.29564016955555 39.75638619903475,176.58397025399609 38.91481125028804,177.6115689771541 37.807475791545585,178.690545367077 34.48546941508539,182.4926341167884 33.023786609526724,184.2909092810005 31.739277477143332,186.19193600473227 30.676235436927527,187.32227279778454 29.17025921284221,189.4288027411676 28.505857937503606,190.1994822138222 27.841456662165,191.32980996204424 27.265642223646864,192.1004865092982 26.11401334637776,193.84734895950533 25.62678574468009,194.4638871930656 20.222988705383614,203.04396549984813 19.55858743027784,203.96875558409374 17.74255727767013,207.0" stroke="#4dd2ff" stroke-linecap="round" stroke-linejoin="round" stroke-width="0.5"><title>2022-05-25 1.5km</title></polyline><polyline fill="none" points="122.29305822192691,153.0 121.90003662742674,153.1013188517536 120.80830997577868,154.26648415232194 120.76464090985246,154.4184620323649 120.15327398525551,155.22900993490475 119.32356172986329,155.9382382578915 118.84320200327784,156.59680650255177 117.66413721977733,157.76196355221327 116.70341776660644,158.57250596466474 116.00471270969138,159.38304704625625 115.48068391694687,159.78831708800863 115.17500045453198,160.24424548714887 113.12255434994586,162.57453961772262 112.24917302886024,163.38507412790204 111.81248236820102,163.58770754767465 111.11377731128596,164.55021515500266 110.24039599020034,165.31008825622848 107.9696045552846,167.94430595132872 107.62025202671066,168.14693749934668 106.65953257353976,169.1600939927157 105.87348938477226,169.8693023006781 104.73809366696514,171.1864007410186 103.99571954412386,171.89560613810318 102.90399289270863,173.21269917220343 102.55464036436751,173.4153285578941 101.76859717513435,174.42847423875355 101.06989211845212,175.087017816375 100.37118706153706,175.84687469882192 99.93449640087783,176.30278826705762 98.97377694770694,177.4678988060332 97.88205029629171,178.48103617000743 96.74665457871743,179.8994249868265 95.56758979521692,181.16584012960084 94.03917248314247,182.9388158720103 93.12212209613062,184.05325450820965 92.86010769987479,184.6104728829232 91.89938824647106,185.9275319960725 91.200683189556,186.63671621694812 90.32730186847039,187.80180236857268 89.75960400979966,188.51098389722756 89.62859681178816,188.8149185263028 89.0608989528846,189.52409859967884 88.88622268871404,189.62540995550808 88.66787735838443,189.9293438984605 87.96917230146937,191.09442228008993 87.48881257488392,191.65163270788617 87.40147444279864,191.95556540362304 87.09579098038375,192.3101533120498 86.30974779161625,193.5258813505061 85.82938806456514,193.98177859323914 85.39269740413874,194.8935718156281 85.08701394172385,195.29881270730402 84.82499954546802,195.7547083128593 83.64593476196751,197.5276316664822 82.20485558197834,199.95905905609834 81.72449585539289,200.516259479773 81.33147426089272,201.32673170094495 80.54543107189238,202.5424375384464 80.02140227914788,203.20094361712108 78.27463963697664,206.13888311499613 77.83794897631742,206.8480383057904 77.70694177830592,206.89869220912806 77.7942799103912,206.8480383057904 77.88161804247648,207.0 77.92528710863553,206.9493461070524 78.05629430687986,206.5947687117441" stroke="#4dd2ff" stroke-linecap="round" stroke-linejoin="round" stroke-width="0.5"><title>2022-05-25 1.6km</title></polyline><polyline fill="none" points="171.75887850485742,180.702719740686 168.12523364415392,177.8924612334231 165.29906542040408,176.01895171636716 161.86728971917182,174.1454391219886 155.7102803736925,169.81292946403846 149.9570093457587,166.53426256938837 147.33271028008312,164.426543161273 143.90093457931653,162.904298944748 141.07476635463536,162.20172400574666 139.45981308398768,161.26495674764737 139.1570093454793,161.14786078652833 138.7532710279338,161.6162445595255 137.64299065386876,163.48977772996295 135.42242990620434,166.7684533742722 133.0,171.45225937769283 133.3028037380427,172.27192345121875 134.41308411210775,173.20868167106528 136.33084112172946,173.91124983131886 138.95514018647373,175.43347936100326 140.87289719609544,177.42408414266538 141.98317756969482,178.36083813209552 145.51588785042986,180.23434380348772 151.67289719590917,184.2155331398826 157.32523364480585,187.14286937681027 158.94018691545352,188.3138017684687 160.55514018703252,189.71891905204393 161.96822429914027,190.3043840760365 163.9869158877991,191.9436845452292 165.70280373841524,192.17787013435736 172.16261682193726,195.8077406170778 176.1999999997206,198.38377072755247 178.92523364489898,198.8521392135881 179.93457943899557,198.50086286710575 180.94392523355782,197.91540204896592 181.5495327101089,197.09575639944524 181.85233644861728,197.21284867066424 182.0542056071572,196.97866411553696 182.76074766321108,195.8077406170778 184.57757009286433,194.05135311593767 185.18317756988108,192.2949629110517 186.89906542003155,190.07019810262136 187.0,189.71891905204393 187.0,189.48473295825534 186.09158878494054,189.0163606266724 184.27476635482162,188.78217438876163 182.96261682221666,187.6112424778985 182.25607476569712,185.9719357835129 181.34766355110332,185.15228155290242 178.11775700887665,183.86425228673033 175.99813084071502,182.34203400625847 169.74018691526726,178.47793232637923" stroke="#4dd2ff" stroke-linecap="round" stroke-linejoin="round" stroke-width="0.5"><title>2022-05-23 1.3km</title></polyline><polyline fill="none" points="13.0,217.7079880417441 13.972972973017022,218.27236310497392 15.0,218.6486128575052 16.189189188880846,219.5265280455351 17.648648648522794,219.71465256455122 18.351351351244375,220.02819330088096 19.054054053965956,221.5331865955959 19.43243243219331,221.97214227478253 20.13513513491489,222.47380552213872 20.945945945568383,223.66525408357847 21.54054054035805,224.29233134066453 23.486486486392096,224.91940795397386 23.810810810886323,225.17023841914488 24.99999999976717,225.3583612003713 26.243243243079633,225.73460658919066 29.324324324261397,227.1768784331507 29.810810810653493,227.1141710326192 30.081081080948934,227.42770797159756 31.108108107931912,227.9920740564703 31.594594594324008,228.05478136695456 32.24324324307963,228.3683178233914 33.43243243219331,229.37163340259576 35.43243243219331,230.81389666104224 36.29729729727842,231.6917943690205 37.756756756454706,232.50698396837106 39.3243243242614,233.5729994957219 41.054054053965956,235.20337258692598 41.10810810793191,234.95254624058725 41.756756756454706,235.20337258692598 42.83783783763647,235.3914922789554 43.486486486392096,235.64231844508322 45.81081081065349,236.95915412774775 47.16216216189787,237.96245559991803 48.02702702675015,238.3386932273279 48.783783783903345,238.90304923418444 50.02702702698298,239.2165801235824 50.99999999976717,239.1538739585667 52.29729729727842,239.5301108524436 55.54054054059088,240.1571718272753 60.13513513491489,241.2858799600508 61.648648648522794,241.473997779598 62.29729729727842,241.78752734995214 65.70270270272158,242.4772918384988 66.6756756757386,242.85352668579435 66.89189189160243,243.1043497888022 67.0,243.73140709544532 66.78378378367051,244.42116938967956 66.5135135136079,244.9855197784491 66.56756756734103,245.8633971249219 66.5135135136079,246.30233532527927 64.78378378367051,248.93595790566178 63.81081081065349,250.94251987180905 62.56756756734103,252.57284661766607 62.13513513491489,253.764236488787 60.83783783763647,255.6453736613039 60.18918918911368,257.2756878597429 59.59459459455684,258.21625176491216 59.054054053965956,259.34492654015776 58.621621621539816,260.1600792480167 58.02702702698298,260.9125269362121 57.75675675668754,261.47686209442327 57.3243243242614,262.2920119583141" stroke="#4dd2ff" stroke-linecap="round" stroke-linejoin="round" stroke-width="0.5"><title>2022-05-21 1.5km</title></polyline><polyline fill="none" points="127.0,240.00014705926878 126.2964169383049,239.3879695754731 125.59283387614414,239.08188055071514 125.02117263851687,238.7247764504864 124.00977198709734,237.70447760715615 123.61400651466101,237.55143260009936 122.64657980483025,237.29635748342844 122.03094462561421,236.58214646045235 121.32736156368628,236.2250405640807 120.62377850175835,235.61285843042424 120.18403908819892,235.45981277912506 119.52442996762693,234.94966026797192 117.58957654726692,234.03138442820637 116.44625407177955,233.1131068917748 115.56677524442784,232.8580294973799 113.85179153108038,231.53162493533455 113.32410423457623,230.97045270877425 112.40065146586858,230.51131132480805 110.94951140065677,230.15420106626698 110.55374592845328,230.3582641025423 109.05863192188554,231.88873420411255 107.6514657982625,233.0620914234314 106.37622149847448,234.84762970279553 105.93648208468221,235.30676708073588 105.40879478817806,235.66387363697868 104.79315960919484,235.91894959143247 103.91368078184314,237.24534244451206 103.16612377855927,237.85752256729756 102.81433224771172,238.57173175754724 102.11074918578379,238.7757913377427 101.75895765493624,239.0308656950947 99.51628664485179,241.2244997646485 98.46091205230914,242.09174777267617 97.53745928336866,243.11203760956414 96.48208469059318,244.48942556700786 95.4267100978177,245.40768208468216 94.67915309453383,246.47897921109688 93.49185667769052,247.6012880099006 93.14006514684297,248.00939967200975 92.1286644951906,248.77460813542712 91.77687296434306,249.28474645642564 91.46905537461862,249.48880163830472 90.98534201970324,250.10096668102778 90.23778501618654,250.7641446266789 89.49022801290266,251.580362421897 88.87459283391945,252.0394843427057 88.65472312713973,252.09049786318792 88.34690553764813,251.93745728585054 86.54397394158877,250.91718556534033 85.40065146586858,250.35603522634483 83.37785016279668,248.72359427440097 82.8941368078813,248.51953877846245 81.79478827374987,247.90737178790732 80.95928338775411,247.6523019859451 80.60749185667373,247.29520404330106 79.90390879497863,247.09114796103677 79.24429967440665,246.78506368031958 77.7491856678389,245.61173885824974 76.25407166127115,244.7955112614436 74.4511400652118,243.57116735266754 73.0,242.80595087836264 74.09934853413142,243.97928232417325 76.51791530963965,245.30565366646624 77.88110749190673,246.3259369058942 78.27687296434306,246.73404961527558 79.02442996762693,247.14216198938084 80.1677524431143,248.16244145896053 81.26710097724572,248.72359427440097 82.54234527703375,249.23373264778638 83.28990228031762,249.69285673621926 83.64169381116517,249.7438704976812 84.9169381109532,248.77460813542712 85.7964169383049,247.6523019859451 87.6433224757202,246.0198521539278 88.87459283391945,244.69348271758645 89.13843648205511,244.08131101471372 89.44625407177955,243.67319612714346 90.28175895777531,243.0100087201281 91.38110749190673,242.24479138167226 93.27198697067797,240.56130909029162 94.7231270361226,238.92883596778847 96.8778501630295,236.88823702457012 98.98859934858046,235.25575183756882 100.43973941379227,233.72529210461653 101.2752442995552,232.90904498673626 102.3306188925635,232.14381209609564 103.12214983720332,231.0214683918457 103.8697068404872,230.25623259480926 104.39739413699135,230.00115373404697 105.0570032573305,229.33794808309176 105.4967426713556,229.1338846280123 106.06840390898287,229.03185286890948 107.43159609124996,228.06255011327448 107.95928338775411,227.90950213681208 110.94951140065677,229.542011454585 111.82899022800848,230.3582641025423 112.70846905536018,230.86842132671154 113.67589576542377,231.6336561810167" stroke="#4dd2ff" stroke-linecap="round" stroke-linejoin="round" stroke-width="0.5"><title>2022-05-18 2.7km</title></polyline></svg>