<?xml version="1.0" encoding="utf-8" ?>
<svg baseProfile="full" height="300mm" version="1.1" viewBox="0,0,200,300" width="200mm" xmlns="http://www.w3.org/2000/svg" xmlns:ev="http://www.w3.org/2001/xml-events" xmlns:xlink="http://www.w3.org/1999/xlink"><defs /><rect fill="#222222" height="300" width="200" x="0" y="0" /><text fill="#FFFFFF" style="font-size:12px; font-family:Arial; font-weight:bold;" x="10" y="20">Over 1km Runs</text><text fill="#FFFFFF" style="font-size:4px; font-family:Arial" x="10" y="280">ATHLETE</text><text fill="#FFFFFF" style="font-size:9px; font-family:Arial" x="10" y="290">bjing</text><text fill="#FFFFFF" style="font-size:4px; font-family:Arial" x="120" y="280">STATISTICS</text><text fill="#FFFFFF" style="font-size:3px; font-family:Arial" x="120" y="285">Number: 14</text><text fill="#FFFFFF" style="font-size:3px; font-family:Arial" x="120" y="290">Weekly: 2.0</text><text fill="#FFFFFF" style="font-size:3px; font-family:Arial" x="141" y="285">Total: 21.9 km</text><text fill="#FFFFFF" style="font-size:3px; font-family:Arial" x="141" y="290">Avg: 1.6 km</text><text fill="#FFFFFF" style="font-size:3px; font-family:Arial" x="167" y="285">Min: 1.0 km</text><text fill="#FFFFFF" style="font-size:3px; font-family:Arial" x="167" y="290">Max: 2.7 km</text><polyline fill="none" points="21.58658725093119,75.59999999997672 21.863672356819734,74.37861234933371 22.029923420399427,74.05719415092608 23.63701703515835,71.55012654303573 24.135770226130262,70.45729906170163 24.856191501719877,69.68589027994312 23.96951916255057,68.97876472905045 23.858685120008886,68.72162796737393 25.188693628879264,64.67171004711417 25.46577873500064,64.67171004711417 27.959544689161703,65.05741764366394 29.23413617676124,64.86456387519138 29.954557452118024,64.47885615989799 30.841229791520163,63.57887056749314 31.949570215540007,62.03603511553956 32.28207234246656,61.20033099257853 32.55915744882077,59.978915269253775 33.390412766486406,59.400349095405545 34.332502126926556,60.04320036660647 35.93959574191831,58.05035927874269 38.43336169607937,52.97180010168813 38.488778717117384,52.77894261275651 37.990025526378304,51.87894021242391 38.045442547649145,51.49322450213367 39.81878722598776,48.214631376438774 41.75838296790607,44.87173444387736 41.869217010680586,44.678874461271334 42.20171913783997,44.550301106472034 42.367970201419666,44.35744102485478 42.92214041342959,42.62169761827681 45.02798721916042,37.478725954308175 46.080910621909425,35.35723784181755 46.41341274906881,34.39292268815916 46.41341274906881,34.13577172992518 46.24716168548912,33.81433288345579 45.526740410132334,33.492893872084096 44.03048083744943,32.399999999965075" stroke="#4dd2ff" stroke-linecap="round" stroke-linejoin="round" stroke-width="0.5"><title>2022-08-14 1.0km</title></polyline><polyline fill="none" points="86.50789546617307,38.21419341416913 87.03895001101773,38.560731898091035 87.76915001042653,39.215303716628114 88.00148637383245,39.369320449157385 89.2295500091277,39.63884957876871 89.69422273605596,40.02389085679897 90.59037728072144,40.485939868784044 91.12143182568252,40.60145203291904 91.68567727983464,40.60145203291904 92.38268637016881,40.0623949628789 94.20818636845797,37.40560237347381 94.70605000446085,36.481496192951454 94.8056227316847,36.21196479490027 95.60220454912633,34.864304899732815 95.66858636727557,34.55626767259673 95.86773182172328,34.01720191637287 96.19964091223665,33.63215447336552 96.4651681848336,33.4011258178798 96.6311227302067,32.74654385479516 97.1953681842424,32.438504888588795 97.49408636568114,32.40000000002328 97.7596136382781,32.51551465387456 98.02514091075864,32.708038997865515 98.58938636479434,33.01607774262084 98.82172272820026,33.24710663524456 99.61830454564188,33.59364970726892 100.71360454475507,34.36374427707051 101.21146818064153,34.97981879473082 101.57656818057876,35.17234187404392 103.26930454256944,35.980937728105346 103.73397726938128,36.13495578840957 103.9663136327872,36.13495578840957 104.53055908693932,36.404487241845345 104.63013181404676,36.59700959007023 104.82927726849448,36.789531839312986 106.55520453979261,37.752141604345525 107.15264090290293,38.21419341416913 107.91603181138635,38.175689118448645 108.08198635675944,38.25269770587329 108.71261362882797,38.79175737622427 109.3100499920547,39.13829532667296 109.84110453689937,39.60034542926587 110.4385409001261,39.946882632910274 110.93640453601256,40.37042766917148 111.20193180860952,40.52444392739562 111.43426817189902,40.83247625429067 113.22657726122998,41.94909131922759 113.4257227156777,42.103106929484056 113.49210453382693,42.2571224764979 113.45891362475231,42.719168738112785 113.22657726122998,42.7961763930507 113.19338635215536,42.87318403221434 113.12700453400612,43.18121443071868 112.6955227162689,43.489244576281635 112.09808635315858,44.952384314266965 111.73298635345418,45.4529308094352 111.40107726294082,46.14599408491631 111.20193180860952,46.91606288935873 111.23512271756772,47.532116795075126 111.10235908138566,48.22517622978194 110.93640453601256,48.379189263650915 110.17301362752914,48.84122798588942 109.17728635563981,49.26476298144553 108.87856817408465,49.57278813244193 108.67942271963693,50.034825384878786 108.61304090160411,50.41985599391046 108.38070453819819,50.997401166532654 108.38070453819819,51.574945450236555 108.14836817479227,52.152488844818436 107.88284090231173,52.537517280783504 107.51774090260733,52.76853415253572 107.01987726660445,53.3075729671109 106.58839544886723,54.00062173375045 106.05734090378974,55.078695048287045 105.85819544934202,55.73323804954998 105.62585908605251,56.349277478148 105.5926681769779,56.65729681318044 105.65904999501072,57.23483238500194 105.62585908605251,57.42734404458315 105.75862272223458,57.81236706767231 105.32714090449736,59.4679615648638 105.26075908634812,59.54496578243561 104.43098635971546,60.315007087541744 103.80035908764694,60.73852913180599 103.30249545152765,60.96954095453839 102.60548636130989,61.008042911067605 101.60975908942055,60.700027147482615 101.24465908983257,60.700027147482615 101.04551363538485,60.854035060998285 100.71360454475507,61.393062260031 100.58084090857301,61.85508495714748 100.58084090857301,62.933135704894084 100.48126818134915,63.39515650575049 100.54764999938197,63.934180054435274 100.44807727227453,64.55020601910655 99.65149545483291,65.85925783615676 98.82172272820026,67.93833074774011 98.25747727416456,68.47734777050209 97.85918636550196,68.55435013907845 97.56046818383038,68.40034538591863 97.3945136385737,67.97683198942104 97.29494091146626,67.93833074774011 97.16217727505136,68.05383446067572 96.96303182083648,68.47734777050209 96.26602273038588,68.70835482879193 96.79707727546338,68.82385830473504 96.56474091182463,69.24737074546283 96.33240454853512,69.47837732976768 95.66858636727557,69.55537949295831 95.30348636768758,69.86338798774523 94.54009545920417,71.28792398740188 93.44479545997456,73.44396818731911 92.91374091512989,73.90597604721552 92.84735909686424,73.90597604721552 92.88055000593886,74.21398097102065 92.58183182450011,74.86849059475935 92.41587727912702,75.0224926933297 91.58610455261078,75.48449860981782 91.22100455290638,75.52299907713314 90.65675909887068,75.25349572268897 90.2916590992827,75.33049670088803 90.19208637205884,75.52299907713314 89.66103182698134,75.60000000000582" stroke="#4dd2ff" stroke-linecap="round" stroke-linejoin="round" stroke-width="0.5"><title>2022-08-14 2.4km</title></polyline><polyline fill="none" points="145.99711587582715,75.59999999997672 147.84020004980266,73.65072062343825 149.79170094034635,71.07263192627579 151.9058269043453,68.87181592162233 153.47786928829737,66.67099201411474 155.8630370425526,64.281517109368 157.05562092014588,62.70948906504782 159.71183046512306,60.005591396417 160.57916419417597,59.3138947278494 161.6633313554339,57.804735649959184 162.58487344230525,56.92439113842556 164.04849910968915,55.28946226212429 165.67474985169247,53.968939601036254 169.08987640962005,50.13311954360688 170.87875222531147,48.49817254935624 173.53496177052148,45.29114846844459 176.73325489577837,42.14699092000956 178.30529727973044,40.38625564641552 178.95579757657833,39.75742039416218 180.52783996029757,37.87091076566139 181.88304891181178,36.67611833033152 182.91300771478564,35.60709154518554 184.48505009850487,34.09787408541888 186.00288412417285,32.399999999965075" stroke="#4dd2ff" stroke-linecap="round" stroke-linejoin="round" stroke-width="0.5"><title>2022-07-12 1.0km</title></polyline><polyline fill="none" points="48.16580110741779,80.39999999996508 44.22441618400626,86.15661914716475 43.38976996485144,87.07121636607917 42.64786221436225,88.20101072639227 42.323277573566884,88.84660640975926 33.37401533545926,101.11277324805269 32.72484605386853,102.13494085537968 32.400261413306,102.99571203097003 31.982938303612173,103.37229897547513 31.65835366304964,103.856481792056 31.00918438145891,104.44826018286403 29.15441500558518,107.19195126078557 28.180661083431914,108.48309503210476 26.696845582686365,110.95777836750494 25.954937832430005,112.03372399834916 25.120291613275185,113.70143535989337 23.49736840929836,116.71406178415054 23.49736840929836,117.35962233593455 23.03367606550455,118.05897870287299 22.894568362506106,118.6507410533959 22.338137549581006,119.1349097522907 22.059922143118456,119.45768863637932 20.807952814735472,121.98611634934787 19.834198892349377,123.59999999997672" stroke="#4dd2ff" stroke-linecap="round" stroke-linejoin="round" stroke-width="0.5"><title>2022-07-04 1.1km</title></polyline><polyline fill="none" points="88.06134269665927,80.39999999996508 89.5217289114371,81.50120455306023 90.83607650455087,82.17886816320242 92.44250134006143,83.19536253489787 93.46477169031277,83.53419371385826 95.36327376915142,84.55068641679827 98.64914275147021,86.92249785462627 101.5699151805602,88.19310832145857 102.73822415200993,89.12488808721537 106.53522830968723,91.15785847062944 108.57976900972426,92.34375554847065 111.20846419595182,93.69906440831255 111.79261868167669,94.12259797059232 111.93865730334073,94.37671800382668 111.86563799250871,95.05437104299199 111.28148350678384,95.81673004670301 109.74807798163965,96.66379478090676 108.7258076313883,97.51085864560446 106.68126693135127,99.54380837455392 104.4906876096502,101.57675309630577 99.01423930516466,106.99791454366641 97.62687240121886,108.18378886382561 96.31252480857074,109.62377681984799 95.5093123903498,110.30141734180506 91.78532754350454,113.94372561533237 89.5217289114371,116.06133931671502 88.93757442571223,116.82367891917238 89.08361304691061,117.58601781795733 90.32494132919237,119.02598937205039 95.14421583712101,121.82122110074852 96.96969860512763,123.09177784854546 97.40781446918845,123.17648156214273 98.64914275147021,123.00707412615884 100.54764483030885,122.32944403454894 100.83972207363695,122.4141478263773 102.22708897711709,123.59999999997672 102.66520484117791,123.51529632986058 102.957282084506,123.17648156214273" stroke="#4dd2ff" stroke-linecap="round" stroke-linejoin="round" stroke-width="0.5"><title>2022-06-28 1.0km</title></polyline><polyline fill="none" points="149.57543887058273,123.59999999997672 151.01709313876927,121.86728170869173 153.23106219386682,120.37355489941547 154.05486463289708,119.71631388756214 155.03313002944924,118.70057631708914 156.6807349077426,116.31059856375214 157.813463261351,113.44261229160475 158.48280274309218,112.42686376115307 160.43933353596367,108.84185476350831 161.31462362757884,107.64684685191605 163.1681791152805,105.31657435983652 164.40388277429156,103.94230671669357 165.7940493898932,102.5680358253885 169.34669740870595,99.28172269562492 170.9428146344144,97.48918043152662 172.1785182931926,95.93563933193218 172.5904195124749,95.5771292578429 174.28951204335317,93.4260641708388 174.95885152509436,92.23102457227651 176.29753048857674,90.43846056831535 177.224308232544,88.70564344403101 177.7391847569961,87.27158398670144 178.46001189108938,84.82172423013253 179.28381433011964,83.32790223852498 180.05612911679782,82.31210109172389 180.7769562508911,81.53531078173546 181.5492710378021,80.81827265128959 182.42456112918444,80.39999999996508 182.01265990990214,80.45975325431209 181.13736981828697,81.23654500156408 180.828443903476,81.41580448806053 180.46803033631295,81.77432329527801 179.23232667776756,83.4474081392982 178.76893780590035,83.8656785977073 178.5114995436743,84.34370161051629 178.46001189108938,84.88147702999413 178.20257362909615,85.83752099185949 177.43025884218514,87.80935669771861 176.70943170809187,89.24341482826276 176.4005057932809,90.02019483875483 175.01033917744644,91.87251221376937 173.72314786631614,92.29077661060728 172.28149359789677,93.1870564474957 169.5526480183471,94.68085310555762 167.0297530486714,95.69663264061091 164.76429634098895,97.07091977464734 162.7047902434133,97.9074407874723" stroke="#4dd2ff" stroke-linecap="round" stroke-linejoin="round" stroke-width="0.5"><title>2022-06-15 1.5km</title></polyline><polyline fill="none" points="16.18007796164602,171.60000000000582 16.86545957857743,170.2605339345173 17.550841195508838,169.25593149551423 18.705168129177764,168.16760939126834 19.85949506284669,166.82813204126433 20.617022112943232,166.07467409651144 21.158112863311544,165.697944601794 21.77134904684499,164.98634349435451 22.384585230378434,164.56775402708445 23.899639330571517,163.77243285431177 25.3064752810169,162.8096735679719 26.352584064705297,161.88877125209547 26.64116579806432,161.51203788653947 27.146183831617236,161.30274142170674 27.362620131578296,161.09344484948087 28.12014718190767,160.21439807192655 28.44480163208209,159.96324150133296 28.949819665402174,159.50278738653287 29.959855732275173,157.95398336290964 30.32058289926499,157.57724635873456 30.64523734920658,156.82377130517852 31.042037232546136,156.195874362631 31.258473532740027,155.6098363432102 31.76349156629294,154.8144976827316 32.08814601623453,154.01915746935993 32.37672774982639,153.01451498048846 32.62923676637001,152.38661216688342 33.278545666718856,151.38196565187536 33.494981966679916,150.75406032186584 34.10821815021336,149.74940978075028 34.46894531697035,149.3726651891193 34.97396335052326,148.74475676205475 35.98399941739626,147.8238226516405 38.400871434714645,146.14939166227123 38.833744034869596,145.56333919000463 39.33876206842251,144.684258900641 40.204507268732414,142.7167866169475 40.99810703564435,141.16791877240757 41.21454333560541,140.83302765330882 41.39490691898391,140.70744341262616 41.79170680232346,139.702768093528 42.5853065692354,138.5725053976348 42.982106452807784,137.86085690613254 45.11039673676714,135.474732302333 47.310832453891635,133.59093984676292 47.77977777086198,133.13045592149138 48.17657765420154,132.50252245704178 49.655559038044885,131.24665262398776 50.304867938160896,130.4094039175252 50.80988597148098,129.9070538674423 51.74777660518885,128.60931337057264 51.81992203858681,128.40000000002328 51.71170388860628,128.4418626827828 51.423122155247256,128.73490134134772" stroke="#4dd2ff" stroke-linecap="round" stroke-linejoin="round" stroke-width="0.5"><title>2022-06-13 1.5km</title></polyline><polyline fill="none" points="87.11104292864911,171.59999999997672 87.65950918686576,166.33752641628962 87.55978804919869,163.79301608214155 87.65950918686576,162.52075660979608 87.85895146266557,161.71113545109984 88.00853316974826,161.36415459867567 88.10825430741534,160.5545317795477 88.30769658321515,159.8027381208958 89.15532625513151,157.60518168011913 89.95309535833076,156.5064002481522 90.60128275421448,155.8702626512386 91.7480758400634,154.30883096164325 92.44612380536273,153.730521831254 93.24389290832914,153.3257050869288 94.04166201129556,152.74739494838286 94.98901282134466,151.76426635152893 95.58733964851126,151.41727937886026 96.1856664759107,150.83896728308173 97.63162297522649,149.7401726670796 98.97785833640955,148.4100500040804 99.72576687065884,147.94739790767198 100.3739542667754,147.71607171709184 100.82269938732497,147.0799242038047 102.06921361107379,145.8076270239544 104.06363636860624,144.47749508469133 105.26029002293944,143.20519203308504 106.2575014019385,142.51120734028518 107.45415505650453,141.29673207277665 107.7034579012543,140.83407413994428 109.69788065878674,138.40511376480572 111.04411602020264,136.14964119030628 111.3931400028523,134.9351522210054 111.69230341655202,134.35682322102366 112.04132739920169,133.43149558705045 112.78923593321815,130.88683676387882 112.8390965021681,130.30850361147895 112.78923593321815,129.5566696265596 112.88895707111806,128.39999999996508" stroke="#4dd2ff" stroke-linecap="round" stroke-linejoin="round" stroke-width="0.5"><title>2022-05-29 1.0km</title></polyline><polyline fill="none" points="166.5579200151842,128.40000000000873 166.4664577174699,128.61220279907866 165.77134425600525,129.7793143017043 165.33232522767503,130.6493385907379 164.5823343875818,131.83765853465593 163.1372300859075,140.6861833816074 166.57621247461066,146.16062069201143 167.03352396248374,146.69108172299457 167.76522234315053,147.77321800756908 168.0396092358278,148.28245665307622 169.3566663209349,150.34061673819087 170.08836470148526,151.52882354534813 170.12494962045457,151.65613101268536 170.10665716102812,152.0168350779859 170.1615345396567,152.27144933363888 170.3444591347361,152.75945911431336 170.61884602741338,154.18104626120476 170.80177062260918,154.71148672356503 170.82006308215205,155.1782732053398 170.78347816306632,155.79358104917628 170.5639686489012,156.93932181234413 170.23470437759534,157.97896997610223 169.7956853492651,158.82765848108102 169.44812861841638,159.37930414214497 169.11886434722692,159.73999474055017 168.69813777832314,160.27042094880017 167.98473185731564,160.94936451068497 166.79572198877577,161.86169141317077 164.28965503524523,163.91971639524854 163.42990943812765,164.68351427229936 162.89942811219953,165.25636082948768 162.47870154341217,165.78677289413463 162.0945598934777,166.35961639648303 161.94822021748405,166.63542936900922 161.67383332469035,167.44164979581547 161.4726162700681,168.31151568007772 161.43603135098238,168.62975838244893 161.43603135098238,169.4784031957388 161.3811539724702,170.34826051683922 161.17993691784795,171.55756827710138 161.253106755903,171.60000000000582 161.28969167498872,171.53635241244046" stroke="#4dd2ff" stroke-linecap="round" stroke-linejoin="round" stroke-width="0.5"><title>2022-05-29 2.6km</title></polyline><polyline fill="none" points="51.80595417774748,176.40000000002328 51.66421523911413,176.4822118456359 50.920085810823366,177.22211769779096 50.49486899469048,177.87981064114138 49.07747960742563,179.31851018985617 47.624655485269614,180.67499360322836 46.597048179479316,181.7026294945681 44.40009462926537,184.21005000572768 43.90400834369939,184.7033112097124 43.54966099676676,184.90883653209312 42.91183577256743,185.68983179540373 42.20314107905142,186.30640592781128 40.43140434473753,188.27943677414441 38.37618973327335,190.37577140095527 36.320975121692754,192.63651213567937 33.80510895932093,195.26717620322597 33.13184900023043,196.08925518175238 32.2459806331899,196.95243629367906 29.588375532068312,199.99410729345982 28.419029287644662,201.43272742483532 27.391421981621534,202.9535488038091 26.540988349472173,203.85781823826255 25.33620737027377,205.54304219296318 24.804686349933036,206.15958577109268 24.273165329708718,207.0638479696645 23.81251377891749,207.68038920746767 22.891210677102208,209.07787916762754 22.501428595744073,209.57110975446994 18.178390964400023,216.43517239991343 17.646869944175705,217.17500446730992 16.194045822136104,219.60000000000582" stroke="#4dd2ff" stroke-linecap="round" stroke-linejoin="round" stroke-width="0.5"><title>2022-05-25 1.5km</title></polyline><polyline fill="none" points="117.83444657735527,176.40000000002328 117.52002930187155,176.48105508144363 116.6466479805531,177.41318732188665 116.61171272781212,177.53476962589775 116.12261918804143,178.18320794796455 115.45884938375093,178.75059060633066 115.07456160255242,179.27744520205306 114.13130977575202,180.20957084177644 113.36273421312217,180.85800477175508 112.80377016763669,181.50643763702828 112.38454713346437,181.83065367041854 112.14000036357902,182.19539638975402 110.49804347986355,184.05963169419556 109.7993384229485,184.70805930235656 109.44998589449096,184.870166038163 108.89102184888907,185.6401721240254 108.19231679197401,186.2480706050119 106.3756836442044,188.35544476108043 106.09620162134524,188.5175499995239 105.32762605883181,189.32807519420749 104.69879150763154,189.8954418405774 103.7904749334557,190.9491205928498 103.19657563511282,191.51648491050582 102.3231943140272,192.57015933777438 102.04371229140088,192.73226284634438 101.4148777400842,193.5427793910203 100.85591369459871,194.0696142531233 100.29694964911323,194.67749975906918 99.9475971206557,195.0422306136752 99.17902155814227,195.97431904484984 98.30564023694023,196.78482893604087 97.39732366288081,197.91953998949612 96.4540718360804,198.93267210372142 95.23133798642084,200.35105269763153 94.49769767688122,201.24260360660264 94.28808615973685,201.68837830636767 93.519510597107,202.74202559687546 92.96054655162152,203.30937297357013 92.26184149470646,204.2414418948756 91.80768320779316,204.8087871177995 91.70287744922098,205.05193482106552 91.24871916230768,205.619278879778 91.1089781508781,205.70032796444139 90.93430188659113,205.94347511880915 90.37533784110565,206.8755378240894 89.99105005979072,207.3213061663555 89.92117955419235,207.56445232292754 89.67663278419059,207.8481226496515 89.04779823310673,208.82070508043398 88.66351045155898,209.18542287460878 88.31415792333428,209.91485745253158 88.0696111532161,210.2390501658665 87.85999963630456,210.60376665031072 86.91674780950416,212.02210533322068 85.76388446555939,213.96724724490196 85.37959668412805,214.4130075838475 85.06517940864433,215.06138536077924 84.43634485744406,216.03395003077458 84.01712182327174,216.56075489372597 82.61971170944162,218.91110649201437 82.27035918098409,219.47843064466724 82.16555342264473,219.5189537673432 82.23542392824311,219.47843064466724 82.30529443384148,219.60000000000582 82.34022968681529,219.55947688565357 82.44503544527106,219.27581496944185" stroke="#4dd2ff" stroke-linecap="round" stroke-linejoin="round" stroke-width="0.5"><title>2022-05-25 1.6km</title></polyline><polyline fill="none" points="175.40710280369967,198.56217579252552 172.50018691504374,196.31396898668027 170.2392523358576,194.8151613730588 167.4938317751512,193.31635129760252 162.56822429876775,189.85034357121913 157.9656074764207,187.22741005552234 155.8661682237871,185.5412345289369 153.1207476630807,184.3234391558217 150.8598130834289,183.76137920457404 149.56785046681762,183.01196539809462 149.32560747629032,182.9182886291528 149.0026168222539,183.2929956476437 148.11439252272248,184.79182218393544 146.3379439250566,187.4147626993945 144.39999999990687,191.16180750215426 144.6422429899685,191.81753876095172 145.53046728949994,192.5669453368173 147.06467289710417,193.1289998650318 149.1641121492721,194.34678348881425 150.6983177564107,195.93926731409738 151.58654205547646,196.68867050565314 154.41271028015763,198.1874750428251 159.33831775654107,201.37242651189445 163.86018691537902,203.7142955014133 165.1521495319903,204.6510414147633 166.44411214953288,205.7751352415653 167.57457943912596,206.24350726080593 169.1895327102393,207.55494763620663 170.56224299035966,207.74229610752081 175.7300934572704,210.64619249367388 178.9599999994971,212.7070165819605 181.1401869156398,213.0817113708472 181.9476635507308,212.80069029366132 182.75514018675312,212.33232163917273 183.23962616780773,211.67660511954455 183.4818691588007,211.77027893654304 183.6433644858189,211.58293129241792 184.2085981303826,210.64619249367388 185.66205607401207,209.24108249269193 186.14654205553234,207.8359703287715 187.51925233611837,206.0561584820971 187.59999999962747,205.7751352415653 187.59999999962747,205.58778636652278 186.8732710275799,205.213088501303 185.41981308348477,205.0257395109511 184.37009345786646,204.0889939822955 183.80485981237143,202.77754862676375 183.07813084078953,202.12182524229866 180.49420560710132,201.09140182938427 178.79850467247888,199.87362720503006 173.79214953212067,196.7823458611383" stroke="#4dd2ff" stroke-linecap="round" stroke-linejoin="round" stroke-width="0.5"><title>2022-05-23 1.3km</title></polyline><polyline fill="none" points="12.399999999906868,228.16639043335454 13.17837837827392,228.61789048393257 13.99999999976717,228.91889028597507 14.951351351104677,229.62122243642807 16.11891891877167,229.77172205160605 16.681081080809236,230.0225546406873 17.243243243079633,231.2265492764418 17.545945945661515,231.57771381980274 18.108108107931912,231.97904441770515 18.756756756454706,232.93220326685696 19.232432432239875,233.4338650724967 20.789189188973978,233.93552636317327 21.048648648429662,234.13619073529844 21.99999999976717,234.28668896027375 22.994594594463706,234.5876852713409 25.459459459176287,235.7415027465322 25.848648648476228,235.69133682607207 26.064864864572883,235.9421663772664 26.886486486298963,236.3936592451355 27.275675675366074,236.44382509353454 27.79459459427744,236.69465425869566 28.74594594561495,237.4973067220708 30.34594594570808,238.65111732881633 31.037837837822735,239.35343549516983 32.20540540502407,240.00558717470267 33.45945945917629,240.85839959653094 34.843243243172765,242.16269806952914 34.88648648629896,241.96203699245234 35.4054054049775,242.16269806952914 36.27027027006261,242.3131938231527 36.78918918897398,242.5138547560491 38.648648648522794,243.56732330218074 39.72972972947173,244.36996447990532 40.42162162135355,244.67095458184485 41.02702702698298,245.12243938734173 42.021621621446684,245.3732640988601 42.799999999580905,245.32309916685335 43.83783783763647,245.62408868194325 46.43243243219331,246.12573746178532 50.10810810793191,247.02870396804065 51.3189189187251,247.17919822366093 51.83783783763647,247.4300218799326 54.562162162037566,247.98183347078157 55.34054054040462,248.28282134860638 55.51351351314224,248.4834798310476 55.5999999998603,248.98512567635044 55.427027026889846,249.53693551171455 55.21081081079319,249.988415822736 55.25405405368656,250.69071769993752 55.21081081079319,251.0418682601885 53.82702702679671,253.14876632450614 53.04864864842966,254.75401589742978 52.054054053733125,256.05827729412704 51.708108107792214,257.0113891910005 50.67027026996948,258.51629892902565 50.15135135129094,259.8205502877827 49.67567567550577,260.573001411889 49.24324324307963,261.47594123211456 48.89729729713872,262.12806339841336 48.42162162158638,262.7300215489813 48.2054054052569,263.1814896755095 47.859459459315985,263.83360956664546" stroke="#4dd2ff" stroke-linecap="round" stroke-linejoin="round" stroke-width="0.5"><title>2022-05-21 1.5km</title></polyline><polyline fill="none" points="121.60000000009313,246.00011764740339 121.03713355062064,245.5103756603785 120.47426710091531,245.26550444055465 120.0169381108135,244.97982116037747 119.2078175896313,244.1635820857191 118.8912052117521,244.04114608009695 118.11726384377107,243.83708598674275 117.62475570046809,243.2657171683677 117.06188925087918,242.9800324512762 116.49902280140668,242.4902867443452 116.14723127044272,242.36785022329423 115.61954397405498,241.9597282143659 114.0716612378601,241.22510754255927 113.15700325730722,240.4904855134082 112.4534201953793,240.28642359792138 111.08143322484102,239.22529994827346 110.65928338759113,238.77636216703104 109.92052117269486,238.40904905984644 108.7596091205487,238.12336085300194 108.4429967426695,238.28661128203385 107.24690553743858,239.51098736329004 106.12117263849359,240.4496731387335 105.10097719868645,241.87810376222478 104.74918566772249,242.24541366458288 104.32703583058901,242.53109890958876 103.83452768728603,242.73515967314597 103.1309446253581,243.79627395560965 102.53289902280085,244.2860180538264 102.25146579812281,244.8573854060378 101.6885993485339,245.0206330701767 101.40716612385586,245.22469255607575 99.61302931595128,246.9795998117188 98.76872964180075,247.67339821814676 98.02996742667165,248.48963008765713 97.18566775252111,249.59154045360629 96.34136807825416,250.32614566772827 95.7433224755805,251.1831833688775 94.79348534205928,252.08103040792048 94.51205211738124,252.4075197376078 93.70293159608264,253.0196865083417 93.4214983714046,253.42779716514633 93.1752442996949,253.59104131063214 92.78827361564618,254.0807733448164 92.19022801297251,254.61131570133148 91.59218241041526,255.26428993750596 91.09967426711228,255.63158747417037 90.9237785016885,255.6723982905678 90.6775244299788,255.54996582868625 89.2351791531546,254.73374845224316 88.32052117271814,254.2848281810875 86.70228013023734,252.9788754195033 86.31530944630504,252.81563102276414 85.43583061895333,252.32589743033168 84.76742671011016,252.12184158875607 84.4859934853157,251.83616323463502 83.92312703595962,251.67291836882941 83.39543973945547,251.42805094423238 82.19934853422455,250.48939108659397 81.00325732899364,249.83640900914907 79.56091205216944,248.85693388213986 78.40000000002328,248.2447607026843 79.27947882737499,249.18342585931532 81.21433224761859,250.2445229331788 82.30488599347882,251.06074952470954 82.62149837147444,251.38723969220882 83.2195439740317,251.7137295914872 84.13420195446815,252.5299531671626 85.01368078181986,252.9788754195033 86.033876221627,253.38698611821746 86.63192182418425,253.7542853889754 86.91335504886229,253.7950963981566 87.93355048866943,253.0196865083417 88.63713355059735,252.12184158875607 90.11465798050631,250.8158817231306 91.09967426711228,249.75478617407498 91.31074918562081,249.26504881176515 91.5570032573305,248.93855690170312 92.22540716617368,248.40800697609666 93.10488599340897,247.7958331053378 94.6175895765191,246.4490472722391 95.77850162878167,245.14306877422496 97.50228013040032,243.5105896196328 99.1908794788178,242.20460147006088 100.35179153096396,240.9802336836874 101.02019543969072,240.327235989389 101.86449511407409,239.71504967685905 102.4977198697161,238.81717471347656 103.09576547227334,238.2049860758416 103.51791530952323,238.00092298723757 104.04560260591097,237.4703584664676 104.39739413699135,237.3071077023924 104.85472312709317,237.22548229512176 105.9452768729534,236.4500400906254 106.36742671020329,236.3276017094322 108.7596091205487,237.6336091636622 109.46319218247663,238.28661128203385 110.16677524428815,238.6947370613634 110.94071661238559,239.30692494480172" stroke="#4dd2ff" stroke-linecap="round" stroke-linejoin="round" stroke-width="0.5"><title>2022-05-18 2.7km</title></polyline></svg>