<?xml version="1.0" encoding="utf-8" ?>
<svg baseProfile="full" height="300mm" version="1.1" viewBox="0,0,200,300" width="200mm" xmlns="http://www.w3.org/2000/svg" xmlns:ev="http://www.w3.org/2001/xml-events" xmlns:xlink="http://www.w3.org/1999/xlink"><defs /><rect fill="#222222" height="300" width="200" x="0" y="0" /><text fill="#FFFFFF" style="font-size:12px; font-family:Arial; font-weight:bold;" x="10" y="20">Over 1km Runs</text><text fill="#FFFFFF" style="font-size:4px; font-family:Arial" x="10" y="280">ATHLETE</text><text fill="#FFFFFF" style="font-size:9px; font-family:Arial" x="10" y="290">bjing</text><text fill="#FFFFFF" style="font-size:4px; font-family:Arial" x="120" y="280">STATISTICS</text><text fill="#FFFFFF" style="font-size:3px; font-family:Arial" x="120" y="285">Number: 5</text><text fill="#FFFFFF" style="font-size:3px; font-family:Arial" x="120" y="290">Weekly: 2.5</text><text fill="#FFFFFF" style="font-size:3px; font-family:Arial" x="141" y="285">Total: 8.6 km</text><text fill="#FFFFFF" style="font-size:3px; font-family:Arial" x="141" y="290">Avg: 1.7 km</text><text fill="#FFFFFF" style="font-size:3px; font-family:Arial" x="167" y="285">Min: 1.3 km</text><text fill="#FFFFFF" style="font-size:3px; font-family:Arial" x="167" y="290">Max: 2.7 km</text><polyline fill="none" points="79.67659029643983,34.0 79.44035873189569,34.1370197426877 78.20014301803894,35.37019616289763 77.49144832463935,36.46635106852045 75.12913267919794,38.864183649769984 72.70775914238766,41.12498933868483 70.9950802992098,42.83771582425106 67.33349104877561,47.01675000949763 66.50668057287112,47.838852016138844 65.91610166127793,48.18139422009699 64.85305962106213,49.483052992320154 63.671901798574254,50.510676546313334 60.71900724130683,53.79906129022129 57.29364955541678,57.292952334857546 53.86829186952673,61.060853559407406 49.67518159886822,65.44529367203359 48.55308166728355,66.81542530289153 47.076634388649836,68.25406048941659 42.64729255344719,73.32351215573726 40.69838214619085,75.72121237468673 38.985703303013,78.25591467297636 37.56831391598098,79.76303039706545 35.56034561735578,82.57173698826227 34.67447725008242,83.5993096184684 33.78860888280906,85.10641328274505 33.02085629827343,86.13398201239761 31.48535112873651,88.4631319459877 30.835714326240122,89.28518292406807 23.630651607410982,100.72528733313084 22.744783240370452,101.95834077877225 20.323409703560174,106.0" stroke="#4dd2ff" stroke-linecap="round" stroke-linejoin="round" stroke-width="0.5"><title>2022-05-25 1.5km</title></polyline><polyline fill="none" points="179.72407762892544,34.0 179.20004883641377,34.135091802396346 177.74441330088302,35.688645536487456 177.68618787964806,35.89128270983929 176.87103198003024,36.97201324661728 175.76474897307344,37.9176510105608 175.12426933762617,38.795742003421765 173.5521829596255,40.34928473632317 172.27122368849814,41.430007952905726 171.33961694617756,42.51072939502774 170.64091188902967,43.05108945071697 170.23333393922076,43.658993982942775 167.4967391330283,46.76605282368837 166.33223070483655,47.8467655039276 165.74997649085708,48.11694339691894 164.81836974807084,49.40028687339509 163.6538613201119,50.413451008324046 160.6261394068133,53.925741268496495 160.1603360355366,54.195916665834375 158.87937676464207,55.54679199034581 157.8313191793859,56.49240306764841 156.31745822238736,58.24853432143573 155.32762605859898,59.194141517509706 153.87199052330106,60.95026556297671 153.4061871522572,61.22043807723094 152.35812956676818,62.57129898504354 151.4265228244476,63.44935708853882 150.4949160818942,64.46249959844863 149.9126618676819,65.07038435613504 148.63170259678736,66.62386507471092 147.17606706148945,67.97471489338204 145.66220610472374,69.86589998245472 144.09011972672306,71.55445350619266 142.05222997744568,73.91842116275802 140.82949612801895,75.40433934429893 140.48014359967783,76.14729717728915 139.19918432855047,77.90337599476334 138.26757758599706,78.84895495593082 137.1030691578053,80.40240315813571 136.34613867965527,81.34797852969496 136.1714624154847,81.75322470173705 135.41453193710186,82.69879813294392 135.1816302514635,82.83387994073564 134.89050314435735,83.23912519798614 133.95889640180394,84.79256304015871 133.31841676635668,85.53551027725916 133.20196592365392,85.94075387151679 132.79438797361217,86.41353774943855 131.74633038858883,88.03450846736087 131.1058507526759,88.64237145765219 130.52359653869644,89.85809575417079 130.1160185886547,90.39841694309143 129.76666606031358,91.00627775053727 128.1945796823129,93.3701755553484 126.27314077597111,96.61207874154206 125.63266114029102,97.35501263971673 125.10863234777935,98.4356422679266 124.06057476252317,100.056583384634 123.36186970537528,100.93459148955299 121.03285284899175,104.85184415336698 120.45059863501228,105.79738440777874 120.27592237107456,105.86492294556228 120.39237321354449,105.79738440777874 120.50882405624725,106.0 120.56704947794788,105.93246147612808 120.74172574211843,105.45969161571702" stroke="#4dd2ff" stroke-linecap="round" stroke-linejoin="round" stroke-width="0.5"><title>2022-05-25 1.6km</title></polyline><polyline fill="none" points="65.67850467283279,150.9369596542092 60.83364485902712,147.18994831119198 57.06542056007311,144.69193562178407 52.48971962556243,142.19391882931814 44.280373831279576,136.41723928542342 36.60934579418972,132.04568342585117 33.11028037359938,129.23539088165853 28.534579439088702,127.20573192636948 24.76635513966903,126.26896534103435 22.613084111828357,125.0199423301965 22.209345794282854,124.86381438199896 21.671028037089854,125.48832607944496 20.190654205158353,127.98637030657846 17.22990654176101,132.35793783236295 14.0,138.60301250359043 14.403738317079842,139.69589793495834 15.884112149477005,140.94490889483131 18.441121495328844,141.88166644179728 21.940186915453523,143.91130581474863 24.497196261305362,146.56544552359264 25.977570092771202,147.81445084279403 30.687850466929376,150.3124584046891 38.89719626121223,155.620710853138 46.43364485958591,159.5238258356694 48.586915887426585,161.08506902470253 50.74018691573292,162.95855873601977 52.624299065209925,163.7391787681263 55.3158878502436,165.92491272708867 57.60373831773177,166.23716017918196 66.21682242909446,171.07698748947587 71.59999999916181,174.5116943033645 75.23364485939965,175.13618561811745 76.57943925168365,174.6678171561798 77.92523364489898,173.88720273203216 78.73271027952433,172.79434186592698 79.13644859800115,172.9504648942966 79.40560747636482,172.63821882067714 80.34766355110332,171.07698748947587 82.77009345730767,168.7351374878781 83.57757009286433,166.39328388136346 85.8654205603525,163.42693080357276 86.0,162.95855873601977 86.0,162.6463106109295 84.78878504643217,162.02181416889653 82.36635513976216,161.70956585172098 80.61682242993265,160.14832330390345 79.67476635426283,157.96258104464505 78.46355140162632,156.86970873724204 74.15700934547931,155.15233638242353 71.3308411212638,153.12271200842224 62.98691588733345,147.97057643521111" stroke="#4dd2ff" stroke-linecap="round" stroke-linejoin="round" stroke-width="0.5"><title>2022-05-23 1.3km</title></polyline><polyline fill="none" points="114.0,120.27731738891453 115.29729729751125,121.02981747320155 116.66666666697711,121.53148380992934 118.25225225230679,122.70203739398858 120.19819819834083,122.95287008601008 121.13513513514772,123.37092440115521 122.07207207242027,125.377582127403 122.57657657656819,125.9628563663573 123.51351351337507,126.63174069614615 124.59459459455684,128.22033877810463 125.38738738745451,129.0564417874557 127.98198198201135,129.892543938593 128.41441441467032,130.22698455880163 130.0,130.477814933809 131.65765765774995,130.9794754522154 135.76576576568186,132.90250457753427 136.41441441467032,132.81889471010072 136.77477477490902,133.23694396211067 138.14414414437488,133.98943207523553 138.79279279289767,134.07304182252847 139.65765765774995,134.49109043116914 141.24324324307963,135.82884453679435 143.90990991005674,137.75186221470358 145.0630630631931,138.92239249194972 147.0090090087615,140.00931195780868 149.09909909917042,141.43066599423764 151.40540540544316,143.60449678252917 151.47747747739777,143.27006165403873 152.34234234225005,143.60449678252917 153.78378378367051,143.8553230385878 154.6486486485228,144.18975792673882 157.7477477476932,145.9455388369388 159.54954954935238,147.28327413316583 160.7027027029544,147.78492430306505 161.71171171218157,148.53739897889318 163.36936936993152,148.95544016477652 164.66666666651145,148.8718319447362 166.39639639668167,149.37348113651387 170.72072072094306,150.20956243627006 176.84684684686363,151.71450661338167 178.86486486485228,151.96533037273912 179.72972972970456,152.38336979987798 184.27027027029544,153.30305578460684 185.5675675678067,153.8047022476676 185.85585585609078,154.13913305173628 186.0,154.97520946053555 185.7117117117159,155.89489251945633 185.3513513514772,156.64735970454058 185.4234234234318,157.8178628332098 185.3513513514772,158.40311376698082 183.04504504520446,161.91461054084357 181.7477477476932,164.5900264956872 180.09009008994326,166.76379549020203 179.51351351384073,168.35231531830505 177.78378378413618,170.86049821501365 176.9189189192839,173.034250479599 176.12612612638623,174.28833568649134 175.40540540544316,175.7932353868382 174.82882882887498,176.88010566396406 174.03603603644297,177.88336924824398 173.6756756757386,178.63581612583948 173.09909909917042,179.72268261108547" stroke="#4dd2ff" stroke-linecap="round" stroke-linejoin="round" stroke-width="0.5"><title>2022-05-21 1.5km</title></polyline><polyline fill="none" points="86.0,230.00019607896684 85.06188925099559,229.18395943392534 84.12377850152552,228.77584073424805 83.36156351794489,228.29970193392364 82.01302931597456,226.9393034761306 81.48534201947041,226.73524346679915 80.19543973938562,226.39514331123792 79.37459283391945,225.442861947231 78.43648208468221,224.9667207520688 77.49837133544497,224.15047790721292 76.91205211728811,223.9464170387946 76.03257328993641,223.26621369062923 73.452768729534,222.04184590419754 71.92833876190707,220.81747585564153 70.75570032559335,220.4773726631538 68.46905537461862,218.70883324707393 67.76547231245786,217.9606036116602 66.5342019542586,217.34841509972466 64.59934853413142,216.87226808833657 64.07166123762727,217.14435213670367 62.07817589561455,219.18497893877793 60.2019543973729,220.74945523118367 58.5016286643222,223.1301729370025 57.91530944616534,223.74235610762844 57.21172638400458,224.21849818259943 56.39087947853841,224.55859945522388 55.21824104222469,226.3271232593106 54.221498371101916,227.14336342306342 53.75244299671613,228.0956423433381 52.81433224747889,228.36772178357933 52.34527687286027,228.7078209267347 49.355048859724775,231.63266635284526 47.94788273610175,232.7889970301767 46.71661237766966,234.14938347938005 45.309446254046634,235.98590075597167 43.902280130190775,237.210242779518 42.90553745930083,238.63863894809037 41.3224755700212,240.13505067984806 40.85342019540258,240.67919956264086 39.50488599319942,241.6994775138446 39.035830618813634,242.37966194184264 38.62540716608055,242.65173551766202 37.980456026038155,243.4679555746843 36.98371335468255,244.35219283553306 35.986970683792606,245.4404832291766 35.16612377832644,246.05264579021605 34.87296416936442,246.1206638175645 34.46254071663134,245.916609714448 32.058631921885535,244.55624742037617 30.534201954258606,243.80804696842097 27.837133550317958,241.6314590324764 27.192182410275564,241.35938503791112 25.726384364767,240.54316238383763 24.612377850105986,240.20306931453524 24.143322475254536,239.7269387243432 23.205211726250127,239.45486394799082 22.325732898898423,239.04675157374004 20.332247556885704,237.4823184776469 18.338762214872986,236.39401501521934 15.934853420127183,234.7615564701846 14.0,233.74126783781685 15.465798045508564,235.30570976552553 18.690553745953366,237.07420488860225 20.50814332230948,238.43458254117286 21.035830618813634,238.97873282036744 22.03257328993641,239.52288265246898 23.557003257330507,240.88325527857523 25.02280130283907,241.6314590324764 26.723127035889775,242.31164353032364 27.71986970677972,242.92380898160627 28.188925081398338,242.9918273302028 29.88925081421621,241.6994775138446 31.06188925076276,240.20306931453524 33.52442996716127,238.02646953851217 35.16612377832644,236.25797695678193 35.517915309173986,235.44174801954068 35.92833876190707,234.89759483613307 37.042345276800916,234.0133449601126 38.50814332230948,232.9930551755242 41.02931596082635,230.74841212038882 42.964169381186366,228.57178129034583 45.83713355031796,225.85098269936861 48.651465798029676,223.6743357834057 50.58631921815686,221.63372280611657 51.70032573258504,220.54539331560954 53.10749185667373,219.52508279471658 54.16286644944921,218.02862452244153 55.159609120339155,217.00831012637354 55.863192182267085,216.66820497869048 56.74267100961879,215.78393077745568 57.32899022800848,215.51184617064428 58.09120521158911,215.37580382515443 59.90879478817806,214.08340015099384 60.612377850105986,213.8793361823773 64.59934853413142,216.0560152727412 65.77198697044514,217.14435213670367 66.94462540699169,217.82456176890992 68.23452768707648,218.84487490798347" stroke="#4dd2ff" stroke-linecap="round" stroke-linejoin="round" stroke-width="0.5"><title>2022-05-18 2.7km</title></polyline></svg>