<?xml version="1.0" encoding="utf-8" ?>
<svg baseProfile="full" height="300mm" version="1.1" viewBox="0,0,200,300" width="200mm" xmlns="http://www.w3.org/2000/svg" xmlns:ev="http://www.w3.org/2001/xml-events" xmlns:xlink="http://www.w3.org/1999/xlink"><defs /><rect fill="#222222" height="300" width="200" x="0" y="0" /><text fill="#FFFFFF" style="font-size:12px; font-family:Arial; font-weight:bold;" x="10" y="20">Over 1km Runs</text><text fill="#FFFFFF" style="font-size:4px; font-family:Arial" x="10" y="280">ATHLETE</text><text fill="#FFFFFF" style="font-size:9px; font-family:Arial" x="10" y="290">bjing</text><text fill="#FFFFFF" style="font-size:4px; font-family:Arial" x="120" y="280">STATISTICS</text><text fill="#FFFFFF" style="font-size:3px; font-family:Arial" x="120" y="285">Number: 8</text><text fill="#FFFFFF" style="font-size:3px; font-family:Arial" x="120" y="290">Weekly: 2.7</text><text fill="#FFFFFF" style="font-size:3px; font-family:Arial" x="141" y="285">Total: 13.7 km</text><text fill="#FFFFFF" style="font-size:3px; font-family:Arial" x="141" y="290">Avg: 1.7 km</text><text fill="#FFFFFF" style="font-size:3px; font-family:Arial" x="167" y="285">Min: 1.0 km</text><text fill="#FFFFFF" style="font-size:3px; font-family:Arial" x="167" y="290">Max: 2.7 km</text><polyline fill="none" points="17.725097452057526,87.0 18.58182447310537,85.32566741813207 19.438551494386047,84.06991436937824 20.881460161181167,82.70951173908543 22.324368828209117,81.0351650515804 23.27127764117904,80.09334262064658 23.94764107884839,79.62243075223523 24.71418630820699,78.73292936795042 25.48073153756559,78.20969253385556 27.374549163039774,77.21554106788244 29.13309410121292,76.01209195997217 30.440730080707,74.8609640650975 30.801457247231156,74.39004735817434 31.432729789288715,74.1284267771407 31.703275164356455,73.8668060618511 32.65018397709355,72.76799758989364 33.05600203969516,72.45405187664437 33.68727458151989,71.87848423316609 34.94981966516934,69.94247920362977 35.40072862384841,69.47155794838909 35.80654668645002,68.52971413146588 36.30254654074088,67.74484295331058 36.57309191580862,67.01229542901274 37.204364457633346,66.0181221034145 37.61018252000213,65.02394683670718 37.970909687224776,63.76814372561057 38.28654595790431,62.983265208575176 39.09818208310753,61.7274570648442 39.3687274584081,60.94257540232502 40.1352726877667,59.68676222593058 40.586181645980105,59.215831486391835 41.217454188037664,58.430945952568436 42.47999927168712,57.27977831455064 45.50108929327689,55.18673957785359 46.04218004341237,54.45417398749851 46.6734525852371,53.355323625786696 47.75563408550806,50.89598327115527 48.74763379432261,48.959898465516744 49.01817916939035,48.54128456665785 49.24363364861347,48.3843042657827 49.739633502904326,47.12846011691727 50.73163321125321,45.715631747065345 51.2276330657769,44.82607113264385 53.88799592084251,41.84341537789442 56.63854056713171,39.488674808468204 57.22472221334465,38.913069901871495 57.720722067635506,38.12815307130222 59.5694487974979,36.558315779984696 60.38108492246829,35.51175489689922 61.01235746429302,34.88381733428105 62.18472075625323,33.26164171320852 62.274902547942474,33.0 62.139629860408604,33.05232835345669 61.77890269388445,33.41862667669193" stroke="#4dd2ff" stroke-linecap="round" stroke-linejoin="round" stroke-width="0.5"><title>2022-06-13 1.5km</title></polyline><polyline fill="none" points="143.8888036608696,87.0 144.57438648375683,80.42190802039113 144.4497350617312,77.24127010273514 144.57438648375683,75.65094576228876 144.8236893285066,74.6389193139039 145.01066646235995,74.20519324834459 145.13531788461842,73.19316472444916 145.38462072913535,72.25342265120707 146.44415781926364,69.50647710013436 147.44136919802986,68.13300031021936 148.25160344317555,67.33782831410645 149.6850948005449,65.38603870209772 150.55765475681983,64.66315228905296 151.55486613581888,64.1571313586901 152.55207751435228,63.43424368550768 153.73626602673903,62.20533293945482 154.4841745607555,61.771599223604426 155.23208309500478,61.04870910389582 157.03952871914953,59.67521583393682 158.72232292080298,58.01256250514416 159.65720858843997,57.43424738460453 160.4674428338185,57.1450896463939 161.02837423444726,56.34990525478497 162.58651701407507,54.75953377998667 165.07954546110705,53.09686885587871 166.57536252890714,51.506490041385405 167.82187675265595,50.63900917535648 169.3176938209217,49.12091509101447 169.6293223768007,48.54259267495945 172.12235082383268,45.50639220606536 173.80514502548613,42.68705148791196 174.24142500385642,41.16894027631497 174.61537927086465,40.446029026352335 175.0516592490021,39.28936948382761 175.9865449166391,36.108545954863075 176.04887062800117,35.3856295144069 175.9865449166391,34.445837033272255 176.1111963391304,33.0" stroke="#4dd2ff" stroke-linecap="round" stroke-linejoin="round" stroke-width="0.5"><title>2022-05-29 1.0km</title></polyline><polyline fill="none" points="40.69740001892205,93.0 40.58307214686647,93.26525349883013 39.71418031991925,94.72414287712309 39.16540653456468,95.81167323840782 38.227917984477244,97.29707316830172 36.42153760732617,108.35772922702017 40.72026559326332,115.20077586499974 41.29190495319199,115.86385215373593 42.20652792893816,117.216522509465 42.54951154475566,117.85307081631618 44.195832901168615,120.42577092270949 45.110455876914784,121.91102943167789 45.15618702559732,122.07016376583488 45.13332145125605,122.52104384748964 45.201918174512684,122.8393116670486 45.43057391839102,123.44932389288442 45.77355753432494,125.22630782649503 46.00221327820327,125.88935840444174 46.025078852660954,126.47284150664927 45.97934770374559,127.24197631145944 45.704960811068304,128.67415226541925 45.29338047199417,129.97371247012052 44.744606686523184,131.03457310135127 44.31016077299137,131.72413017766667 43.89858043403365,132.1749934256659 43.37267222290393,132.83802618598565 42.48091482149903,133.6867056383635 40.99465248605702,134.82711426645983 37.862068794085644,137.39964549406432 36.78738679760136,138.35439284035238 36.12428514030762,139.07045103685232 35.5983769291779,139.73346611767192 35.118199866847135,140.4495204956038 34.93527527176775,140.79428671125788 34.59229165583383,141.8020622447657 34.340770337497815,142.88939460008987 34.29503918881528,143.28719797806116 34.29503918881528,144.3480039946444 34.22644246555865,145.43532564604538 33.974921147339046,146.9469603463658 34.06638344482053,147.0 34.11211459361948,146.9204405155324" stroke="#4dd2ff" stroke-linecap="round" stroke-linejoin="round" stroke-width="0.5"><title>2022-05-29 2.6km</title></polyline><polyline fill="none" points="182.25744272209704,93.0 182.08026904892176,93.10276480700122 181.15010726358742,94.02764712218777 180.6185862433631,94.84976330137579 178.84684950928204,96.64813773729838 177.03081935667433,98.34374200398452 175.74631022429094,99.6282868681592 173.0001182865817,102.76256250712322 172.38001042953692,103.37913901210413 171.93707624590024,103.63604566507274 171.13979471568018,104.61228974422556 170.25392634887248,105.38300740972045 168.0392554309219,107.84929596766597 165.4702371666208,110.46971425114316 162.90121890208684,113.29564016955555 159.75638619903475,116.58397025399609 158.91481125028804,117.61156897715409 157.80747579154558,118.690545367077 154.4854694150854,122.4926341167884 153.02378660952672,124.2909092810005 151.73927747714333,126.19193600473227 150.67623543692753,127.32227279778454 149.1702592128422,129.4288027411676 148.5058579375036,130.1994822138222 147.841456662165,131.32980996204424 147.26564222364686,132.1004865092982 146.11401334637776,133.84734895950533 145.6267857446801,134.4638871930656 140.2229887053836,143.04396549984813 139.55858743027784,143.96875558409374 137.74255727767013,147.0" stroke="#4dd2ff" stroke-linecap="round" stroke-linejoin="round" stroke-width="0.5"><title>2022-05-25 1.5km</title></polyline><polyline fill="none" points="62.29305822192691,153.0 61.90003662742674,153.1013188517536 60.808309975778684,154.26648415232194 60.76464090985246,154.4184620323649 60.15327398525551,155.22900993490475 59.323561729863286,155.9382382578915 58.84320200327784,156.59680650255177 57.66413721977733,157.76196355221327 56.703417766606435,158.57250596466474 56.004712709691375,159.38304704625625 55.48068391694687,159.78831708800863 55.17500045453198,160.24424548714887 53.12255434994586,162.57453961772262 52.24917302886024,163.38507412790204 51.81248236820102,163.58770754767465 51.11377731128596,164.55021515500266 50.24039599020034,165.31008825622848 47.969604555284604,167.94430595132872 47.62025202671066,168.14693749934668 46.659532573539764,169.1600939927157 45.873489384772256,169.8693023006781 44.73809366696514,171.1864007410186 43.99571954412386,171.89560613810318 42.90399289270863,173.21269917220343 42.554640364367515,173.4153285578941 41.768597175134346,174.42847423875355 41.06989211845212,175.087017816375 40.37118706153706,175.84687469882192 39.93449640087783,176.30278826705762 38.97377694770694,177.4678988060332 37.88205029629171,178.48103617000743 36.746654578717425,179.8994249868265 35.56758979521692,181.16584012960084 34.039172483142465,182.9388158720103 33.122122096130624,184.05325450820965 32.86010769987479,184.6104728829232 31.899388246471062,185.9275319960725 31.200683189556003,186.63671621694812 30.327301868470386,187.80180236857268 29.75960400979966,188.51098389722756 29.628596811788157,188.8149185263028 29.0608989528846,189.52409859967884 28.886222688714042,189.62540995550808 28.66787735838443,189.9293438984605 27.96917230146937,191.09442228008993 27.488812574883923,191.65163270788617 27.401474442798644,191.95556540362304 27.095790980383754,192.3101533120498 26.309747791616246,193.5258813505061 25.829388064565137,193.98177859323914 25.392697404138744,194.8935718156281 25.087013941723853,195.29881270730402 24.824999545468017,195.7547083128593 23.64593476196751,197.5276316664822 22.204855581978336,199.95905905609834 21.724495855392888,200.516259479773 21.33147426089272,201.32673170094495 20.54543107189238,202.5424375384464 20.02140227914788,203.20094361712108 18.274639636976644,206.13888311499613 17.83794897631742,206.8480383057904 17.706941778305918,206.89869220912806 17.794279910391197,206.8480383057904 17.881618042476475,207.0 17.92528710863553,206.9493461070524 18.056294306879863,206.5947687117441" stroke="#4dd2ff" stroke-linecap="round" stroke-linejoin="round" stroke-width="0.5"><title>2022-05-25 1.6km</title></polyline><polyline fill="none" points="171.75887850485742,180.702719740686 168.12523364415392,177.8924612334231 165.29906542040408,176.01895171636716 161.86728971917182,174.1454391219886 155.7102803736925,169.81292946403846 149.9570093457587,166.53426256938837 147.33271028008312,164.426543161273 143.90093457931653,162.904298944748 141.07476635463536,162.20172400574666 139.45981308398768,161.26495674764737 139.1570093454793,161.14786078652833 138.7532710279338,161.6162445595255 137.64299065386876,163.48977772996295 135.42242990620434,166.7684533742722 133.0,171.45225937769283 133.3028037380427,172.27192345121875 134.41308411210775,173.20868167106528 136.33084112172946,173.91124983131886 138.95514018647373,175.43347936100326 140.87289719609544,177.42408414266538 141.98317756969482,178.36083813209552 145.51588785042986,180.23434380348772 151.67289719590917,184.2155331398826 157.32523364480585,187.14286937681027 158.94018691545352,188.3138017684687 160.55514018703252,189.71891905204393 161.96822429914027,190.3043840760365 163.9869158877991,191.9436845452292 165.70280373841524,192.17787013435736 172.16261682193726,195.8077406170778 176.1999999997206,198.38377072755247 178.92523364489898,198.8521392135881 179.93457943899557,198.50086286710575 180.94392523355782,197.91540204896592 181.5495327101089,197.09575639944524 181.85233644861728,197.21284867066424 182.0542056071572,196.97866411553696 182.76074766321108,195.8077406170778 184.57757009286433,194.05135311593767 185.18317756988108,192.2949629110517 186.89906542003155,190.07019810262136 187.0,189.71891905204393 187.0,189.48473295825534 186.09158878494054,189.0163606266724 184.27476635482162,188.78217438876163 182.96261682221666,187.6112424778985 182.25607476569712,185.9719357835129 181.34766355110332,185.15228155290242 178.11775700887665,183.86425228673033 175.99813084071502,182.34203400625847 169.74018691526726,178.47793232637923" stroke="#4dd2ff" stroke-linecap="round" stroke-linejoin="round" stroke-width="0.5"><title>2022-05-23 1.3km</title></polyline><polyline fill="none" points="13.0,217.7079880417441 13.972972973017022,218.27236310497392 15.0,218.6486128575052 16.189189188880846,219.5265280455351 17.648648648522794,219.71465256455122 18.351351351244375,220.02819330088096 19.054054053965956,221.5331865955959 19.43243243219331,221.97214227478253 20.13513513491489,222.47380552213872 20.945945945568383,223.66525408357847 21.54054054035805,224.29233134066453 23.486486486392096,224.91940795397386 23.810810810886323,225.17023841914488 24.99999999976717,225.3583612003713 26.243243243079633,225.73460658919066 29.324324324261397,227.1768784331507 29.810810810653493,227.1141710326192 30.081081080948934,227.42770797159756 31.108108107931912,227.9920740564703 31.594594594324008,228.05478136695456 32.24324324307963,228.3683178233914 33.43243243219331,229.37163340259576 35.43243243219331,230.81389666104224 36.29729729727842,231.6917943690205 37.756756756454706,232.50698396837106 39.3243243242614,233.5729994957219 41.054054053965956,235.20337258692598 41.10810810793191,234.95254624058725 41.756756756454706,235.20337258692598 42.83783783763647,235.3914922789554 43.486486486392096,235.64231844508322 45.81081081065349,236.95915412774775 47.16216216189787,237.96245559991803 48.02702702675015,238.3386932273279 48.783783783903345,238.90304923418444 50.02702702698298,239.2165801235824 50.99999999976717,239.1538739585667 52.29729729727842,239.5301108524436 55.54054054059088,240.1571718272753 60.13513513491489,241.2858799600508 61.648648648522794,241.473997779598 62.29729729727842,241.78752734995214 65.70270270272158,242.4772918384988 66.6756756757386,242.85352668579435 66.89189189160243,243.1043497888022 67.0,243.73140709544532 66.78378378367051,244.42116938967956 66.5135135136079,244.9855197784491 66.56756756734103,245.8633971249219 66.5135135136079,246.30233532527927 64.78378378367051,248.93595790566178 63.81081081065349,250.94251987180905 62.56756756734103,252.57284661766607 62.13513513491489,253.764236488787 60.83783783763647,255.6453736613039 60.18918918911368,257.2756878597429 59.59459459455684,258.21625176491216 59.054054053965956,259.34492654015776 58.621621621539816,260.1600792480167 58.02702702698298,260.9125269362121 57.75675675668754,261.47686209442327 57.3243243242614,262.2920119583141" stroke="#4dd2ff" stroke-linecap="round" stroke-linejoin="round" stroke-width="0.5"><title>2022-05-21 1.5km</title></polyline><polyline fill="none" points="187.0,240.00014705926878 186.2964169383049,239.3879695754731 185.59283387614414,239.08188055071514 185.02117263851687,238.7247764504864 184.00977198709734,237.70447760715615 183.614006514661,237.55143260009936 182.64657980483025,237.29635748342844 182.0309446256142,236.58214646045235 181.32736156368628,236.2250405640807 180.62377850175835,235.61285843042424 180.18403908819892,235.45981277912506 179.52442996762693,234.94966026797192 177.58957654726692,234.03138442820637 176.44625407177955,233.1131068917748 175.56677524442784,232.8580294973799 173.85179153108038,231.53162493533455 173.32410423457623,230.97045270877425 172.40065146586858,230.51131132480805 170.94951140065677,230.15420106626698 170.55374592845328,230.3582641025423 169.05863192188554,231.88873420411255 167.6514657982625,233.0620914234314 166.37622149847448,234.84762970279553 165.9364820846822,235.30676708073588 165.40879478817806,235.66387363697868 164.79315960919484,235.91894959143247 163.91368078184314,237.24534244451206 163.16612377855927,237.85752256729756 162.81433224771172,238.57173175754724 162.1107491857838,238.7757913377427 161.75895765493624,239.0308656950947 159.5162866448518,241.2244997646485 158.46091205230914,242.09174777267617 157.53745928336866,243.11203760956414 156.48208469059318,244.48942556700786 155.4267100978177,245.40768208468216 154.67915309453383,246.47897921109688 153.49185667769052,247.6012880099006 153.14006514684297,248.00939967200975 152.1286644951906,248.77460813542712 151.77687296434306,249.28474645642564 151.46905537461862,249.48880163830472 150.98534201970324,250.10096668102778 150.23778501618654,250.7641446266789 149.49022801290266,251.580362421897 148.87459283391945,252.0394843427057 148.65472312713973,252.09049786318792 148.34690553764813,251.93745728585054 146.54397394158877,250.91718556534033 145.40065146586858,250.35603522634483 143.37785016279668,248.72359427440097 142.8941368078813,248.51953877846245 141.79478827374987,247.90737178790732 140.9592833877541,247.6523019859451 140.60749185667373,247.29520404330106 139.90390879497863,247.09114796103677 139.24429967440665,246.78506368031958 137.7491856678389,245.61173885824974 136.25407166127115,244.7955112614436 134.4511400652118,243.57116735266754 133.0,242.80595087836264 134.09934853413142,243.97928232417325 136.51791530963965,245.30565366646624 137.88110749190673,246.3259369058942 138.27687296434306,246.73404961527558 139.02442996762693,247.14216198938084 140.1677524431143,248.16244145896053 141.26710097724572,248.72359427440097 142.54234527703375,249.23373264778638 143.28990228031762,249.69285673621926 143.64169381116517,249.7438704976812 144.9169381109532,248.77460813542712 145.7964169383049,247.6523019859451 147.6433224757202,246.0198521539278 148.87459283391945,244.69348271758645 149.1384364820551,244.08131101471372 149.44625407177955,243.67319612714346 150.2817589577753,243.0100087201281 151.38110749190673,242.24479138167226 153.27198697067797,240.56130909029162 154.7231270361226,238.92883596778847 156.8778501630295,236.88823702457012 158.98859934858046,235.25575183756882 160.43973941379227,233.72529210461653 161.2752442995552,232.90904498673626 162.3306188925635,232.14381209609564 163.12214983720332,231.0214683918457 163.8697068404872,230.25623259480926 164.39739413699135,230.00115373404697 165.0570032573305,229.33794808309176 165.4967426713556,229.1338846280123 166.06840390898287,229.03185286890948 167.43159609124996,228.06255011327448 167.9592833877541,227.90950213681208 170.94951140065677,229.542011454585 171.82899022800848,230.3582641025423 172.70846905536018,230.86842132671154 173.67589576542377,231.6336561810167" stroke="#4dd2ff" stroke-linecap="round" stroke-linejoin="round" stroke-width="0.5"><title>2022-05-18 2.7km</title></polyline></svg>