<?xml version="1.0" encoding="utf-8" ?>
<svg baseProfile="full" height="300mm" version="1.1" viewBox="0,0,200,300" width="200mm" xmlns="http://www.w3.org/2000/svg" xmlns:ev="http://www.w3.org/2001/xml-events" xmlns:xlink="http://www.w3.org/1999/xlink"><defs /><rect fill="#222222" height="300" width="200" x="0" y="0" /><text fill="#FFFFFF" style="font-size:12px; font-family:Arial; font-weight:bold;" x="10" y="20">Over 1km Runs</text><text fill="#FFFFFF" style="font-size:4px; font-family:Arial" x="10" y="280">ATHLETE</text><text fill="#FFFFFF" style="font-size:9px; font-family:Arial" x="10" y="290">bjing</text><text fill="#FFFFFF" style="font-size:4px; font-family:Arial" x="120" y="280">STATISTICS</text><text fill="#FFFFFF" style="font-size:3px; font-family:Arial" x="120" y="285">Number: 13</text><text fill="#FFFFFF" style="font-size:3px; font-family:Arial" x="120" y="290">Weekly: 1.9</text><text fill="#FFFFFF" style="font-size:3px; font-family:Arial" x="141" y="285">Total: 20.8 km</text><text fill="#FFFFFF" style="font-size:3px; font-family:Arial" x="141" y="290">Avg: 1.6 km</text><text fill="#FFFFFF" style="font-size:3px; font-family:Arial" x="167" y="285">Min: 1.0 km</text><text fill="#FFFFFF" style="font-size:3px; font-family:Arial" x="167" y="290">Max: 2.7 km</text><polyline fill="none" points="20.507895466173068,38.21419341416913 21.038950011017732,38.560731898091035 21.76915001042653,39.215303716628114 22.00148637383245,39.369320449157385 23.229550009127706,39.63884957876871 23.694222736055963,40.02389085679897 24.59037728072144,40.485939868784044 25.12143182568252,40.60145203291904 25.685677279834636,40.60145203291904 26.382686370168813,40.0623949628789 28.208186368457973,37.40560237347381 28.70605000446085,36.481496192951454 28.805622731684707,36.21196479490027 29.602204549126327,34.864304899732815 29.668586367275566,34.55626767259673 29.867731821723282,34.01720191637287 30.199640912236646,33.63215447336552 30.4651681848336,33.4011258178798 30.631122730206698,32.74654385479516 31.195368184242398,32.438504888588795 31.49408636568114,32.40000000002328 31.759613638278097,32.51551465387456 32.02514091075864,32.708038997865515 32.589386364794336,33.01607774262084 32.82172272820026,33.24710663524456 33.61830454564188,33.59364970726892 34.71360454475507,34.36374427707051 35.21146818064153,34.97981879473082 35.57656818057876,35.17234187404392 37.269304542569444,35.980937728105346 37.733977269381285,36.13495578840957 37.966313632787205,36.13495578840957 38.53055908693932,36.404487241845345 38.63013181404676,36.59700959007023 38.82927726849448,36.789531839312986 40.55520453979261,37.752141604345525 41.15264090290293,38.21419341416913 41.91603181138635,38.175689118448645 42.081986356759444,38.25269770587329 42.71261362882797,38.79175737622427 43.3100499920547,39.13829532667296 43.841104536899365,39.60034542926587 44.4385409001261,39.946882632910274 44.93640453601256,40.37042766917148 45.201931808609515,40.52444392739562 45.43426817189902,40.83247625429067 47.22657726122998,41.94909131922759 47.42572271567769,42.103106929484056 47.49210453382693,42.2571224764979 47.45891362475231,42.719168738112785 47.22657726122998,42.7961763930507 47.19338635215536,42.87318403221434 47.12700453400612,43.18121443071868 46.6955227162689,43.489244576281635 46.09808635315858,44.952384314266965 45.73298635345418,45.4529308094352 45.40107726294082,46.14599408491631 45.201931808609515,46.91606288935873 45.23512271756772,47.532116795075126 45.10235908138566,48.22517622978194 44.93640453601256,48.379189263650915 44.173013627529144,48.84122798588942 43.17728635563981,49.26476298144553 42.87856817408465,49.57278813244193 42.67942271963693,50.034825384878786 42.61304090160411,50.41985599391046 42.38070453819819,50.997401166532654 42.38070453819819,51.574945450236555 42.14836817479227,52.152488844818436 41.88284090231173,52.537517280783504 41.51774090260733,52.76853415253572 41.01987726660445,53.3075729671109 40.58839544886723,54.00062173375045 40.057340903789736,55.078695048287045 39.85819544934202,55.73323804954998 39.625859086052515,56.349277478148 39.592668176977895,56.65729681318044 39.65904999501072,57.23483238500194 39.625859086052515,57.42734404458315 39.75862272223458,57.81236706767231 39.327140904497355,59.4679615648638 39.260759086348116,59.54496578243561 38.43098635971546,60.315007087541744 37.80035908764694,60.73852913180599 37.30249545152765,60.96954095453839 36.605486361309886,61.008042911067605 35.60975908942055,60.700027147482615 35.24465908983257,60.700027147482615 35.04551363538485,60.854035060998285 34.71360454475507,61.393062260031 34.58084090857301,61.85508495714748 34.58084090857301,62.933135704894084 34.48126818134915,63.39515650575049 34.547649999381974,63.934180054435274 34.44807727227453,64.55020601910655 33.65149545483291,65.85925783615676 32.82172272820026,67.93833074774011 32.25747727416456,68.47734777050209 31.859186365501955,68.55435013907845 31.56046818383038,68.40034538591863 31.3945136385737,67.97683198942104 31.294940911466256,67.93833074774011 31.162177275051363,68.05383446067572 30.963031820836477,68.47734777050209 30.266022730385885,68.70835482879193 30.79707727546338,68.82385830473504 30.56474091182463,69.24737074546283 30.332404548535123,69.47837732976768 29.668586367275566,69.55537949295831 29.303486367687583,69.86338798774523 28.540095459204167,71.28792398740188 27.444795459974557,73.44396818731911 26.913740915129893,73.90597604721552 26.84735909686424,73.90597604721552 26.880550005938858,74.21398097102065 26.581831824500114,74.86849059475935 26.415877279127017,75.0224926933297 25.586104552610777,75.48449860981782 25.22100455290638,75.52299907713314 24.65675909887068,75.25349572268897 24.291659099282697,75.33049670088803 24.19208637205884,75.52299907713314 23.661031826981343,75.60000000000582" stroke="#4dd2ff" stroke-linecap="round" stroke-linejoin="round" stroke-width="0.5"><title>2022-08-14 2.4km</title></polyline><polyline fill="none" points="79.99711587582715,75.59999999997672 81.84020004980266,73.65072062343825 83.79170094034635,71.07263192627579 85.9058269043453,68.87181592162233 87.47786928829737,66.67099201411474 89.8630370425526,64.281517109368 91.05562092014588,62.70948906504782 93.71183046512306,60.005591396417 94.57916419417597,59.3138947278494 95.66333135543391,57.804735649959184 96.58487344230525,56.92439113842556 98.04849910968915,55.28946226212429 99.67474985169247,53.968939601036254 103.08987640962005,50.13311954360688 104.87875222531147,48.49817254935624 107.53496177052148,45.29114846844459 110.73325489577837,42.14699092000956 112.30529727973044,40.38625564641552 112.95579757657833,39.75742039416218 114.52783996029757,37.87091076566139 115.88304891181178,36.67611833033152 116.91300771478564,35.60709154518554 118.48505009850487,34.09787408541888 120.00288412417285,32.399999999965075" stroke="#4dd2ff" stroke-linecap="round" stroke-linejoin="round" stroke-width="0.5"><title>2022-07-12 1.0km</title></polyline><polyline fill="none" points="180.1658011074178,32.399999999965075 176.22441618400626,38.15661914716475 175.38976996485144,39.07121636607917 174.64786221436225,40.20101072639227 174.32327757356688,40.84660640975926 165.37401533545926,53.11277324805269 164.72484605386853,54.13494085537968 164.400261413306,54.995712030970026 163.98293830361217,55.37229897547513 163.65835366304964,55.856481792056 163.0091843814589,56.44826018286403 161.15441500558518,59.19195126078557 160.18066108343191,60.48309503210476 158.69684558268636,62.95777836750494 157.95493783243,64.03372399834916 157.12029161327519,65.70143535989337 155.49736840929836,68.71406178415054 155.49736840929836,69.35962233593455 155.03367606550455,70.05897870287299 154.8945683625061,70.6507410533959 154.338137549581,71.1349097522907 154.05992214311846,71.45768863637932 152.80795281473547,73.98611634934787 151.83419889234938,75.59999999997672" stroke="#4dd2ff" stroke-linecap="round" stroke-linejoin="round" stroke-width="0.5"><title>2022-07-04 1.1km</title></polyline><polyline fill="none" points="22.061342696659267,80.39999999996508 23.521728911437094,81.50120455306023 24.836076504550874,82.17886816320242 26.442501340061426,83.19536253489787 27.464771690312773,83.53419371385826 29.36327376915142,84.55068641679827 32.64914275147021,86.92249785462627 35.5699151805602,88.19310832145857 36.738224152009934,89.12488808721537 40.53522830968723,91.15785847062944 42.57976900972426,92.34375554847065 45.20846419595182,93.69906440831255 45.792618681676686,94.12259797059232 45.93865730334073,94.37671800382668 45.86563799250871,95.05437104299199 45.28148350678384,95.81673004670301 43.74807798163965,96.66379478090676 42.72580763138831,97.51085864560446 40.681266931351274,99.54380837455392 38.490687609650195,101.57675309630577 33.014239305164665,106.99791454366641 31.62687240121886,108.18378886382561 30.312524808570743,109.62377681984799 29.509312390349805,110.30141734180506 25.785327543504536,113.94372561533237 23.521728911437094,116.06133931671502 22.937574425712228,116.82367891917238 23.083613046910614,117.58601781795733 24.32494132919237,119.02598937205039 29.14421583712101,121.82122110074852 30.969698605127633,123.09177784854546 31.40781446918845,123.17648156214273 32.64914275147021,123.00707412615884 34.547644830308855,122.32944403454894 34.83972207363695,122.4141478263773 36.22708897711709,123.59999999997672 36.66520484117791,123.51529632986058 36.957282084506005,123.17648156214273" stroke="#4dd2ff" stroke-linecap="round" stroke-linejoin="round" stroke-width="0.5"><title>2022-06-28 1.0km</title></polyline><polyline fill="none" points="83.57543887058273,123.59999999997672 85.01709313876927,121.86728170869173 87.23106219386682,120.37355489941547 88.05486463289708,119.71631388756214 89.03313002944924,118.70057631708914 90.68073490774259,116.31059856375214 91.81346326135099,113.44261229160475 92.48280274309218,112.42686376115307 94.43933353596367,108.84185476350831 95.31462362757884,107.64684685191605 97.16817911528051,105.31657435983652 98.40388277429156,103.94230671669357 99.79404938989319,102.5680358253885 103.34669740870595,99.28172269562492 104.94281463441439,97.48918043152662 106.17851829319261,95.93563933193218 106.59041951247491,95.5771292578429 108.28951204335317,93.4260641708388 108.95885152509436,92.23102457227651 110.29753048857674,90.43846056831535 111.22430823254399,88.70564344403101 111.73918475699611,87.27158398670144 112.46001189108938,84.82172423013253 113.28381433011964,83.32790223852498 114.05612911679782,82.31210109172389 114.77695625089109,81.53531078173546 115.5492710378021,80.81827265128959 116.42456112918444,80.39999999996508 116.01265990990214,80.45975325431209 115.13736981828697,81.23654500156408 114.828443903476,81.41580448806053 114.46803033631295,81.77432329527801 113.23232667776756,83.4474081392982 112.76893780590035,83.8656785977073 112.51149954367429,84.34370161051629 112.46001189108938,84.88147702999413 112.20257362909615,85.83752099185949 111.43025884218514,87.80935669771861 110.70943170809187,89.24341482826276 110.4005057932809,90.02019483875483 109.01033917744644,91.87251221376937 107.72314786631614,92.29077661060728 106.28149359789677,93.1870564474957 103.5526480183471,94.68085310555762 101.02975304867141,95.69663264061091 98.76429634098895,97.07091977464734 96.7047902434133,97.9074407874723" stroke="#4dd2ff" stroke-linecap="round" stroke-linejoin="round" stroke-width="0.5"><title>2022-06-15 1.5km</title></polyline><polyline fill="none" points="148.18007796164602,123.60000000000582 148.86545957857743,122.2605339345173 149.55084119550884,121.25593149551423 150.70516812917776,120.16760939126834 151.8594950628467,118.82813204126433 152.61702211294323,118.07467409651144 153.15811286331154,117.697944601794 153.771349046845,116.98634349435451 154.38458523037843,116.56775402708445 155.89963933057152,115.77243285431177 157.3064752810169,114.80967356797191 158.3525840647053,113.88877125209547 158.64116579806432,113.51203788653947 159.14618383161724,113.30274142170674 159.3626201315783,113.09344484948087 160.12014718190767,112.21439807192655 160.4448016320821,111.96324150133296 160.94981966540217,111.50278738653287 161.95985573227517,109.95398336290964 162.320582899265,109.57724635873456 162.64523734920658,108.82377130517852 163.04203723254614,108.195874362631 163.25847353274003,107.60983634321019 163.76349156629294,106.8144976827316 164.08814601623453,106.01915746935993 164.3767277498264,105.01451498048846 164.62923676637,104.38661216688342 165.27854566671886,103.38196565187536 165.49498196667992,102.75406032186584 166.10821815021336,101.74940978075028 166.46894531697035,101.37266518911929 166.97396335052326,100.74475676205475 167.98399941739626,99.82382265164051 170.40087143471465,98.14939166227123 170.8337440348696,97.56333919000463 171.3387620684225,96.684258900641 172.2045072687324,94.7167866169475 172.99810703564435,93.16791877240757 173.2145433356054,92.83302765330882 173.3949069189839,92.70744341262616 173.79170680232346,91.702768093528 174.5853065692354,90.57250539763481 174.98210645280778,89.86085690613254 177.11039673676714,87.474732302333 179.31083245389163,85.59093984676292 179.77977777086198,85.13045592149138 180.17657765420154,84.50252245704178 181.65555903804488,83.24665262398776 182.3048679381609,82.4094039175252 182.80988597148098,81.9070538674423 183.74777660518885,80.60931337057264 183.8199220385868,80.40000000002328 183.71170388860628,80.44186268278281 183.42312215524726,80.73490134134772" stroke="#4dd2ff" stroke-linecap="round" stroke-linejoin="round" stroke-width="0.5"><title>2022-06-13 1.5km</title></polyline><polyline fill="none" points="21.111042928649113,171.59999999997672 21.659509186865762,166.33752641628962 21.559788049198687,163.79301608214155 21.659509186865762,162.52075660979608 21.858951462665573,161.71113545109984 22.00853316974826,161.36415459867567 22.108254307415336,160.5545317795477 22.307696583215147,159.8027381208958 23.155326255131513,157.60518168011913 23.953095358330756,156.5064002481522 24.60128275421448,155.8702626512386 25.748075840063393,154.30883096164325 26.44612380536273,153.730521831254 27.243892908329144,153.3257050869288 28.041662011295557,152.74739494838286 28.98901282134466,151.76426635152893 29.58733964851126,151.41727937886026 30.185666475910693,150.83896728308173 31.63162297522649,149.7401726670796 32.977858336409554,148.4100500040804 33.725766870658845,147.94739790767198 34.3739542667754,147.71607171709184 34.822699387324974,147.0799242038047 36.06921361107379,145.8076270239544 38.06363636860624,144.47749508469133 39.260290022939444,143.20519203308504 40.2575014019385,142.51120734028518 41.45415505650453,141.29673207277665 41.703457901254296,140.83407413994428 43.697880658786744,138.40511376480572 45.04411602020264,136.14964119030628 45.393140002852306,134.9351522210054 45.69230341655202,134.35682322102366 46.04132739920169,133.43149558705045 46.78923593321815,130.88683676387882 46.839096502168104,130.30850361147895 46.78923593321815,129.5566696265596 46.88895707111806,128.39999999996508" stroke="#4dd2ff" stroke-linecap="round" stroke-linejoin="round" stroke-width="0.5"><title>2022-05-29 1.0km</title></polyline><polyline fill="none" points="100.55792001518421,128.40000000000873 100.4664577174699,128.61220279907866 99.77134425600525,129.7793143017043 99.33232522767503,130.6493385907379 98.5823343875818,131.83765853465593 97.1372300859075,140.6861833816074 100.57621247461066,146.16062069201143 101.03352396248374,146.69108172299457 101.76522234315053,147.77321800756908 102.03960923582781,148.28245665307622 103.35666632093489,150.34061673819087 104.08836470148526,151.52882354534813 104.12494962045457,151.65613101268536 104.10665716102812,152.0168350779859 104.16153453965671,152.27144933363888 104.3444591347361,152.75945911431336 104.61884602741338,154.18104626120476 104.80177062260918,154.71148672356503 104.82006308215205,155.1782732053398 104.78347816306632,155.79358104917628 104.56396864890121,156.93932181234413 104.23470437759534,157.97896997610223 103.79568534926511,158.82765848108102 103.44812861841638,159.37930414214497 103.11886434722692,159.73999474055017 102.69813777832314,160.27042094880017 101.98473185731564,160.94936451068497 100.79572198877577,161.86169141317077 98.28965503524523,163.91971639524854 97.42990943812765,164.68351427229936 96.89942811219953,165.25636082948768 96.47870154341217,165.78677289413463 96.09455989347771,166.35961639648303 95.94822021748405,166.63542936900922 95.67383332469035,167.44164979581547 95.4726162700681,168.31151568007772 95.43603135098238,168.62975838244893 95.43603135098238,169.4784031957388 95.3811539724702,170.34826051683922 95.17993691784795,171.55756827710138 95.25310675590299,171.60000000000582 95.28969167498872,171.53635241244046" stroke="#4dd2ff" stroke-linecap="round" stroke-linejoin="round" stroke-width="0.5"><title>2022-05-29 2.6km</title></polyline><polyline fill="none" points="183.80595417774748,128.40000000002328 183.66421523911413,128.4822118456359 182.92008581082337,129.22211769779096 182.49486899469048,129.87981064114138 181.07747960742563,131.31851018985617 179.6246554852696,132.67499360322836 178.59704817947932,133.7026294945681 176.40009462926537,136.21005000572768 175.9040083436994,136.7033112097124 175.54966099676676,136.90883653209312 174.91183577256743,137.68983179540373 174.20314107905142,138.30640592781128 172.43140434473753,140.27943677414441 170.37618973327335,142.37577140095527 168.32097512169275,144.63651213567937 165.80510895932093,147.26717620322597 165.13184900023043,148.08925518175238 164.2459806331899,148.95243629367906 161.5883755320683,151.99410729345982 160.41902928764466,153.43272742483532 159.39142198162153,154.9535488038091 158.54098834947217,155.85781823826255 157.33620737027377,157.54304219296318 156.80468634993304,158.15958577109268 156.27316532970872,159.0638479696645 155.8125137789175,159.68038920746767 154.8912106771022,161.07787916762754 154.50142859574407,161.57110975446994 150.17839096440002,168.43517239991343 149.6468699441757,169.17500446730992 148.1940458221361,171.60000000000582" stroke="#4dd2ff" stroke-linecap="round" stroke-linejoin="round" stroke-width="0.5"><title>2022-05-25 1.5km</title></polyline><polyline fill="none" points="51.834446577355266,176.40000000002328 51.520029301871546,176.48105508144363 50.6466479805531,177.41318732188665 50.61171272781212,177.53476962589775 50.122619188041426,178.18320794796455 49.45884938375093,178.75059060633066 49.07456160255242,179.27744520205306 48.131309775752015,180.20957084177644 47.36273421312217,180.85800477175508 46.803770167636685,181.50643763702828 46.384547133464366,181.83065367041854 46.14000036357902,182.19539638975402 44.498043479863554,184.05963169419556 43.799338422948495,184.70805930235656 43.449985894490965,184.870166038163 42.89102184888907,185.6401721240254 42.19231679197401,186.2480706050119 40.3756836442044,188.35544476108043 40.096201621345244,188.5175499995239 39.32762605883181,189.32807519420749 38.69879150763154,189.8954418405774 37.7904749334557,190.9491205928498 37.19657563511282,191.51648491050582 36.323194314027205,192.57015933777438 36.04371229140088,192.73226284634438 35.414877740084194,193.5427793910203 34.85591369459871,194.0696142531233 34.29694964911323,194.67749975906918 33.9475971206557,195.0422306136752 33.17902155814227,195.97431904484984 32.305640236940235,196.78482893604087 31.397323662880808,197.91953998949612 30.454071836080402,198.93267210372142 29.23133798642084,200.35105269763153 28.497697676881216,201.24260360660264 28.28808615973685,201.68837830636767 27.519510597107,202.74202559687546 26.96054655162152,203.30937297357013 26.26184149470646,204.2414418948756 25.80768320779316,204.8087871177995 25.702877449220978,205.05193482106552 25.24871916230768,205.619278879778 25.1089781508781,205.70032796444139 24.93430188659113,205.94347511880915 24.375337841105647,206.8755378240894 23.991050059790723,207.3213061663555 23.92117955419235,207.56445232292754 23.676632784190588,207.8481226496515 23.047798233106732,208.82070508043398 22.663510451558977,209.18542287460878 22.314157923334278,209.91485745253158 22.0696111532161,210.2390501658665 21.859999636304565,210.60376665031072 20.91674780950416,212.02210533322068 19.763884465559386,213.96724724490196 19.379596684128046,214.4130075838475 19.065179408644326,215.06138536077924 18.436344857444055,216.03395003077458 18.017121823271737,216.56075489372597 16.619711709441617,218.91110649201437 16.270359180984087,219.47843064466724 16.165553422644734,219.5189537673432 16.235423928243108,219.47843064466724 16.305294433841482,219.60000000000582 16.34022968681529,219.55947688565357 16.44503544527106,219.27581496944185" stroke="#4dd2ff" stroke-linecap="round" stroke-linejoin="round" stroke-width="0.5"><title>2022-05-25 1.6km</title></polyline><polyline fill="none" points="109.40710280369967,198.56217579252552 106.50018691504374,196.31396898668027 104.2392523358576,194.8151613730588 101.4938317751512,193.31635129760252 96.56822429876775,189.85034357121913 91.9656074764207,187.22741005552234 89.8661682237871,185.5412345289369 87.12074766308069,184.3234391558217 84.85981308342889,183.76137920457404 83.56785046681762,183.01196539809462 83.32560747629032,182.9182886291528 83.00261682225391,183.2929956476437 82.11439252272248,184.79182218393544 80.3379439250566,187.4147626993945 78.39999999990687,191.16180750215426 78.64224298996851,191.81753876095172 79.53046728949994,192.5669453368173 81.06467289710417,193.1289998650318 83.16411214927211,194.34678348881425 84.69831775641069,195.93926731409738 85.58654205547646,196.68867050565314 88.41271028015763,198.1874750428251 93.33831775654107,201.37242651189445 97.86018691537902,203.7142955014133 99.15214953199029,204.6510414147633 100.44411214953288,205.7751352415653 101.57457943912596,206.24350726080593 103.18953271023929,207.55494763620663 104.56224299035966,207.74229610752081 109.73009345727041,210.64619249367388 112.95999999949709,212.7070165819605 115.14018691563979,213.0817113708472 115.9476635507308,212.80069029366132 116.75514018675312,212.33232163917273 117.23962616780773,211.67660511954455 117.48186915880069,211.77027893654304 117.64336448581889,211.58293129241792 118.2085981303826,210.64619249367388 119.66205607401207,209.24108249269193 120.14654205553234,207.8359703287715 121.51925233611837,206.0561584820971 121.59999999962747,205.7751352415653 121.59999999962747,205.58778636652278 120.8732710275799,205.213088501303 119.41981308348477,205.0257395109511 118.37009345786646,204.0889939822955 117.80485981237143,202.77754862676375 117.07813084078953,202.12182524229866 114.49420560710132,201.09140182938427 112.79850467247888,199.87362720503006 107.79214953212067,196.7823458611383" stroke="#4dd2ff" stroke-linecap="round" stroke-linejoin="round" stroke-width="0.5"><title>2022-05-23 1.3km</title></polyline><polyline fill="none" points="144.39999999990687,180.16639043335454 145.17837837827392,180.61789048393257 145.99999999976717,180.91889028597507 146.95135135110468,181.62122243642807 148.11891891877167,181.77172205160605 148.68108108080924,182.0225546406873 149.24324324307963,183.2265492764418 149.54594594566151,183.57771381980274 150.1081081079319,183.97904441770515 150.7567567564547,184.93220326685696 151.23243243223988,185.4338650724967 152.78918918897398,185.93552636317327 153.04864864842966,186.13619073529844 153.99999999976717,186.28668896027375 154.9945945944637,186.5876852713409 157.4594594591763,187.7415027465322 157.84864864847623,187.69133682607207 158.06486486457288,187.9421663772664 158.88648648629896,188.3936592451355 159.27567567536607,188.44382509353454 159.79459459427744,188.69465425869566 160.74594594561495,189.4973067220708 162.34594594570808,190.65111732881633 163.03783783782274,191.35343549516983 164.20540540502407,192.00558717470267 165.4594594591763,192.85839959653094 166.84324324317276,194.16269806952914 166.88648648629896,193.96203699245234 167.4054054049775,194.16269806952914 168.2702702700626,194.3131938231527 168.78918918897398,194.5138547560491 170.6486486485228,195.56732330218074 171.72972972947173,196.36996447990532 172.42162162135355,196.67095458184485 173.02702702698298,197.12243938734173 174.02162162144668,197.3732640988601 174.7999999995809,197.32309916685335 175.83783783763647,197.62408868194325 178.4324324321933,198.12573746178532 182.1081081079319,199.02870396804065 183.3189189187251,199.17919822366093 183.83783783763647,199.4300218799326 186.56216216203757,199.98183347078157 187.34054054040462,200.28282134860638 187.51351351314224,200.4834798310476 187.5999999998603,200.98512567635044 187.42702702688985,201.53693551171455 187.2108108107932,201.988415822736 187.25405405368656,202.69071769993752 187.2108108107932,203.0418682601885 185.8270270267967,205.14876632450614 185.04864864842966,206.75401589742978 184.05405405373313,208.05827729412704 183.7081081077922,209.0113891910005 182.67027026996948,210.51629892902565 182.15135135129094,211.82055028778268 181.67567567550577,212.57300141188898 181.24324324307963,213.47594123211456 180.89729729713872,214.12806339841336 180.42162162158638,214.7300215489813 180.2054054052569,215.1814896755095 179.85945945931599,215.83360956664546" stroke="#4dd2ff" stroke-linecap="round" stroke-linejoin="round" stroke-width="0.5"><title>2022-05-21 1.5km</title></polyline><polyline fill="none" points="55.60000000009313,246.00011764740339 55.03713355062064,245.5103756603785 54.47426710091531,245.26550444055465 54.0169381108135,244.97982116037747 53.207817589631304,244.1635820857191 52.891205211752094,244.04114608009695 52.11726384377107,243.83708598674275 51.624755700468086,243.2657171683677 51.061889250879176,242.9800324512762 50.49902280140668,242.4902867443452 50.14723127044272,242.36785022329423 49.61954397405498,241.9597282143659 48.0716612378601,241.22510754255927 47.157003257307224,240.4904855134082 46.453420195379294,240.28642359792138 45.08143322484102,239.22529994827346 44.65928338759113,238.77636216703104 43.92052117269486,238.40904905984644 42.7596091205487,238.12336085300194 42.44299674266949,238.28661128203385 41.24690553743858,239.51098736329004 40.12117263849359,240.4496731387335 39.10097719868645,241.87810376222478 38.749185667722486,242.24541366458288 38.32703583058901,242.53109890958876 37.83452768728603,242.73515967314597 37.1309446253581,243.79627395560965 36.53289902280085,244.2860180538264 36.25146579812281,244.8573854060378 35.6885993485339,245.0206330701767 35.40716612385586,245.22469255607575 33.61302931595128,246.9795998117188 32.768729641800746,247.67339821814676 32.02996742667165,248.48963008765713 31.185667752521113,249.59154045360629 30.341368078254163,250.32614566772827 29.7433224755805,251.1831833688775 28.793485342059284,252.08103040792048 28.512052117381245,252.4075197376078 27.702931596082635,253.0196865083417 27.421498371404596,253.42779716514633 27.175244299694896,253.59104131063214 26.788273615646176,254.0807733448164 26.19022801297251,254.61131570133148 25.592182410415262,255.26428993750596 25.099674267112277,255.63158747417037 24.923778501688503,255.6723982905678 24.677524429978803,255.54996582868625 23.235179153154604,254.73374845224316 22.320521172718145,254.2848281810875 20.70228013023734,252.9788754195033 20.315309446305037,252.81563102276414 19.435830618953332,252.32589743033168 18.767426710110158,252.12184158875607 18.485993485315703,251.83616323463502 17.923127035959624,251.67291836882941 17.39543973945547,251.42805094423238 16.199348534224555,250.48939108659397 15.00325732899364,249.83640900914907 13.560912052169442,248.85693388213986 12.400000000023283,248.2447607026843 13.279478827374987,249.18342585931532 15.214332247618586,250.2445229331788 16.30488599347882,251.06074952470954 16.621498371474445,251.38723969220882 17.219543974031694,251.7137295914872 18.134201954468153,252.5299531671626 19.013680781819858,252.9788754195033 20.033876221626997,253.38698611821746 20.631921824184246,253.7542853889754 20.913355048862286,253.7950963981566 21.933550488669425,253.0196865083417 22.637133550597355,252.12184158875607 24.11465798050631,250.8158817231306 25.099674267112277,249.75478617407498 25.310749185620807,249.26504881176515 25.557003257330507,248.93855690170312 26.22540716617368,248.40800697609666 27.10488599340897,247.7958331053378 28.617589576519094,246.4490472722391 29.77850162878167,245.14306877422496 31.502280130400322,243.5105896196328 33.190879478817806,242.20460147006088 34.351791530963965,240.9802336836874 35.020195439690724,240.327235989389 35.86449511407409,239.71504967685905 36.49771986971609,238.81717471347656 37.09576547227334,238.2049860758416 37.51791530952323,238.00092298723757 38.04560260591097,237.4703584664676 38.39739413699135,237.3071077023924 38.854723127093166,237.22548229512176 39.9452768729534,236.4500400906254 40.36742671020329,236.3276017094322 42.7596091205487,237.6336091636622 43.46319218247663,238.28661128203385 44.16677524428815,238.6947370613634 44.940716612385586,239.30692494480172" stroke="#4dd2ff" stroke-linecap="round" stroke-linejoin="round" stroke-width="0.5"><title>2022-05-18 2.7km</title></polyline></svg>