<?xml version="1.0" encoding="utf-8" ?>
<svg baseProfile="full" height="300mm" version="1.1" viewBox="0,0,200,300" width="200mm" xmlns="http://www.w3.org/2000/svg" xmlns:ev="http://www.w3.org/2001/xml-events" xmlns:xlink="http://www.w3.org/1999/xlink"><defs /><rect fill="#222222" height="300" width="200" x="0" y="0" /><text fill="#FFFFFF" style="font-size:12px; font-family:Arial; font-weight:bold;" x="10" y="20">v</text><text fill="#FFFFFF" style="font-size:4px; font-family:Arial" x="10" y="280">ATHLETE</text><text fill="#FFFFFF" style="font-size:9px; font-family:Arial" x="10" y="290">b</text><text fill="#FFFFFF" style="font-size:4px; font-family:Arial" x="120" y="280">STATISTICS</text><text fill="#FFFFFF" style="font-size:3px; font-family:Arial" x="120" y="285">Number: 1</text><text fill="#FFFFFF" style="font-size:3px; font-family:Arial" x="120" y="290">Weekly: 1.0</text><text fill="#FFFFFF" style="font-size:3px; font-family:Arial" x="141" y="285">Total: 2.7 km</text><text fill="#FFFFFF" style="font-size:3px; font-family:Arial" x="141" y="290">Avg: 2.7 km</text><text fill="#FFFFFF" style="font-size:3px; font-family:Arial" x="167" y="285">Min: 2.7 km</text><text fill="#FFFFFF" style="font-size:3px; font-family:Arial" x="167" y="290">Max: 2.7 km</text><polyline fill="none" points="181.0,150.00044117786456 178.8892508149147,148.16390872641932 176.77850162843242,147.24564165214542 175.06351791555062,146.17432935151737 172.02931596105918,143.11343282146845 170.84201954398304,142.6542978003854 167.9397394140251,141.88907245034352 166.0928338766098,139.74643938138615 163.98208469105884,138.6751216922421 161.87133550504223,136.83857529133093 160.55211726389825,136.37943833740428 158.5732899028808,134.84898080397397 152.76872964156792,132.0941532846773 149.338762214873,129.33932067535352 146.70032573258504,128.57408849219792 141.5553745930083,124.59487480600365 139.97231270326301,122.91135812643915 137.2019543973729,121.53393397445325 132.8485342017375,120.46260319883004 131.66123778466135,121.07479230768513 127.17589576542377,125.66620261233766 122.95439739432186,129.18627427029423 119.12866449495777,134.5428891084157 117.8094462538138,135.92030124226585 116.22638436453417,136.99162091093604 114.37947882711887,137.7568487743847 111.74104234483093,141.73602733353619 109.49837133521214,143.5725677019218 108.4429967426695,145.71519527269993 106.33224755665287,146.3273740132572 105.27687296411023,147.09259708528407 98.54885993432254,153.6734992939746 95.38273615669459,156.27524331805762 92.61237784987316,159.33611282869242 89.44625407177955,163.46827670105267 86.28013029322028,166.2230462540174 84.03745928360149,169.43693763331976 80.47557003283873,172.8038640297018 79.42019543983042,174.02819901611656 76.38599348487332,176.32382440625224 75.33061889233068,177.85423936939333 74.40716612385586,178.46640491485596 72.95602605864406,180.30290004308335 70.7133550485596,182.2924338800367 68.47068403894082,184.74108726577833 66.62377850152552,186.11845302814618 65.96416938118637,186.27149358962197 65.04071661224589,185.81237185758073 59.63192182406783,182.751556696021 56.2019543973729,181.0681056791218 50.13355048839003,176.170782823232 48.68241042364389,175.55861633538734 45.38436482101679,173.72211536380928 42.877850162796676,172.95690595789347 41.82247556978837,171.88561212993227 39.71172638470307,171.2734438831685 37.73289902275428,170.35519104101695 33.24755700305104,166.83521657483652 28.762214983813465,164.38653378433082 23.353420195635408,160.71350205806084 19.0,158.41785263514612 22.2980456026271,161.93784697249066 29.553745928686112,165.91696099936962 33.6433224757202,168.9778107177699 34.83061889279634,170.20214884588495 37.07328990241513,171.42648596817162 40.503257329110056,174.48732437682338 43.801302931737155,176.170782823232 47.62703583063558,177.70119794341736 49.86970684072003,179.07857020874508 50.925081433262676,179.2316114930436 54.75081433262676,176.32382440625224 57.38925081444904,172.95690595789347 62.92996742669493,168.05955646175425 66.62377850152552,164.08044815284666 67.41530944593251,162.24393304414116 68.33876221487299,161.01958838140126 70.8452768730931,159.0300261604134 74.14332247525454,156.73437414504588 79.81596091203392,151.68392727093305 84.16938110813498,146.78650790336542 90.63355048885569,140.66471107373945 96.96579804550856,135.76725551276468 101.31921824114397,131.17587631382048 103.82573289889842,128.7271349602379 106.99185667745769,126.43143628828693 109.36644951114431,123.06440517562442 111.60912052122876,120.7686977845151 113.1921824105084,120.0034612021409 115.17100977199152,118.01384424930438 116.49022801360115,117.40165388409514 118.20521172648296,117.09555860678665 122.29478827351704,114.18765033991076 123.87785016279668,113.72850641049445 132.8485342017375,118.62603436375502 135.48697068402544,121.07479230768513 138.12540716631338,122.60526398022193 141.02768729627132,124.90096854302101" stroke="#4DD2FF" stroke-linecap="round" stroke-linejoin="round" stroke-width="0.5"><title>2022-05-18 2.7km</title></polyline></svg>