<?xml version="1.0" encoding="utf-8" ?>
<svg baseProfile="full" height="300mm" version="1.1" viewBox="0,0,200,300" width="200mm" xmlns="http://www.w3.org/2000/svg" xmlns:ev="http://www.w3.org/2001/xml-events" xmlns:xlink="http://www.w3.org/1999/xlink"><defs /><rect fill="#222222" height="300" width="200" x="0" y="0" /><text fill="#FFFFFF" style="font-size:12px; font-family:Arial; font-weight:bold;" x="10" y="20">Over 1km Runs</text><text fill="#FFFFFF" style="font-size:4px; font-family:Arial" x="10" y="280">ATHLETE</text><text fill="#FFFFFF" style="font-size:9px; font-family:Arial" x="10" y="290">bjing</text><text fill="#FFFFFF" style="font-size:4px; font-family:Arial" x="120" y="280">STATISTICS</text><text fill="#FFFFFF" style="font-size:3px; font-family:Arial" x="120" y="285">Number: 17</text><text fill="#FFFFFF" style="font-size:3px; font-family:Arial" x="120" y="290">Weekly: 1.7</text><text fill="#FFFFFF" style="font-size:3px; font-family:Arial" x="141" y="285">Total: 25.1 km</text><text fill="#FFFFFF" style="font-size:3px; font-family:Arial" x="141" y="290">Avg: 1.5 km</text><text fill="#FFFFFF" style="font-size:3px; font-family:Arial" x="167" y="285">Min: 1.0 km</text><text fill="#FFFFFF" style="font-size:3px; font-family:Arial" x="167" y="290">Max: 2.7 km</text><polyline fill="none" points="14.652920024935156,72.75 15.23489002417773,70.16254471137654 16.20484002213925,66.56259676674381 18.047745020128787,61.950146198272705 21.53956501511857,56.887678128667176 23.382470012642443,54.637684820918366 26.486310007981956,51.71268662170041 27.94123500632122,50.70018542755861 34.53689499711618,45.07516177755315 36.2828049948439,43.83765270363074 38.61068499088287,41.81263484421652 43.84841498360038,36.862575449747965 46.273289980366826,34.83754471386783 48.310184977483004,33.712526023271494 50.056094975210726,32.25 50.347079975064844,32.25 49.95909997494891,32.92501225322485 49.08614497631788,33.712526023271494 46.176294980570674,35.28755186719354 43.36343998461962,38.10009239241481 42.490484985522926,38.77510104572866 41.617529986891896,39.90011454443447 40.45358998840675,40.57512208970729 39.77462498936802,41.58763262897264 39.28964999038726,41.81263484421652 39.28964999038726,41.58763262897264 39.095659990329295,41.700133742182516 38.61068499088287,41.92513593460899 34.342904997523874,46.08766816323623 32.11202000034973,47.55017573724035 27.650250006467104,51.487686436856166 26.486310007981956,52.275186880724505 25.322370009496808,53.625186326680705 24.449415010865778,54.30018542648759" stroke="#4dd2ff" stroke-linecap="round" stroke-linejoin="round" stroke-width="0.5"><title>2022-11-06 1.1km</title></polyline><polyline fill="none" points="85.33123569795862,47.23190886597149 80.69736842112616,44.866569021949545 77.6390160182491,42.28619219129905 74.76601830683649,40.88848542061169 73.37585812387988,40.35090539720841 71.15160183096305,39.06071221479215 69.76144164754078,37.555484826210886 68.18592677358538,36.48032108147163 66.42505720816553,35.83522230538074 64.66418764274567,35.83522230538074 62.81064073275775,34.975089985411614 61.69851258583367,35.942738795652986 60.8644164763391,37.12541946093552 60.67906178487465,39.27574452199042 60.30835240287706,39.7058090044884 59.65961098391563,40.673453444615006 57.25,42.71625543816481 57.99141876446083,44.22147541039158 58.918192219920456,44.866569021949545 59.2889016023837,45.40414672845509 60.493707093875855,46.04923961183522 63.45938215125352,46.909362838370726 65.59096109867096,48.84463751572184 66.51773455366492,49.16718294750899 67.44450800959021,49.812273513525724 68.46395881008357,50.99493851931766 69.66876430250704,51.317483289400116 71.70766590442508,52.50014659552835 73.28318077838048,53.790323224966414 74.67334096133709,54.00535250909161 77.08295194525272,54.972983739571646 81.34610984008759,58.19841472012922 85.51659038895741,60.67123841261491 86.99942791787907,61.8538911587093 89.5017162472941,63.03654256951995 92.6527459952049,65.18681444134563 93.57951945113018,65.61686828604434 95.71109839854762,67.44459515623748 96.82322654500604,69.16480576817412 97.75,70.0249100147048" stroke="#4dd2ff" stroke-linecap="round" stroke-linejoin="round" stroke-width="0.5"><title>2022-09-28 1.1km</title></polyline><polyline fill="none" points="133.52499999990687,47.93224213481881 132.5124999997206,47.14917113154661 129.9250000002794,44.538930971873924 122.5,40.493048134609126 117.77499999990687,36.96920420683455 113.27499999990687,34.4894563293783 110.8000000002794,33.445350512862206 109.78750000009313,33.18432392482646 109.0,33.314837225712836 108.21249999990687,33.96740352839697 106.1875,38.01330712949857 104.83749999990687,40.36253557074815 102.25,44.9304673372535 105.96249999990687,49.49838269397151 111.13750000018626,52.239124031504616 120.25,58.24263203248847 125.20000000018626,60.85284406167921 129.81250000046566,63.854581271414645 133.1875,65.81223215593491 138.4750000005588,69.59701532009058 142.75,71.81567607517354" stroke="#4dd2ff" stroke-linecap="round" stroke-linejoin="round" stroke-width="0.5"><title>2022-09-14 1.1km</title></polyline><polyline fill="none" points="155.86242554779164,72.75 156.12219283450395,71.60494907747488 156.27805320662446,71.30361951648956 157.78470347076654,68.95324363413965 158.2522845871281,67.92871787038166 158.92767953313887,67.20552213751944 158.09642421500757,66.54259193351027 157.99251730018295,66.30152621940942 159.23940027714707,62.50472816918045 159.4991675640922,62.50472816918045 161.83707314613275,62.86632904096041 163.03200266580097,62.68552863301011 163.70739761157893,62.323927649937104 164.53865292971022,61.48019115708303 165.57772207725793,60.03378292085836 165.88944282126613,59.2503103055642 166.1492101084441,58.10523306496907 166.92851196881384,57.56282727693906 167.81172074424103,58.16550034371903 169.31837100815028,56.29721182381036 171.65627659019083,51.53606259537628 171.70823004748672,51.35525869950652 171.24064893112518,50.51150644919835 171.2926023886539,50.14989797078306 172.95511302445084,47.07621691538952 174.77348403260112,43.94225104118232 174.87739094765857,43.761444807460066 175.1891116918996,43.64090728730662 175.34497206378728,43.46010096085956 175.86450663767755,41.83284151717089 177.83873801818117,37.01130558218574 178.82585370820016,35.02241047669668 179.13757445244119,34.118365020200144 179.13757445244119,33.87728599680122 178.98171408032067,33.575937078217976 178.30631913454272,33.2745880051516 176.90357578522526,32.25" stroke="#4dd2ff" stroke-linecap="round" stroke-linejoin="round" stroke-width="0.5"><title>2022-08-14 1.0km</title></polyline><polyline fill="none" points="19.851151999551803,86.45080632576719 20.349015635438263,86.77568615443306 21.03357813495677,87.3893472343334 21.251393475569785,87.53373792106868 22.40270313376095,87.78642148009385 22.838333815103397,88.14739767822903 23.678478700807318,88.58056862695958 24.17634233669378,88.68886128085433 24.705322449910454,88.68886128085433 25.35876847221516,88.18349527768441 27.070174720487557,85.69275222512078 27.536921879276633,84.82640268089017 27.63027131103445,84.573716995219 28.377066764980555,83.31028584350133 28.43929971952457,83.02150094305398 28.625998582923785,82.5161267966032 28.937163355294615,82.15514481876744 29.18609517335426,81.93855545425322 29.34167755965609,81.32488486386137 29.870657672872767,81.03609833304654 30.15070596791338,81.0 30.399637785973027,81.10829498799285 30.648569603916258,81.28878656050074 31.177549717132933,81.57757288368884 31.39536505774595,81.79416247052723 32.142160511692055,82.11904660053551 33.16900426079519,82.84101025972632 33.63575141946785,83.41858012005105 33.97803266940173,83.59907050689799 35.564973008818924,84.3571291200642 36.00060369016137,84.50152105162852 36.2184190308908,84.50152105162852 36.747399144107476,84.75420678922092 36.84074857586529,84.93469649070175 37.02744743938092,85.11518609937048 38.64550425612833,86.01763275405392 39.20560084655881,86.45080632576719 39.921279823291115,86.4147085485456 40.07686220947653,86.48690409926348 40.668075277120806,86.99227254019934 41.2281718676677,87.31715186874499 41.72603550343774,87.7503238399222 42.286132093984634,88.0752024683461 42.752879252657294,88.47227593985735 43.001811070600525,88.6166661819152 43.21962641121354,88.90544648838113 44.89991618250497,89.95227311179042 45.0866150460206,90.09666274636402 45.14884800056461,90.24105232171132 45.11773152335081,90.67422069198801 44.89991618250497,90.74641536845593 44.86879970529117,90.8186100301682 44.80656675074715,91.10738852879149 44.402052546618506,91.39616679024766 43.84195595618803,92.76786029461073 43.499674706486985,93.23712263384368 43.188509934116155,93.88686945461086 43.001811070600525,94.60880895875744 43.032927547814324,95.1863594953902 42.908461638959125,95.83610271540238 42.752879252657294,95.98048993467819 42.03720027592499,96.41365123676951 41.10370595857967,96.81071529508336 40.82365766330622,97.09948887414066 40.63695879979059,97.53264879831113 40.57472584536299,97.89361499430379 40.35691050463356,98.43506359361345 40.35691050463356,98.97651135959313 40.13909516390413,99.51795829201001 39.890163346077316,99.87892245073454 39.54788209637627,100.09550076798769 39.081134937587194,100.6008496566501 38.67662073334213,101.25058287536376 38.17875709745567,102.26127660775091 37.99205823394004,102.87491067143856 37.77424289332703,103.45244763576193 37.74312641599681,103.74121576236212 37.80535937042441,104.28265536093386 37.77424289332703,104.46313504179125 37.89870880218223,104.82409412594279 37.49419459805358,106.37621396704344 37.43196164350957,106.44840542101883 36.65404971234966,107.17031914458494 36.062836644705385,107.56737106107175 35.596089486032724,107.78394464487792 34.94264346384443,107.82004022909678 34.00914914649911,107.53127545074676 33.66686789679807,107.53127545074676 33.480169033282436,107.67565786966588 33.16900426079519,108.18099586875178 33.044538351823576,108.6141421473294 33.044538351823576,109.62481472332729 32.95118892006576,110.05795922412653 33.01342187449336,110.56329380100942 32.92007244285196,111.14081814291421 32.17327698902227,112.36805422138423 31.39536505774595,114.31718507601181 30.866384944645688,114.82251353483298 30.492987217730843,114.89470325538423 30.212938922457397,114.75032379929326 30.057356536271982,114.35327999005676 29.964007104514167,114.31718507601181 29.83954119554255,114.42546980685438 29.652842332143337,114.82251353483298 28.99939630983863,115.03908265198697 29.497259945841506,115.14736716068 29.27944460499566,115.54441007386777 29.061629264382645,115.76097874666448 28.43929971952457,115.83316827463568 28.097018469823524,116.12192623849842 27.381339493091218,117.45742873818381 26.354495743871666,119.47872017559712 25.856632107985206,119.91185254426091 25.79439915344119,119.91185254426091 25.82551563065499,120.20060716031003 25.54546733549796,120.8142099325778 25.389884949312545,120.95858690000023 24.61197301815264,121.39171744670602 24.269691768451594,121.42781163481413 23.740711655351333,121.1751522400009 23.398430405650288,121.2473406570789 23.305080973892473,121.42781163481413 22.807217337889597,121.5" stroke="#4dd2ff" stroke-linecap="round" stroke-linejoin="round" stroke-width="0.5"><title>2022-08-14 2.4km</title></polyline><polyline fill="none" points="58.747296133544296,121.5 60.47518754680641,119.67255058448063 62.30471963156015,117.25559243088355 64.28671272308566,115.19232742651366 65.76050245785154,113.12905501323985 67.99659722764045,110.88892229000339 69.11464461265132,109.41514599852962 71.60484106116928,106.88024193415185 72.41796643217094,106.23177630733699 73.43437314569019,104.81693967181491 74.29831885220483,103.99161669233581 75.6704679154791,102.4588708707015 77.19507798622362,101.22088087594602 80.3967591340188,97.62479957210599 82.0738302115351,96.09203676501056 84.56402665982023,93.08545168914134 87.56242646486498,90.1378039874835 89.0362161998637,88.48711466853274 89.64606022811495,87.89758161955979 91.11984996288083,86.1289788428112 92.3903583548963,85.00886093464214 93.35594473266974,84.00664832361508 94.82973446743563,82.5917569550802 96.2527038664557,81.0" stroke="#4dd2ff" stroke-linecap="round" stroke-linejoin="round" stroke-width="0.5"><title>2022-07-12 1.0km</title></polyline><polyline fill="none" points="135.78043853817508,81.0 132.0853901724331,86.3968304505106 131.3029093418736,87.25426534318831 130.60737082595006,88.31344755599275 130.30307272518985,88.91869350915658 121.91313937702216,100.41822492005304 121.30454317550175,101.37650705195847 121.00024507497437,102.18348002905259 120.6090046595782,102.53653028953704 120.30470655905083,102.99045168008888 119.69611035753042,103.54524392148596 117.95726406783797,106.1174543070374 117.04436976555735,107.32790159262368 115.65329273371026,109.64791721958318 114.95775421801955,110.65661624845234 114.17527338746004,112.22009564991458 112.65378288389184,115.04443292264477 112.65378288389184,115.6496459399932 112.21907131141052,116.30529253397253 112.0886578396894,116.86006973756594 111.56700395280495,117.31397789280163 111.30617700936273,117.61658309664926 110.13245576387271,119.98698407757911 109.2195614615921,121.5" stroke="#4dd2ff" stroke-linecap="round" stroke-linejoin="round" stroke-width="0.5"><title>2022-07-04 1.1km</title></polyline><polyline fill="none" points="156.30750877829269,81.0 157.67662085429765,82.03237926849397 158.90882172295824,82.66768890299136 160.41484500654042,83.62065237649949 161.3732234595809,83.93830660678213 163.15306915855035,84.89126851572655 166.23357132961974,87.11484173871577 168.97179548162967,88.3060390513856 170.06708514271304,89.17958258179715 173.6267765404191,91.08549231622601 175.54353344696574,92.19727082672762 178.00793518382125,93.46787288284395 178.5555800141301,93.86493559740484 178.69249122194014,94.10317312862026 178.62403561803512,94.73847285285592 178.07639078749344,95.45318441878771 176.63882310781628,96.24730760714738 175.68044465454295,97.04142998025054 173.76368774822913,98.9473203511443 171.71001963410527,100.85320602782303 166.57584934867918,105.93554488470545 165.2751928763464,107.04730205982924 164.0429920081515,108.39729076862568 163.28998036612757,109.03257875796407 159.7987445720937,112.44724276434863 157.67662085429765,114.43250560940942 157.1289760239888,115.14719898672774 157.265887231566,115.86189170432044 158.42963249608874,117.2118650363409 162.94770234730095,119.8323947819299 164.65909244236536,121.02354173304047 165.069826065097,121.10295146453427 166.23357132961974,120.94413199328119 168.01341702858917,120.30885378242237 168.28723944397643,120.38826358725782 169.58789591607638,121.5 169.99862953880802,121.42059030925157 170.2724519544281,121.10295146453427" stroke="#4dd2ff" stroke-linecap="round" stroke-linejoin="round" stroke-width="0.5"><title>2022-06-28 1.0km</title></polyline><polyline fill="none" points="17.101973941083997,170.25 18.453524817712605,168.6255766019458 20.529120806837454,167.22520771826385 21.301435593515635,166.60904426965863 22.21855940273963,165.65679029736202 23.76318897609599,163.41618615359766 24.825121807632968,160.72744902345585 25.452627571765333,159.77518477616832 27.286875190213323,156.41423884086544 28.10745965107344,155.2939189237659 29.845167920691893,153.10928846237948 31.003640100825578,151.82091254694387 32.30692130327225,150.53253358631628 35.63752882066183,147.4516150272102 37.13388871983625,145.7711066546617 38.292360899969935,144.31466187373735 38.67851829319261,143.97855867928592 40.27141754073091,141.96193516021594 40.898923304863274,140.8415855365456 42.153934833128005,139.16105678281747 43.02278896817006,137.5365407288191 43.50548570975661,136.19210998760536 44.18126114807092,133.89536646578927 44.953575934516266,132.4949083486572 45.67762104724534,131.54259477352025 46.35339648532681,130.81435385794612 47.077441598055884,130.14213061064947 47.898026058916,129.75 47.5118686654605,129.80601867596852 46.69128420483321,130.5342609389918 46.40166615974158,130.7023167075822 46.06377844046801,131.0384280893486 44.90530626056716,132.6069451306248 44.470879193162546,132.9990736853797 44.229530822252855,133.44722025992814 44.18126114807092,133.9513847156777 43.939912777394056,134.84767592995195 43.215867664664984,136.69627190416213 42.54009222635068,138.04070140153635 42.25047418149188,138.76893266139086 40.94719297904521,140.50548020045971 39.74045112472959,140.89760307245888 38.38890024810098,141.7378654195927 35.83060751738958,143.13829978654394 33.46539348340593,144.09059310064185 31.341527819866315,145.378987288801 29.41074085328728,146.16322573833168" stroke="#4dd2ff" stroke-linecap="round" stroke-linejoin="round" stroke-width="0.5"><title>2022-06-15 1.5km</title></polyline><polyline fill="none" points="60.79382308898494,170.25 61.43636835482903,168.9942505636136 62.07891362067312,168.05243577703368 63.16109512082767,167.03213380431407 64.24327662109863,165.7763737886853 64.95345823082607,165.07000696548494 65.4607308091363,164.71682306416915 66.03563973121345,164.0496970259701 66.61054865317419,163.65726940039895 68.03091187227983,162.91165580091183 69.34982057579327,162.0090689699573 70.33054756035563,161.1457230488304 70.60109293542337,160.7925355186162 71.07454734190833,160.59632008284098 71.27745637320913,160.4001045463665 71.98763798282016,159.57599819242023 72.29200152982958,159.340538907476 72.76545593619812,158.90886317487457 73.7123647488188,157.45685940270778 74.0505464678863,157.10366846129182 74.3549100147793,156.39728559859213 74.72690990543924,155.8086322149611 74.92981893674005,155.25922157175955 75.4032733431086,154.51359157756087 75.7076368900016,153.7679601275304 75.97818226530217,152.8261077941861 76.21490946831182,152.23744890643866 76.82363656233065,151.2955927986186 77.02654559363145,150.70693155174376 77.60145451570861,149.76507166944793 77.93963623442687,149.41187361479388 78.41309064091183,148.8232094644336 79.35999945364892,147.95983373592026 81.62581696989946,146.39005468337564 82.03163503261749,145.84063049062388 82.50508943886962,145.01649271932547 83.31672556418926,143.17198745335918 84.06072534562554,141.71992384913028 84.26363437704276,141.40596342497156 84.4327252364019,141.28822819935158 84.80472512706183,140.34634508768795 85.5487249083817,139.28672381027718 85.92072479927447,138.6195533494756 87.91599694045726,136.3825615334208 89.97890542529058,134.6165061063366 90.41854165995028,134.18480242640362 90.79054155061021,133.59611480345484 92.17708659800701,132.41873683498125 92.78581369179301,131.63381617265986 93.25926809816156,131.1628630007035 94.13854056713171,129.9462312849064 94.20617691101506,129.75 94.10472239530645,129.78924626507796 93.83417702023871,130.06397000752622" stroke="#4dd2ff" stroke-linecap="round" stroke-linejoin="round" stroke-width="0.5"><title>2022-06-13 1.5km</title></polyline><polyline fill="none" points="110.4166027456522,170.25 110.93078986275941,165.31643101526424 110.83730129618198,162.9309525770368 110.93078986275941,161.73820932168746 111.11776699637994,160.97918948542792 111.25799984671175,160.65389493625844 111.35148841328919,159.89487354329322 111.53846554690972,159.1900669883471 112.3331183642149,157.12985782511532 113.08102689846419,156.09975023264997 113.68870258238167,155.50337123556528 114.76382110035047,154.0395290265442 115.41824106755666,153.49736421677517 116.16614960180596,153.11784851900302 116.91405813582242,152.5756827641162 117.80219952017069,151.65399970457656 118.36313092056662,151.32869941770332 118.92406232119538,150.7865318278782 120.27964653936215,149.7564118754235 121.54174219048582,148.50942187884357 122.24290644121356,148.07568553846795 122.85058212536387,147.85881723480998 123.27128067589365,147.26242894108873 124.43988776043989,146.06965033500455 126.30965909571387,144.82265164190903 127.43152189673856,143.62986753100995 128.36640756437555,142.97925688151736 129.48827036563307,141.84068631823175 129.72199178254232,141.4069445062196 131.5917631178163,139.1297941544908 132.8538587691728,137.0152886158903 133.18106875289232,135.87670520722168 133.46153445309028,135.3345217697206 133.7887444368098,134.4670271128416 134.48990868753754,132.08140946610365 134.53665297082625,131.53922213579062 134.48990868753754,130.83437777491054 134.5833972543478,129.75" stroke="#4dd2ff" stroke-linecap="round" stroke-linejoin="round" stroke-width="0.5"><title>2022-05-29 1.0km</title></polyline><polyline fill="none" points="168.02305001416244,129.75 167.93730411014985,129.94894012412988 167.28563523996854,131.04310715783504 166.8740549008944,131.85875492880587 166.17093848832883,132.97280487623357 164.81615320552373,141.2682969202433 168.0401991949766,146.4005818987498 168.4689287148649,146.89788911529467 169.15489594667451,147.9123918820842 169.41213365859585,148.38980311223713 170.64687467587646,150.3193281920394 171.3328419076861,151.43327207375842 171.367140269198,151.55262282438343 171.34999108844204,151.89078288560268 171.4014386308845,152.12948375027918 171.57293043879326,152.58699291964876 171.8301681507728,153.919730869864 172.00165995868156,154.4170188033313 172.01880913949572,154.85463112998696 171.9845107778674,155.4314822335873 171.77872060833033,156.5056141990499 171.47003535402473,157.4802843525831 171.0584550149506,158.27592982600618 170.73262057977263,158.79309763325728 170.42393532552524,159.13124506924942 170.02950416720705,159.62851963948924 169.36068611621158,160.26502922875807 168.24598936451366,161.12033569984487 165.89655159559334,163.04973412053369 165.09054009825923,163.76579463026428 164.59321385523072,164.30283827763924 164.19878269691253,164.80009958824667 163.83864990016446,165.3371403716883 163.7014564538258,165.5957150334434 163.44421874190448,166.351546683567 163.25557775318157,167.16704595006013 163.22127939161146,167.46539848353132 163.22127939161146,168.26100299599057 163.1698318492272,169.07649423452676 162.98119086050428,170.2102202597598 163.0497875836445,170.25 163.08408594527282,170.19033038665657" stroke="#4dd2ff" stroke-linecap="round" stroke-linejoin="round" stroke-width="0.5"><title>2022-05-29 2.6km</title></polyline><polyline fill="none" points="49.19308204180561,178.5 49.06020178669132,178.57707360526547 48.36258044769056,179.2707353416481 47.96393968258053,179.8873224760464 46.635137132019736,181.2361033030029 45.273114517563954,182.50780650301022 44.30973266833462,183.47121515113395 42.25008871499449,185.82192188035697 41.785007822327316,186.28435425908538 41.4528071845416,186.4770342488191 40.85484603687655,187.20921730817645 40.19044476165436,187.78725555731216 38.52944157330785,189.63697197576403 36.60267787496559,191.60228568839375 34.67591417673975,193.72173012717394 32.31728964939248,196.18797769051162 31.686108437832445,196.95867673287285 30.855606843717396,197.76790902533685 28.36410206137225,200.6194755876204 27.267839957261458,201.96818196077948 26.304458107915707,203.39395200356375 25.507176577695645,204.24170459836023 24.377694409689866,205.82160205589025 23.87939345324412,206.39961166039575 23.38109249668196,207.247357471555 22.949231667793356,207.82536488198093 22.085510009899735,209.13551171965082 21.720089308568276,209.59791539481375 17.667241529212333,216.0329741249152 17.168940572766587,216.7265666880703 15.806917958310805,219.0" stroke="#4dd2ff" stroke-linecap="round" stroke-linejoin="round" stroke-width="0.5"><title>2022-05-25 1.5km</title></polyline><polyline fill="none" points="94.21979366638698,178.5 93.92502747057006,178.57598913882975 93.1062324817758,179.44986311424873 93.07348068244755,179.56384652428096 92.61495548882522,180.1717574512004 91.99267129739746,180.70367869341862 91.63240150245838,181.19760487691383 90.74810291477479,182.07147266415996 90.0275633247802,182.67937947349856 89.50353453226853,183.2872852846922 89.11051293765195,183.5912378159992 88.8812503409572,183.93318411539076 87.34191576240119,185.6809047133138 86.68687977152877,186.28880559594836 86.35936177615076,186.44078066077782 85.83533298340626,187.1626613662811 85.18029699265026,187.7325661921932 83.47720341652166,189.70822946351836 83.215189020033,189.86020312452456 82.49464943015482,190.62007049453678 81.90511703852098,191.15197672552313 81.05357025016565,192.13980055577122 80.49678965797648,192.67170460356283 79.67799466953147,193.65952437915257 79.41598027327564,193.81149641843513 78.82644788140897,194.57135567907244 78.30241908878088,195.06526336228126 77.77839029615279,195.635156024131 77.45087230065838,195.9770912003005 76.7303327107802,196.85092410453944 75.91153772221878,197.6107771275274 75.05999093409628,198.67456874012714 74.17569234641269,199.62438009720063 73.02937936235685,200.95411190402228 72.34159157215618,201.7899408811645 72.14508077490609,202.20785466220696 71.4245411849115,203.19564899706165 70.900512392167,203.72753716271836 70.24547640129458,204.60135177645134 69.81970300734974,205.1332379229425 69.72144760878291,205.36118889471982 69.29567421472166,205.89307394978823 69.16466701659374,205.96905746663106 69.00090801878832,206.19700792385265 68.47687922604382,207.07081671006745 68.11660943110473,207.48872453093645 68.05110583209898,207.71667405273183 67.8218432351714,207.98261498403735 67.23231084365398,208.89441101290868 66.87204104848206,209.23633394492208 66.54452305310406,209.92017886173562 66.31526045617647,210.22410953047802 66.1187496590428,210.56603123465902 65.23445107147563,211.89572374988347 64.15364168654196,213.71929429209558 63.79337189148646,214.13719460985158 63.49860569566954,214.745048775716 62.909073303919286,215.65682815384935 62.516051709419116,216.15070771286264 61.205979727674276,218.35416233626893 60.87846173229627,218.88602872935007 60.78020633372944,218.92401915686787 60.84570993273519,218.88602872935007 60.91121353174094,219.0 60.94396533141844,218.96200958031113 61.04222073010169,218.69607653381536" stroke="#4dd2ff" stroke-linecap="round" stroke-linejoin="round" stroke-width="0.5"><title>2022-05-25 1.6km</title></polyline><polyline fill="none" points="131.3191588781774,199.2770398054272 128.59392523299903,197.16934592498 126.4742990648374,195.76421378715895 123.90046728914604,194.35907934140414 119.28271028026938,191.10969709797064 114.96775700896978,188.65069692698307 112.99953270982951,187.06990737083834 110.42570093413815,185.9282242085319 108.30607476597652,185.40129300422268 107.09485981287435,184.69871756067732 106.86775700887665,184.61089558980893 106.56495327083394,184.96218341961503 105.73224299028516,186.3673332973849 104.06682242965326,188.82634003064595 102.25,192.3391945331823 102.47710280306637,192.95394258835586 103.30981308361515,193.65651125321165 104.74813084071502,194.18343737343093 106.7163551398553,195.32510952069424 108.15467289695516,196.81806310691172 108.98738317703828,197.52062859898433 111.63691588770598,198.92575785255758 116.2546728970483,201.91164985485375 120.49392523337156,204.10715203249129 121.70514018647373,204.9853513262933 122.91635514004156,206.03918928891653 123.97616822412238,206.47828805696918 125.49018691573292,207.7077634088928 126.77710280334577,207.88340260070981 131.62196261622012,210.60580546275014 134.6499999994412,212.53782804554794 136.69392523355782,212.88910441013286 137.4509345786646,212.6256471502711 138.20794392516837,212.18655153666623 138.66214953223243,211.57181729952572 138.88925233623013,211.65963650296908 139.04065420525149,211.4839980865363 139.5705607472919,210.60580546275014 140.93317756941542,209.28851483686594 141.38738317694515,207.97122218320146 142.67429906502366,206.3026485769078 142.75,206.03918928891653 142.75,205.8635497185751 142.06869158847257,205.51227046991698 140.7060747658834,205.3366307914839 139.7219626167789,204.45843185833655 139.19205607427284,203.22895183751825 138.51074766321108,202.6142111645895 136.08831775654107,201.64818921498954 134.49859813041985,200.50652550463565 129.80514018656686,197.60844924475532" stroke="#4dd2ff" stroke-linecap="round" stroke-linejoin="round" stroke-width="0.5"><title>2022-05-23 1.3km</title></polyline><polyline fill="none" points="147.25,182.03099103126442 147.97972972970456,182.45427232867223 148.75,182.73645964308525 149.64189189183526,183.3948960341222 150.73648648662493,183.53598942336976 151.26351351337507,183.77114497564617 151.79054054059088,184.89988994665327 152.0743243242614,185.22910670607234 152.60135135124438,185.6053541415895 153.20945945940912,186.49894056265475 153.65540540544316,186.96924850545474 155.11486486485228,187.4395559654513 155.35810810816474,187.627678814315 156.25,187.76877090026392 157.18243243242614,188.050954941893 159.49324324331246,189.13265882484848 159.85810810816474,189.08562827442074 160.0608108106535,189.32078097868362 160.83108108118176,189.74405554230907 161.1959459458012,189.7910860251577 161.68243243242614,190.02623836751445 162.5743243242614,190.77872505193227 164.0743243242614,191.86042249575257 164.72297297301702,192.51884577670717 165.81756756734103,193.13023797626374 166.99324324307963,193.92974962174776 168.29054054059088,195.15252944017993 168.33108108094893,194.9644096804259 168.81756756734103,195.15252944017993 169.62837837822735,195.293619209202 170.11486486485228,195.48173883376876 171.85810810816474,196.4693655957817 172.87162162153982,197.22184169990942 173.52027027029544,197.50401992048137 174.0878378378693,197.92728692560922 175.02027027029544,198.16243509267224 175.74999999976717,198.11540546891047 176.72297297301702,198.3975831393036 179.15540540544316,198.86787887042738 182.60135135124438,199.714409970009 183.7364864863921,199.85549833465484 184.22297297301702,200.09064551244956 186.77702702698298,200.60796887884499 187.50675675692037,200.8901450143021 187.66891891881824,201.0782623415871 187.75,201.5485553215549 187.5878378378693,202.06587704221602 187.38513513514772,202.4891398338077 187.42567567550577,203.14754784369143 187.38513513514772,203.47675149393035 186.0878378378693,205.45196842923178 185.3581081079319,206.95688990384224 184.42567567550577,208.17963496324955 184.10135135124438,209.0731773665466 183.12837837846018,210.48403024594882 182.6418918920681,211.70676589477807 182.1959459458012,212.4121888236259 181.79054054059088,213.25869490508921 181.46621621632949,213.87005943598342 181.02027027029544,214.43439520214451 180.81756756757386,214.8576465707738 180.49324324331246,215.46900896873558" stroke="#4dd2ff" stroke-linecap="round" stroke-linejoin="round" stroke-width="0.5"><title>2022-05-21 1.5km</title></polyline><polyline fill="none" points="52.75,247.50011029446614 52.222312703728676,247.04097718160483 51.694625407108106,246.81141041303636 51.265879478887655,246.54358233787934 50.507328990264796,245.7783582053671 50.21050488599576,245.66357445009635 49.484934853506275,245.47226811258588 49.02320846915245,244.93660984534654 48.49552117276471,244.66878042306053 47.967833876260556,244.20964382283273 47.63802931597456,244.09485958435107 47.1433224757202,243.7122452009935 45.69218241039198,243.02353832116933 44.83469055371825,242.33483016883838 44.17508143314626,242.14352212304948 42.88884364825208,241.1487187015009 42.493078175815754,240.7278395316098 41.800488599343225,240.3834834936133 40.71213355043437,240.1156507997075 40.41530944616534,240.26869807692128 39.293973941355944,241.4165506530844 38.238599348580465,242.29656856757356 37.282166123739444,243.63572227710392 36.95236156345345,243.98007531056646 36.55659609113354,244.247905227734 36.09486970677972,244.43921219359618 35.43526058620773,245.43400683338405 34.874592833803035,245.89314192548045 34.61074918566737,246.42879881817498 34.08306188916322,246.5818435033143 33.819218241027556,246.77314927132102 32.137214983580634,248.41837482349365 31.345684039173648,249.0688108295144 30.65309446246829,249.8340282071731 29.861563517944887,250.86706917526317 29.07003257330507,251.55576156350435 28.509364820900373,252.35923440832994 27.618892508209683,253.20096600742545 27.355048859957606,253.50704975402914 26.59649837121833,254.08095610156306 26.33265472308267,254.46355984234833 26.101791530963965,254.616601228714 25.739006514661014,255.07572501077084 25.1783387621399,255.57310847000917 24.617671009735204,256.1852718164446 24.15594462538138,256.52961325703654 23.99104234529659,256.5678733974055 23.760179153061472,256.4530929643952 22.407980456016958,255.68788917400525 21.550488599343225,255.26702641978045 20.033387622097507,254.042695705808 19.67060260591097,253.88965408384684 18.846091205254197,253.43052884095232 18.21946254069917,253.23922648947337 17.95561889244709,252.97140303248307 17.427931596175767,252.81836097079213 16.93322475568857,252.58879776025424 15.81188925076276,251.70880414370913 14.690553745953366,251.0966334460827 13.338355048908852,250.1783755145152 12.25,249.60446315878653 13.074511400656775,250.48446174312267 14.888436482171528,251.4792402498424 15.91083061893005,252.24445267944247 16.207654723199084,252.55053721147124 16.76832247560378,252.8566214920429 17.625814332277514,253.62183109420585 18.45032573293429,254.042695705808 19.406758957658894,254.42529948585434 19.967426710180007,254.76964255218627 20.23127035831567,254.8079028732609 21.18770358315669,254.08095610156306 21.84731270361226,253.23922648947337 23.232491856673732,252.01488911543856 24.15594462538138,251.02011203821166 24.353827361483127,250.5609832610353 24.584690553718247,250.25489709535032 25.211319218273275,249.75750654010335 26.035830618813634,249.18359353626147 27.45399022800848,247.92098181773326 28.542345277033746,246.69662697584135 30.158387622213922,245.16617776843486 31.74144951137714,243.94181387819117 32.82980456028599,242.79396907845512 33.456433224724606,242.18178374005947 34.24796416936442,241.60785907207173 34.84161237778608,240.7661012939061 35.40228013030719,240.19217444612877 35.7980456026271,240.00086530053522 36.29275244299788,239.5034610623261 36.62255700340029,239.35041347102378 37.05130293162074,239.27388965169666 38.07369706837926,238.5469125849777 38.46946254069917,238.4321266026236 40.71213355043437,239.65650859093876 41.37174267100636,240.26869807692128 42.031351791578345,240.65131599505548 42.75692182406783,241.22524213575525" stroke="#4dd2ff" stroke-linecap="round" stroke-linejoin="round" stroke-width="0.5"><title>2022-05-18 2.7km</title></polyline></svg>