<?xml version="1.0" encoding="utf-8" ?>
<svg baseProfile="full" height="300mm" version="1.1" viewBox="0,0,200,300" width="200mm" xmlns="http://www.w3.org/2000/svg" xmlns:ev="http://www.w3.org/2001/xml-events" xmlns:xlink="http://www.w3.org/1999/xlink"><defs /><rect fill="#222222" height="300" width="200" x="0" y="0" /><text fill="#FFFFFF" style="font-size:12px; font-family:Arial; font-weight:bold;" x="10" y="20">Over 1km Runs</text><text fill="#FFFFFF" style="font-size:4px; font-family:Arial" x="10" y="280">ATHLETE</text><text fill="#FFFFFF" style="font-size:9px; font-family:Arial" x="10" y="290">bjing</text><text fill="#FFFFFF" style="font-size:4px; font-family:Arial" x="120" y="280">STATISTICS</text><text fill="#FFFFFF" style="font-size:3px; font-family:Arial" x="120" y="285">Number: 3</text><text fill="#FFFFFF" style="font-size:3px; font-family:Arial" x="120" y="290">Weekly: 1.5</text><text fill="#FFFFFF" style="font-size:3px; font-family:Arial" x="141" y="285">Total: 5.5 km</text><text fill="#FFFFFF" style="font-size:3px; font-family:Arial" x="141" y="290">Avg: 1.8 km</text><text fill="#FFFFFF" style="font-size:3px; font-family:Arial" x="167" y="285">Min: 1.3 km</text><text fill="#FFFFFF" style="font-size:3px; font-family:Arial" x="167" y="290">Max: 2.7 km</text><polyline fill="none" points="72.63831775635481,76.05407961085439 67.18785046599805,71.83869184996001 62.94859812967479,69.0284275743179 57.80093457829207,66.21815868280828 48.56542056053877,59.71939419594128 39.93551401793957,54.80139385396615 35.99906541965902,51.63981474167667 30.851401868276298,49.3564484170638 26.612149531953037,48.30258600844536 24.189719625748694,46.89743512135465 23.735514017753303,46.72179117961787 23.12990654166788,47.42436683923006 21.464485980570316,50.234666594769806 18.133644859306514,55.1526800612919 14.5,62.178389066364616 14.954205606132746,63.407885176711716 16.619626167230308,64.8130225064233 19.496261681430042,65.86687474686187 23.43271027971059,68.15021904138848 26.309345793910325,71.13612621382345 27.974766354076564,72.54125719796866 33.27383177541196,75.35151570511516 42.50934579409659,81.3232997097075 50.98785046674311,85.71430406498257 53.410280372947454,87.47070265258662 55.83271028008312,89.57837857783306 57.95233644824475,90.45657611393835 60.98037383146584,92.91552681778558 63.55420560669154,93.26680520141963 73.24392523244023,98.71161092550028 79.29999999888241,102.57565609109588 83.38785046711564,103.27820882026572 84.9018691573292,102.75129430054221 86.41588785033673,101.87310307333246 87.32429906446487,100.64363459905144 87.77850467246026,100.81927300593816 88.08130841050297,100.4679961730726 89.14112149458379,98.71161092550028 91.86635513883084,96.07702967373189 92.7747663538903,93.44244436640292 95.34859813004732,90.10529715381563 95.5,89.57837857783306 95.5,89.22709943715017 94.13738317694515,88.52454093983397 91.41214953176677,88.17326158296783 89.44392523355782,86.4168637166731 88.38411214854568,83.9579036750365 87.02149532642215,82.72842232917901 82.17663551308215,80.79637842997909 78.9971962608397,78.5130510092713 69.61028037313372,72.71689848951064" stroke="#4dd2ff" stroke-linecap="round" stroke-linejoin="round" stroke-width="0.5"><title>2022-05-23 1.3km</title></polyline><polyline fill="none" points="104.5,41.56198206252884 105.95945945940912,42.408544657344464 107.5,42.97291928617051 109.28378378367051,44.289792068244424 111.47297297324985,44.57197884673951 112.52702702675015,45.04228995129233 113.58108108118176,47.29977989330655 114.1486486485228,47.95821341214469 115.20270270248875,48.710708283178974 116.41891891881824,50.497881125309505 117.31081081088632,51.43849701090949 120.22972972970456,52.37911193090258 120.71621621632949,52.75535762863001 122.5,53.03754180052783 124.36486486485228,53.60190988378599 128.98648648662493,55.765317649696954 129.71621621632949,55.671256548841484 130.12162162130699,56.14156195736723 131.66216216236353,56.98811108461814 132.39189189160243,57.08217205031542 133.36486486485228,57.552476735028904 135.1486486485228,59.05745010386454 138.1486486485228,61.220844991505146 139.44594594603404,62.537691553414334 141.63513513468206,63.760475952527486 143.98648648615927,65.35949924349552 146.58108108118176,67.80505888035987 146.66216216189787,67.42881936085178 147.63513513468206,67.80505888035987 149.2567567564547,68.08723841840401 150.22972972970456,68.46347766753752 153.71621621632949,70.43873119156342 155.74324324307963,71.94368339981884 157.04054054059088,72.50803984096274 158.1756756757386,73.35457385121845 160.04054054059088,73.82487018534448 161.49999999953434,73.73081093782093 163.44594594603404,74.29516627860721 168.31081081088632,75.23575774085475 175.20270270248875,76.928819940018 177.4729729727842,77.21099666930968 178.44594594603404,77.68129102489911 183.55405405396596,78.71593775768997 185.01351351384073,79.28029002860421 185.33783783763647,79.65652468317421 185.5,80.59711064310977 185.1756756757386,81.63175408443203 184.77027027029544,82.47827966761542 184.85135135101154,83.79509568738285 184.77027027029544,84.4535029878607 182.1756756757386,88.40393685846357 180.71621621586382,91.41377980768448 178.85135135101154,93.85926992649911 178.20270270248875,95.64635473309318 176.25675675692037,98.46806049189763 175.28378378413618,100.91353178955615 174.39189189160243,102.32437764725182 173.58108108118176,104.01738981017843 172.93243243265897,105.24011887196684 172.04054054059088,106.36879040428903 171.63513513514772,107.21529314154759 170.98648648662493,108.43801793747116" stroke="#4dd2ff" stroke-linecap="round" stroke-linejoin="round" stroke-width="0.5"><title>2022-05-21 1.5km</title></polyline><polyline fill="none" points="95.5,225.00022058893228 94.44462540745735,224.08195436320966 93.38925081421621,223.6228208260727 92.53175895777531,223.0871646757587 91.01465798052959,221.55671641073423 90.42100977199152,221.3271489001927 88.96986970701255,220.94453622517176 88.0464169383049,219.87321969069308 86.99104234552942,219.33756084612105 85.93566775252111,218.41928764566546 85.27605863194913,218.18971916870214 84.2866449514404,217.424490401987 81.38436482078396,216.04707664233865 79.6693811074365,214.66966033767676 78.35016286629252,214.28704424609896 75.77768729650415,212.29743740300182 74.98615635163151,211.45567906321958 73.60097719868645,210.76696698722662 71.42426710086875,210.23130159941502 70.83061889233068,210.53739615384256 68.58794788271189,212.83310130616883 66.47719869716093,214.59313713514712 64.56433224747889,217.27144455420785 63.9047231269069,217.96015062113293 63.113192182267085,218.49581045546802 62.18973941355944,218.87842438719235 60.870521172415465,220.8680136667681 59.74918566760607,221.7862838509609 59.22149837133475,222.85759763634996 58.16612377832644,223.1636870066286 57.63843648205511,223.54629854264203 54.27442996716127,226.8367496469873 52.691368078347296,228.1376216590288 51.30618892493658,229.6680564143462 49.723127035889775,231.73413835052634 48.14006514661014,233.1115231270087 47.018729641800746,234.71846881665988 45.237785016419366,236.4019320148509 44.71009771991521,237.01409950805828 43.19299674243666,238.16191220312612 42.66530944616534,238.92711968469666 42.20358306192793,239.23320245742798 41.47801302932203,240.15145002154168 40.3566775242798,241.14621694001835 39.23534201947041,242.37054363288917 38.31188925076276,243.0592265140731 37.98208469059318,243.13574679481098 37.520358306122944,242.90618592879036 34.815960912033916,241.3757783480105 33.10097719868645,240.5340528395609 30.066775244195014,238.085391411616 29.341205211821944,237.77930816769367 27.692182410508394,236.86105768190464 26.438925081398338,236.47845297894673 25.911237784894183,235.94280606496613 24.855863192351535,235.63672194158426 23.86644951137714,235.17759552050848 21.62377850152552,233.41760828741826 19.381107491906732,232.1932668921654 16.676710097817704,230.35675102903042 14.5,229.20892631757306 16.14902280131355,230.96892348624533 19.776872964343056,232.9584804996848 21.8216612378601,234.48890535888495 22.41530944639817,235.10107442294247 23.536644951207563,235.7132429840858 25.251628664555028,237.2436621884117 26.900651465868577,238.085391411616 28.81351791531779,238.85059897170868 29.934853420360014,239.53928510437254 30.462540716631338,239.6158057465218 32.37540716631338,238.16191220312612 33.69462540722452,236.47845297894673 36.464983713347465,234.02977823087713 38.31188925076276,232.04022407642333 38.707654722966254,231.12196652207058 39.16938110743649,230.50979419070063 40.42263843654655,229.5150130802067 42.07166123762727,228.36718707252294 44.90798045601696,225.84196363546653 47.08469055406749,223.3932539516827 50.316775244427845,220.33235553686973 53.48289902275428,217.88362775638234 55.659609120571986,215.58793815691024 56.91286644944921,214.36356748011895 58.495928338728845,213.21571814414347 59.683224755572155,211.5322025878122 60.80456026061438,210.38434889225755 61.5960912052542,210.00173060107045 62.58550488599576,209.0069221246522 63.24511400680058,208.70082694204757 64.10260586324148,208.54777930339333 66.14739413675852,207.09382516995538 66.93892508139834,206.86425320524722 71.42426710086875,209.3130171818775 72.74348534201272,210.53739615384256 74.06270358315669,211.30263199011097 75.51384364813566,212.4504842715105" stroke="#4dd2ff" stroke-linecap="round" stroke-linejoin="round" stroke-width="0.5"><title>2022-05-18 2.7km</title></polyline></svg>