<?xml version="1.0" encoding="utf-8" ?>
<svg baseProfile="full" height="300mm" version="1.1" viewBox="0,0,200,300" width="200mm" xmlns="http://www.w3.org/2000/svg" xmlns:ev="http://www.w3.org/2001/xml-events" xmlns:xlink="http://www.w3.org/1999/xlink"><defs /><rect fill="#222222" height="300" width="200" x="0" y="0" /><text fill="#FFFFFF" style="font-size:12px; font-family:Arial; font-weight:bold;" x="10" y="20">Over 1km Runs</text><text fill="#FFFFFF" style="font-size:4px; font-family:Arial" x="10" y="280">ATHLETE</text><text fill="#FFFFFF" style="font-size:9px; font-family:Arial" x="10" y="290">bjing</text><text fill="#FFFFFF" style="font-size:4px; font-family:Arial" x="120" y="280">STATISTICS</text><text fill="#FFFFFF" style="font-size:3px; font-family:Arial" x="120" y="285">Number: 10</text><text fill="#FFFFFF" style="font-size:3px; font-family:Arial" x="120" y="290">Weekly: 2.5</text><text fill="#FFFFFF" style="font-size:3px; font-family:Arial" x="141" y="285">Total: 16.3 km</text><text fill="#FFFFFF" style="font-size:3px; font-family:Arial" x="141" y="290">Avg: 1.6 km</text><text fill="#FFFFFF" style="font-size:3px; font-family:Arial" x="167" y="285">Min: 1.0 km</text><text fill="#FFFFFF" style="font-size:3px; font-family:Arial" x="167" y="290">Max: 2.7 km</text><polyline fill="none" points="25.076678371056914,33.0 26.902161139063537,34.37650569132529 28.545095630921423,35.22358520398848 30.553126675542444,36.49420316866599 31.83096461277455,36.917742142337374 34.20409221155569,38.188358020968735 38.31142843933776,41.153122318326496 41.96239397581667,42.74138540180866 43.42278019012883,43.906110109062865 48.16903538722545,46.447323088301346 50.724711262620986,47.92969443555921 54.010580244939774,49.62383051041979 54.74077335232869,50.153247463167645 54.923321628943086,50.47089750482701 54.83204749086872,51.31796380376909 54.101854383479804,52.270912558422424 52.18509747693315,53.32974347611889 50.907259539701045,54.388573306961916 48.35158366430551,56.9297604681924 45.613359512295574,59.4709413703531 38.76779913157225,66.24739317956846 37.03359050210565,67.72973607981112 35.39065601071343,69.52972102479544 34.38664048817009,70.37677167728543 29.7316594296135,74.9296570190927 26.902161139063537,77.57667414587922 26.171968032140285,78.52959864889272 26.354516308754683,79.48252227238845 27.906176661606878,81.2824867151212 33.93026979640126,84.77652637590654 36.21212325664237,86.36472231068183 36.759768086485565,86.47060195275117 38.31142843933776,86.25884265766945 40.6845560381189,85.41180504322983 41.049652591813356,85.51768478297163 42.78386122127995,87.0 43.331506052054465,86.89412041229662 43.69660260574892,86.47060195275117" stroke="#4dd2ff" stroke-linecap="round" stroke-linejoin="round" stroke-width="0.5"><title>2022-06-28 1.0km</title></polyline><polyline fill="none" points="79.46929858834483,87.0 81.27136642369442,84.83410213590832 84.03882774244994,82.96694362431299 85.06858079112135,82.14539235952543 86.29141253675334,80.87572039640509 88.35091863456182,77.88824820471928 89.76682907668874,74.30326536454959 90.60350342886522,73.03357970149955 93.04916692012921,68.55231845442904 94.14327953453176,67.05855856498238 96.46022389433347,64.1457179497811 98.00485346792266,62.427883395925164 99.74256173754111,60.71004478173563 104.18337176088244,56.60215336957481 106.17851829295978,54.36147553951014 107.72314786654897,52.41954916494433 108.23802439076826,51.97141157236183 110.36189005430788,49.28258021362126 111.19856440648437,47.78878071537474 112.87191311083734,45.54807571042329 114.0303852907382,43.382054305053316 114.67398094641976,41.58947998343501 115.57501486409456,38.527155287680216 116.60476791276596,36.65987779822899 117.5701613961719,35.39012636465486 118.47119531384669,34.419138477242086 119.43658879725263,33.52284081414109 120.53070141165517,33.0 120.01582488743588,33.07469156791922 118.92171227303334,34.045681251969654 118.53555487957783,34.269755610090215 118.08503792039119,34.71790411911206 116.54040834750049,36.80926017416641 115.96117225731723,37.332098247192334 115.6393744298257,37.929627013159916 115.57501486409456,38.60184628755087 115.25321703637019,39.796901239897124 114.28782355296426,42.26169587217737 113.38678963528946,44.054268535343 113.00063224183396,45.02524354844354 111.26292397198267,47.340640267240815 109.65393483289517,47.8634707632591 107.85186699754559,48.983820559456944 104.4408100231085,50.85106638201978 101.2871913111303,52.120790800778195 98.45537042641081,53.83864971838193 95.88098780438304,54.884300984384026" stroke="#4dd2ff" stroke-linecap="round" stroke-linejoin="round" stroke-width="0.5"><title>2022-06-15 1.5km</title></polyline><polyline fill="none" points="137.72509745205753,87.0 138.58182447310537,85.32566741813207 139.43855149438605,84.06991436937824 140.88146016118117,82.70951173908543 142.32436882820912,81.0351650515804 143.27127764117904,80.09334262064658 143.9476410788484,79.62243075223523 144.714186308207,78.73292936795042 145.4807315375656,78.20969253385556 147.37454916303977,77.21554106788244 149.13309410121292,76.01209195997217 150.440730080707,74.8609640650975 150.80145724723116,74.39004735817434 151.43272978928871,74.1284267771407 151.70327516435646,73.8668060618511 152.65018397709355,72.76799758989364 153.05600203969516,72.45405187664437 153.6872745815199,71.87848423316609 154.94981966516934,69.94247920362977 155.4007286238484,69.47155794838909 155.80654668645002,68.52971413146588 156.30254654074088,67.74484295331058 156.57309191580862,67.01229542901274 157.20436445763335,66.0181221034145 157.61018252000213,65.02394683670718 157.97090968722478,63.76814372561057 158.2865459579043,62.983265208575176 159.09818208310753,61.7274570648442 159.3687274584081,60.94257540232502 160.1352726877667,59.68676222593058 160.5861816459801,59.215831486391835 161.21745418803766,58.430945952568436 162.47999927168712,57.27977831455064 165.5010892932769,55.18673957785359 166.04218004341237,54.45417398749851 166.6734525852371,53.355323625786696 167.75563408550806,50.89598327115527 168.7476337943226,48.959898465516744 169.01817916939035,48.54128456665785 169.24363364861347,48.3843042657827 169.73963350290433,47.12846011691727 170.7316332112532,45.715631747065345 171.2276330657769,44.82607113264385 173.8879959208425,41.84341537789442 176.6385405671317,39.488674808468204 177.22472221334465,38.913069901871495 177.7207220676355,38.12815307130222 179.5694487974979,36.558315779984696 180.3810849224683,35.51175489689922 181.01235746429302,34.88381733428105 182.18472075625323,33.26164171320852 182.27490254794247,33.0 182.1396298604086,33.05232835345669 181.77890269388445,33.41862667669193" stroke="#4dd2ff" stroke-linecap="round" stroke-linejoin="round" stroke-width="0.5"><title>2022-06-13 1.5km</title></polyline><polyline fill="none" points="23.8888036608696,147.0 24.574386483756825,140.42190802039113 24.44973506173119,137.24127010273514 24.574386483756825,135.65094576228876 24.82368932850659,134.6389193139039 25.01066646235995,134.20519324834459 25.135317884618416,133.19316472444916 25.38462072913535,132.25342265120707 26.444157819263637,129.50647710013436 27.44136919802986,128.13300031021936 28.251603443175554,127.33782831410645 29.685094800544903,125.38603870209772 30.55765475681983,124.66315228905296 31.554866135818884,124.1571313586901 32.55207751435228,123.43424368550768 33.73626602673903,122.20533293945482 34.48417456075549,121.77159922360443 35.23208309500478,121.04870910389582 37.03952871914953,119.67521583393682 38.72232292080298,118.01256250514416 39.65720858843997,117.43424738460453 40.467442833818495,117.1450896463939 41.028374234447256,116.34990525478497 42.58651701407507,114.75953377998667 45.079545461107045,113.09686885587871 46.575362528907135,111.5064900413854 47.82187675265595,110.63900917535648 49.317693820921704,109.12091509101447 49.6293223768007,108.54259267495945 52.122350823832676,105.50639220606536 53.80514502548613,102.68705148791196 54.24142500385642,101.16894027631497 54.61537927086465,100.44602902635233 55.051659249002114,99.28936948382761 55.986544916639104,96.10854595486308 56.04887062800117,95.3856295144069 55.986544916639104,94.44583703327226 56.1111963391304,93.0" stroke="#4dd2ff" stroke-linecap="round" stroke-linejoin="round" stroke-width="0.5"><title>2022-05-29 1.0km</title></polyline><polyline fill="none" points="100.69740001892205,93.0 100.58307214686647,93.26525349883013 99.71418031991925,94.72414287712309 99.16540653456468,95.81167323840782 98.22791798447724,97.29707316830172 96.42153760732617,108.35772922702017 100.72026559326332,115.20077586499974 101.29190495319199,115.86385215373593 102.20652792893816,117.216522509465 102.54951154475566,117.85307081631618 104.19583290116861,120.42577092270949 105.11045587691478,121.91102943167789 105.15618702559732,122.07016376583488 105.13332145125605,122.52104384748964 105.20191817451268,122.8393116670486 105.43057391839102,123.44932389288442 105.77355753432494,125.22630782649503 106.00221327820327,125.88935840444174 106.02507885266095,126.47284150664927 105.97934770374559,127.24197631145944 105.7049608110683,128.67415226541925 105.29338047199417,129.97371247012052 104.74460668652318,131.03457310135127 104.31016077299137,131.72413017766667 103.89858043403365,132.1749934256659 103.37267222290393,132.83802618598565 102.48091482149903,133.6867056383635 100.99465248605702,134.82711426645983 97.86206879408564,137.39964549406432 96.78738679760136,138.35439284035238 96.12428514030762,139.07045103685232 95.5983769291779,139.73346611767192 95.11819986684714,140.4495204956038 94.93527527176775,140.79428671125788 94.59229165583383,141.8020622447657 94.34077033749782,142.88939460008987 94.29503918881528,143.28719797806116 94.29503918881528,144.3480039946444 94.22644246555865,145.43532564604538 93.97492114733905,146.9469603463658 94.06638344482053,147.0 94.11211459361948,146.9204405155324" stroke="#4dd2ff" stroke-linecap="round" stroke-linejoin="round" stroke-width="0.5"><title>2022-05-29 2.6km</title></polyline><polyline fill="none" points="182.25744272209704,93.0 182.08026904892176,93.10276480700122 181.15010726358742,94.02764712218777 180.6185862433631,94.84976330137579 178.84684950928204,96.64813773729838 177.03081935667433,98.34374200398452 175.74631022429094,99.6282868681592 173.0001182865817,102.76256250712322 172.38001042953692,103.37913901210413 171.93707624590024,103.63604566507274 171.13979471568018,104.61228974422556 170.25392634887248,105.38300740972045 168.0392554309219,107.84929596766597 165.4702371666208,110.46971425114316 162.90121890208684,113.29564016955555 159.75638619903475,116.58397025399609 158.91481125028804,117.61156897715409 157.80747579154558,118.690545367077 154.4854694150854,122.4926341167884 153.02378660952672,124.2909092810005 151.73927747714333,126.19193600473227 150.67623543692753,127.32227279778454 149.1702592128422,129.4288027411676 148.5058579375036,130.1994822138222 147.841456662165,131.32980996204424 147.26564222364686,132.1004865092982 146.11401334637776,133.84734895950533 145.6267857446801,134.4638871930656 140.2229887053836,143.04396549984813 139.55858743027784,143.96875558409374 137.74255727767013,147.0" stroke="#4dd2ff" stroke-linecap="round" stroke-linejoin="round" stroke-width="0.5"><title>2022-05-25 1.5km</title></polyline><polyline fill="none" points="62.29305822192691,153.0 61.90003662742674,153.1013188517536 60.808309975778684,154.26648415232194 60.76464090985246,154.4184620323649 60.15327398525551,155.22900993490475 59.323561729863286,155.9382382578915 58.84320200327784,156.59680650255177 57.66413721977733,157.76196355221327 56.703417766606435,158.57250596466474 56.004712709691375,159.38304704625625 55.48068391694687,159.78831708800863 55.17500045453198,160.24424548714887 53.12255434994586,162.57453961772262 52.24917302886024,163.38507412790204 51.81248236820102,163.58770754767465 51.11377731128596,164.55021515500266 50.24039599020034,165.31008825622848 47.969604555284604,167.94430595132872 47.62025202671066,168.14693749934668 46.659532573539764,169.1600939927157 45.873489384772256,169.8693023006781 44.73809366696514,171.1864007410186 43.99571954412386,171.89560613810318 42.90399289270863,173.21269917220343 42.554640364367515,173.4153285578941 41.768597175134346,174.42847423875355 41.06989211845212,175.087017816375 40.37118706153706,175.84687469882192 39.93449640087783,176.30278826705762 38.97377694770694,177.4678988060332 37.88205029629171,178.48103617000743 36.746654578717425,179.8994249868265 35.56758979521692,181.16584012960084 34.039172483142465,182.9388158720103 33.122122096130624,184.05325450820965 32.86010769987479,184.6104728829232 31.899388246471062,185.9275319960725 31.200683189556003,186.63671621694812 30.327301868470386,187.80180236857268 29.75960400979966,188.51098389722756 29.628596811788157,188.8149185263028 29.0608989528846,189.52409859967884 28.886222688714042,189.62540995550808 28.66787735838443,189.9293438984605 27.96917230146937,191.09442228008993 27.488812574883923,191.65163270788617 27.401474442798644,191.95556540362304 27.095790980383754,192.3101533120498 26.309747791616246,193.5258813505061 25.829388064565137,193.98177859323914 25.392697404138744,194.8935718156281 25.087013941723853,195.29881270730402 24.824999545468017,195.7547083128593 23.64593476196751,197.5276316664822 22.204855581978336,199.95905905609834 21.724495855392888,200.516259479773 21.33147426089272,201.32673170094495 20.54543107189238,202.5424375384464 20.02140227914788,203.20094361712108 18.274639636976644,206.13888311499613 17.83794897631742,206.8480383057904 17.706941778305918,206.89869220912806 17.794279910391197,206.8480383057904 17.881618042476475,207.0 17.92528710863553,206.9493461070524 18.056294306879863,206.5947687117441" stroke="#4dd2ff" stroke-linecap="round" stroke-linejoin="round" stroke-width="0.5"><title>2022-05-25 1.6km</title></polyline><polyline fill="none" points="111.75887850485742,180.702719740686 108.12523364415392,177.8924612334231 105.29906542040408,176.01895171636716 101.86728971917182,174.1454391219886 95.71028037369251,169.81292946403846 89.9570093457587,166.53426256938837 87.33271028008312,164.426543161273 83.90093457931653,162.904298944748 81.07476635463536,162.20172400574666 79.45981308398768,161.26495674764737 79.15700934547931,161.14786078652833 78.7532710279338,161.6162445595255 77.64299065386876,163.48977772996295 75.42242990620434,166.7684533742722 73.0,171.45225937769283 73.30280373804271,172.27192345121875 74.41308411210775,173.20868167106528 76.33084112172946,173.91124983131886 78.95514018647373,175.43347936100326 80.87289719609544,177.42408414266538 81.98317756969482,178.36083813209552 85.51588785042986,180.23434380348772 91.67289719590917,184.2155331398826 97.32523364480585,187.14286937681027 98.94018691545352,188.3138017684687 100.55514018703252,189.71891905204393 101.96822429914027,190.3043840760365 103.98691588779911,191.9436845452292 105.70280373841524,192.17787013435736 112.16261682193726,195.8077406170778 116.1999999997206,198.38377072755247 118.92523364489898,198.8521392135881 119.93457943899557,198.50086286710575 120.94392523355782,197.91540204896592 121.5495327101089,197.09575639944524 121.85233644861728,197.21284867066424 122.0542056071572,196.97866411553696 122.76074766321108,195.8077406170778 124.57757009286433,194.05135311593767 125.18317756988108,192.2949629110517 126.89906542003155,190.07019810262136 127.0,189.71891905204393 127.0,189.48473295825534 126.09158878494054,189.0163606266724 124.27476635482162,188.78217438876163 122.96261682221666,187.6112424778985 122.25607476569712,185.9719357835129 121.34766355110332,185.15228155290242 118.11775700887665,183.86425228673033 115.99813084071502,182.34203400625847 109.74018691526726,178.47793232637923" stroke="#4dd2ff" stroke-linecap="round" stroke-linejoin="round" stroke-width="0.5"><title>2022-05-23 1.3km</title></polyline><polyline fill="none" points="133.0,157.7079880417441 133.97297297301702,158.27236310497392 135.0,158.6486128575052 136.18918918888085,159.5265280455351 137.6486486485228,159.71465256455122 138.35135135124438,160.02819330088096 139.05405405396596,161.5331865955959 139.4324324321933,161.97214227478253 140.1351351349149,162.47380552213872 140.94594594556838,163.66525408357847 141.54054054035805,164.29233134066453 143.4864864863921,164.91940795397386 143.81081081088632,165.17023841914488 144.99999999976717,165.3583612003713 146.24324324307963,165.73460658919066 149.3243243242614,167.1768784331507 149.8108108106535,167.1141710326192 150.08108108094893,167.42770797159756 151.1081081079319,167.9920740564703 151.594594594324,168.05478136695456 152.24324324307963,168.3683178233914 153.4324324321933,169.37163340259576 155.4324324321933,170.81389666104224 156.29729729727842,171.6917943690205 157.7567567564547,172.50698396837106 159.3243243242614,173.5729994957219 161.05405405396596,175.20337258692598 161.1081081079319,174.95254624058725 161.7567567564547,175.20337258692598 162.83783783763647,175.3914922789554 163.4864864863921,175.64231844508322 165.8108108106535,176.95915412774775 167.16216216189787,177.96245559991803 168.02702702675015,178.3386932273279 168.78378378390335,178.90304923418444 170.02702702698298,179.2165801235824 170.99999999976717,179.1538739585667 172.29729729727842,179.5301108524436 175.54054054059088,180.1571718272753 180.1351351349149,181.2858799600508 181.6486486485228,181.473997779598 182.29729729727842,181.78752734995214 185.70270270272158,182.4772918384988 186.6756756757386,182.85352668579435 186.89189189160243,183.1043497888022 187.0,183.73140709544532 186.78378378367051,184.42116938967956 186.5135135136079,184.9855197784491 186.56756756734103,185.8633971249219 186.5135135136079,186.30233532527927 184.78378378367051,188.93595790566178 183.8108108106535,190.94251987180905 182.56756756734103,192.57284661766607 182.1351351349149,193.764236488787 180.83783783763647,195.6453736613039 180.18918918911368,197.2756878597429 179.59459459455684,198.21625176491216 179.05405405396596,199.34492654015776 178.62162162153982,200.1600792480167 178.02702702698298,200.9125269362121 177.75675675668754,201.47686209442327 177.3243243242614,202.2920119583141" stroke="#4dd2ff" stroke-linecap="round" stroke-linejoin="round" stroke-width="0.5"><title>2022-05-21 1.5km</title></polyline><polyline fill="none" points="67.0,240.00014705926878 66.2964169383049,239.3879695754731 65.59283387614414,239.08188055071514 65.02117263851687,238.7247764504864 64.00977198709734,237.70447760715615 63.614006514661014,237.55143260009936 62.64657980483025,237.29635748342844 62.03094462561421,236.58214646045235 61.32736156368628,236.2250405640807 60.62377850175835,235.61285843042424 60.184039088198915,235.45981277912506 59.52442996762693,234.94966026797192 57.589576547266915,234.03138442820637 56.44625407177955,233.1131068917748 55.566775244427845,232.8580294973799 53.85179153108038,231.53162493533455 53.324104234576225,230.97045270877425 52.40065146586858,230.51131132480805 50.949511400656775,230.15420106626698 50.55374592845328,230.3582641025423 49.058631921885535,231.88873420411255 47.65146579826251,233.0620914234314 46.37622149847448,234.84762970279553 45.93648208468221,235.30676708073588 45.40879478817806,235.66387363697868 44.793159609194845,235.91894959143247 43.91368078184314,237.24534244451206 43.16612377855927,237.85752256729756 42.81433224771172,238.57173175754724 42.11074918578379,238.7757913377427 41.75895765493624,239.0308656950947 39.51628664485179,241.2244997646485 38.46091205230914,242.09174777267617 37.53745928336866,243.11203760956414 36.48208469059318,244.48942556700786 35.426710097817704,245.40768208468216 34.67915309453383,246.47897921109688 33.49185667769052,247.6012880099006 33.14006514684297,248.00939967200975 32.128664495190606,248.77460813542712 31.776872964343056,249.28474645642564 31.46905537461862,249.48880163830472 30.98534201970324,250.10096668102778 30.237785016186535,250.7641446266789 29.490228012902662,251.580362421897 28.87459283391945,252.0394843427057 28.654723127139732,252.09049786318792 28.346905537648126,251.93745728585054 26.543973941588774,250.91718556534033 25.400651465868577,250.35603522634483 23.377850162796676,248.72359427440097 22.894136807881296,248.51953877846245 21.794788273749873,247.90737178790732 20.959283387754112,247.6523019859451 20.607491856673732,247.29520404330106 19.903908794978634,247.09114796103677 19.244299674406648,246.78506368031958 17.7491856678389,245.61173885824974 16.254071661271155,244.7955112614436 14.451140065211803,243.57116735266754 13.0,242.80595087836264 14.099348534131423,243.97928232417325 16.517915309639648,245.30565366646624 17.881107491906732,246.3259369058942 18.276872964343056,246.73404961527558 19.02442996762693,247.14216198938084 20.167752443114296,248.16244145896053 21.26710097724572,248.72359427440097 22.542345277033746,249.23373264778638 23.28990228031762,249.69285673621926 23.64169381116517,249.7438704976812 24.916938110953197,248.77460813542712 25.7964169383049,247.6523019859451 27.643322475720197,246.0198521539278 28.87459283391945,244.69348271758645 29.138436482055113,244.08131101471372 29.44625407177955,243.67319612714346 30.28175895777531,243.0100087201281 31.381107491906732,242.24479138167226 33.27198697067797,240.56130909029162 34.723127036122605,238.92883596778847 36.87785016302951,236.88823702457012 38.988599348580465,235.25575183756882 40.43973941379227,233.72529210461653 41.2752442995552,232.90904498673626 42.33061889256351,232.14381209609564 43.122149837203324,231.0214683918457 43.8697068404872,230.25623259480926 44.39739413699135,230.00115373404697 45.05700325733051,229.33794808309176 45.496742671355605,229.1338846280123 46.06840390898287,229.03185286890948 47.43159609124996,228.06255011327448 47.95928338775411,227.90950213681208 50.949511400656775,229.542011454585 51.82899022800848,230.3582641025423 52.70846905536018,230.86842132671154 53.675895765423775,231.6336561810167" stroke="#4dd2ff" stroke-linecap="round" stroke-linejoin="round" stroke-width="0.5"><title>2022-05-18 2.7km</title></polyline></svg>