<?xml version="1.0" encoding="utf-8" ?>
<svg baseProfile="full" height="300mm" version="1.1" viewBox="0,0,200,300" width="200mm" xmlns="http://www.w3.org/2000/svg" xmlns:ev="http://www.w3.org/2001/xml-events" xmlns:xlink="http://www.w3.org/1999/xlink"><defs /><rect fill="#222222" height="300" width="200" x="0" y="0" /><text fill="#FFFFFF" style="font-size:12px; font-family:Arial; font-weight:bold;" x="10" y="20">Over 1km Runs</text><text fill="#FFFFFF" style="font-size:4px; font-family:Arial" x="10" y="280">ATHLETE</text><text fill="#FFFFFF" style="font-size:9px; font-family:Arial" x="10" y="290">bjing</text><text fill="#FFFFFF" style="font-size:4px; font-family:Arial" x="120" y="280">STATISTICS</text><text fill="#FFFFFF" style="font-size:3px; font-family:Arial" x="120" y="285">Number: 9</text><text fill="#FFFFFF" style="font-size:3px; font-family:Arial" x="120" y="290">Weekly: 3.0</text><text fill="#FFFFFF" style="font-size:3px; font-family:Arial" x="141" y="285">Total: 15.3 km</text><text fill="#FFFFFF" style="font-size:3px; font-family:Arial" x="141" y="290">Avg: 1.7 km</text><text fill="#FFFFFF" style="font-size:3px; font-family:Arial" x="167" y="285">Min: 1.0 km</text><text fill="#FFFFFF" style="font-size:3px; font-family:Arial" x="167" y="290">Max: 2.7 km</text><polyline fill="none" points="19.469298588344827,87.0 21.271366423694417,84.83410213590832 24.03882774244994,82.96694362431299 25.06858079112135,82.14539235952543 26.29141253675334,80.87572039640509 28.350918634561822,77.88824820471928 29.766829076688737,74.30326536454959 30.603503428865224,73.03357970149955 33.04916692012921,68.55231845442904 34.14327953453176,67.05855856498238 36.46022389433347,64.1457179497811 38.00485346792266,62.427883395925164 39.74256173754111,60.71004478173563 44.18337176088244,56.60215336957481 46.17851829295978,54.36147553951014 47.72314786654897,52.41954916494433 48.23802439076826,51.97141157236183 50.36189005430788,49.28258021362126 51.198564406484365,47.78878071537474 52.87191311083734,45.54807571042329 54.030385290738195,43.382054305053316 54.67398094641976,41.58947998343501 55.575014864094555,38.527155287680216 56.604767912765965,36.65987779822899 57.5701613961719,35.39012636465486 58.47119531384669,34.419138477242086 59.436588797252625,33.52284081414109 60.53070141165517,33.0 60.01582488743588,33.07469156791922 58.921712273033336,34.045681251969654 58.53555487957783,34.269755610090215 58.08503792039119,34.71790411911206 56.54040834750049,36.80926017416641 55.96117225731723,37.332098247192334 55.63937442982569,37.929627013159916 55.575014864094555,38.60184628755087 55.25321703637019,39.796901239897124 54.287823552964255,42.26169587217737 53.38678963528946,44.054268535343 53.000632241833955,45.02524354844354 51.26292397198267,47.340640267240815 49.653934832895175,47.8634707632591 47.851866997545585,48.983820559456944 44.4408100231085,50.85106638201978 41.2871913111303,52.120790800778195 38.45537042641081,53.83864971838193 35.88098780438304,54.884300984384026" stroke="#4dd2ff" stroke-linecap="round" stroke-linejoin="round" stroke-width="0.5"><title>2022-06-15 1.5km</title></polyline><polyline fill="none" points="77.72509745205753,87.0 78.58182447310537,85.32566741813207 79.43855149438605,84.06991436937824 80.88146016118117,82.70951173908543 82.32436882820912,81.0351650515804 83.27127764117904,80.09334262064658 83.94764107884839,79.62243075223523 84.71418630820699,78.73292936795042 85.48073153756559,78.20969253385556 87.37454916303977,77.21554106788244 89.13309410121292,76.01209195997217 90.440730080707,74.8609640650975 90.80145724723116,74.39004735817434 91.43272978928871,74.1284267771407 91.70327516435646,73.8668060618511 92.65018397709355,72.76799758989364 93.05600203969516,72.45405187664437 93.68727458151989,71.87848423316609 94.94981966516934,69.94247920362977 95.40072862384841,69.47155794838909 95.80654668645002,68.52971413146588 96.30254654074088,67.74484295331058 96.57309191580862,67.01229542901274 97.20436445763335,66.0181221034145 97.61018252000213,65.02394683670718 97.97090968722478,63.76814372561057 98.28654595790431,62.983265208575176 99.09818208310753,61.7274570648442 99.3687274584081,60.94257540232502 100.1352726877667,59.68676222593058 100.5861816459801,59.215831486391835 101.21745418803766,58.430945952568436 102.47999927168712,57.27977831455064 105.50108929327689,55.18673957785359 106.04218004341237,54.45417398749851 106.6734525852371,53.355323625786696 107.75563408550806,50.89598327115527 108.74763379432261,48.959898465516744 109.01817916939035,48.54128456665785 109.24363364861347,48.3843042657827 109.73963350290433,47.12846011691727 110.73163321125321,45.715631747065345 111.2276330657769,44.82607113264385 113.88799592084251,41.84341537789442 116.63854056713171,39.488674808468204 117.22472221334465,38.913069901871495 117.7207220676355,38.12815307130222 119.5694487974979,36.558315779984696 120.38108492246829,35.51175489689922 121.01235746429302,34.88381733428105 122.18472075625323,33.26164171320852 122.27490254794247,33.0 122.1396298604086,33.05232835345669 121.77890269388445,33.41862667669193" stroke="#4dd2ff" stroke-linecap="round" stroke-linejoin="round" stroke-width="0.5"><title>2022-06-13 1.5km</title></polyline><polyline fill="none" points="143.8888036608696,87.0 144.57438648375683,80.42190802039113 144.4497350617312,77.24127010273514 144.57438648375683,75.65094576228876 144.8236893285066,74.6389193139039 145.01066646235995,74.20519324834459 145.13531788461842,73.19316472444916 145.38462072913535,72.25342265120707 146.44415781926364,69.50647710013436 147.44136919802986,68.13300031021936 148.25160344317555,67.33782831410645 149.6850948005449,65.38603870209772 150.55765475681983,64.66315228905296 151.55486613581888,64.1571313586901 152.55207751435228,63.43424368550768 153.73626602673903,62.20533293945482 154.4841745607555,61.771599223604426 155.23208309500478,61.04870910389582 157.03952871914953,59.67521583393682 158.72232292080298,58.01256250514416 159.65720858843997,57.43424738460453 160.4674428338185,57.1450896463939 161.02837423444726,56.34990525478497 162.58651701407507,54.75953377998667 165.07954546110705,53.09686885587871 166.57536252890714,51.506490041385405 167.82187675265595,50.63900917535648 169.3176938209217,49.12091509101447 169.6293223768007,48.54259267495945 172.12235082383268,45.50639220606536 173.80514502548613,42.68705148791196 174.24142500385642,41.16894027631497 174.61537927086465,40.446029026352335 175.0516592490021,39.28936948382761 175.9865449166391,36.108545954863075 176.04887062800117,35.3856295144069 175.9865449166391,34.445837033272255 176.1111963391304,33.0" stroke="#4dd2ff" stroke-linecap="round" stroke-linejoin="round" stroke-width="0.5"><title>2022-05-29 1.0km</title></polyline><polyline fill="none" points="40.69740001892205,123.0 40.58307214686647,123.26525349883013 39.71418031991925,124.72414287712309 39.16540653456468,125.81167323840782 38.227917984477244,127.29707316830172 36.42153760732617,138.35772922702017 40.72026559326332,145.20077586499974 41.29190495319199,145.86385215373593 42.20652792893816,147.216522509465 42.54951154475566,147.85307081631618 44.195832901168615,150.4257709227095 45.110455876914784,151.9110294316779 45.15618702559732,152.07016376583488 45.13332145125605,152.52104384748964 45.201918174512684,152.8393116670486 45.43057391839102,153.44932389288442 45.77355753432494,155.22630782649503 46.00221327820327,155.88935840444174 46.025078852660954,156.47284150664927 45.97934770374559,157.24197631145944 45.704960811068304,158.67415226541925 45.29338047199417,159.97371247012052 44.744606686523184,161.03457310135127 44.31016077299137,161.72413017766667 43.89858043403365,162.1749934256659 43.37267222290393,162.83802618598565 42.48091482149903,163.6867056383635 40.99465248605702,164.82711426645983 37.862068794085644,167.39964549406432 36.78738679760136,168.35439284035238 36.12428514030762,169.07045103685232 35.5983769291779,169.73346611767192 35.118199866847135,170.4495204956038 34.93527527176775,170.79428671125788 34.59229165583383,171.8020622447657 34.340770337497815,172.88939460008987 34.29503918881528,173.28719797806116 34.29503918881528,174.3480039946444 34.22644246555865,175.43532564604538 33.974921147339046,176.9469603463658 34.06638344482053,177.0 34.11211459361948,176.9204405155324" stroke="#4dd2ff" stroke-linecap="round" stroke-linejoin="round" stroke-width="0.5"><title>2022-05-29 2.6km</title></polyline><polyline fill="none" points="122.25744272209704,123.0 122.08026904892176,123.10276480700122 121.15010726358742,124.02764712218777 120.6185862433631,124.84976330137579 118.84684950928204,126.64813773729838 117.03081935667433,128.34374200398452 115.74631022429094,129.6282868681592 113.00011828658171,132.76256250712322 112.38001042953692,133.37913901210413 111.93707624590024,133.63604566507274 111.13979471568018,134.61228974422556 110.25392634887248,135.38300740972045 108.03925543092191,137.84929596766597 105.47023716662079,140.46971425114316 102.90121890208684,143.29564016955555 99.75638619903475,146.58397025399609 98.91481125028804,147.6115689771541 97.80747579154558,148.690545367077 94.48546941508539,152.4926341167884 93.02378660952672,154.2909092810005 91.73927747714333,156.19193600473227 90.67623543692753,157.32227279778454 89.17025921284221,159.4288027411676 88.5058579375036,160.1994822138222 87.841456662165,161.32980996204424 87.26564222364686,162.1004865092982 86.11401334637776,163.84734895950533 85.62678574468009,164.4638871930656 80.22298870538361,173.04396549984813 79.55858743027784,173.96875558409374 77.74255727767013,177.0" stroke="#4dd2ff" stroke-linecap="round" stroke-linejoin="round" stroke-width="0.5"><title>2022-05-25 1.5km</title></polyline><polyline fill="none" points="182.2930582219269,123.0 181.90003662742674,123.1013188517536 180.80830997577868,124.26648415232194 180.76464090985246,124.41846203236491 180.1532739852555,125.22900993490475 179.3235617298633,125.9382382578915 178.84320200327784,126.59680650255177 177.66413721977733,127.76196355221327 176.70341776660644,128.57250596466474 176.00471270969138,129.38304704625625 175.48068391694687,129.78831708800863 175.17500045453198,130.24424548714887 173.12255434994586,132.57453961772262 172.24917302886024,133.38507412790204 171.81248236820102,133.58770754767465 171.11377731128596,134.55021515500266 170.24039599020034,135.31008825622848 167.9696045552846,137.94430595132872 167.62025202671066,138.14693749934668 166.65953257353976,139.1600939927157 165.87348938477226,139.8693023006781 164.73809366696514,141.1864007410186 163.99571954412386,141.89560613810318 162.90399289270863,143.21269917220343 162.55464036436751,143.4153285578941 161.76859717513435,144.42847423875355 161.06989211845212,145.087017816375 160.37118706153706,145.84687469882192 159.93449640087783,146.30278826705762 158.97377694770694,147.4678988060332 157.8820502962917,148.48103617000743 156.74665457871743,149.8994249868265 155.56758979521692,151.16584012960084 154.03917248314247,152.9388158720103 153.12212209613062,154.05325450820965 152.8601076998748,154.6104728829232 151.89938824647106,155.9275319960725 151.200683189556,156.63671621694812 150.32730186847039,157.80180236857268 149.75960400979966,158.51098389722756 149.62859681178816,158.8149185263028 149.0608989528846,159.52409859967884 148.88622268871404,159.62540995550808 148.66787735838443,159.9293438984605 147.96917230146937,161.09442228008993 147.48881257488392,161.65163270788617 147.40147444279864,161.95556540362304 147.09579098038375,162.3101533120498 146.30974779161625,163.5258813505061 145.82938806456514,163.98177859323914 145.39269740413874,164.8935718156281 145.08701394172385,165.29881270730402 144.82499954546802,165.7547083128593 143.6459347619675,167.5276316664822 142.20485558197834,169.95905905609834 141.7244958553929,170.516259479773 141.33147426089272,171.32673170094495 140.54543107189238,172.5424375384464 140.02140227914788,173.20094361712108 138.27463963697664,176.13888311499613 137.83794897631742,176.8480383057904 137.70694177830592,176.89869220912806 137.7942799103912,176.8480383057904 137.88161804247648,177.0 137.92528710863553,176.9493461070524 138.05629430687986,176.5947687117441" stroke="#4dd2ff" stroke-linecap="round" stroke-linejoin="round" stroke-width="0.5"><title>2022-05-25 1.6km</title></polyline><polyline fill="none" points="51.75887850485742,240.702719740686 48.12523364415392,237.8924612334231 45.29906542040408,236.01895171636716 41.86728971917182,234.1454391219886 35.71028037369251,229.81292946403846 29.957009345758706,226.53426256938837 27.33271028008312,224.426543161273 23.900934579316527,222.904298944748 21.074766354635358,222.20172400574666 19.459813083987683,221.26495674764737 19.15700934547931,221.14786078652833 18.753271027933806,221.6162445595255 17.642990653868765,223.48977772996295 15.422429906204343,226.7684533742722 13.0,231.45225937769283 13.302803738042712,232.27192345121875 14.413084112107754,233.20868167106528 16.330841121729463,233.91124983131886 18.955140186473727,235.43347936100326 20.872897196095437,237.42408414266538 21.983177569694817,238.36083813209552 25.515887850429863,240.23434380348772 31.672897195909172,244.2155331398826 37.32523364480585,247.14286937681027 38.94018691545352,248.3138017684687 40.55514018703252,249.71891905204393 41.968224299140275,250.3043840760365 43.986915887799114,251.9436845452292 45.70280373841524,252.17787013435736 52.16261682193726,255.8077406170778 56.1999999997206,258.3837707275525 58.92523364489898,258.8521392135881 59.93457943899557,258.50086286710575 60.94392523355782,257.9154020489659 61.549532710108906,257.09575639944524 61.85233644861728,257.21284867066424 62.0542056071572,256.97866411553696 62.76074766321108,255.8077406170778 64.57757009286433,254.05135311593767 65.18317756988108,252.2949629110517 66.89906542003155,250.07019810262136 67.0,249.71891905204393 67.0,249.48473295825534 66.09158878494054,249.0163606266724 64.27476635482162,248.78217438876163 62.96261682221666,247.6112424778985 62.25607476569712,245.9719357835129 61.347663551103324,245.15228155290242 58.11775700887665,243.86425228673033 55.99813084071502,242.34203400625847 49.74018691526726,238.47793232637923" stroke="#4dd2ff" stroke-linecap="round" stroke-linejoin="round" stroke-width="0.5"><title>2022-05-23 1.3km</title></polyline><polyline fill="none" points="73.0,217.7079880417441 73.97297297301702,218.27236310497392 75.0,218.6486128575052 76.18918918888085,219.5265280455351 77.6486486485228,219.71465256455122 78.35135135124438,220.02819330088096 79.05405405396596,221.5331865955959 79.43243243219331,221.97214227478253 80.13513513491489,222.47380552213872 80.94594594556838,223.66525408357847 81.54054054035805,224.29233134066453 83.4864864863921,224.91940795397386 83.81081081088632,225.17023841914488 84.99999999976717,225.3583612003713 86.24324324307963,225.73460658919066 89.3243243242614,227.1768784331507 89.81081081065349,227.1141710326192 90.08108108094893,227.42770797159756 91.10810810793191,227.9920740564703 91.59459459432401,228.05478136695456 92.24324324307963,228.3683178233914 93.43243243219331,229.37163340259576 95.43243243219331,230.81389666104224 96.29729729727842,231.6917943690205 97.7567567564547,232.50698396837106 99.3243243242614,233.5729994957219 101.05405405396596,235.20337258692598 101.10810810793191,234.95254624058725 101.7567567564547,235.20337258692598 102.83783783763647,235.3914922789554 103.4864864863921,235.64231844508322 105.81081081065349,236.95915412774775 107.16216216189787,237.96245559991803 108.02702702675015,238.3386932273279 108.78378378390335,238.90304923418444 110.02702702698298,239.2165801235824 110.99999999976717,239.1538739585667 112.29729729727842,239.5301108524436 115.54054054059088,240.1571718272753 120.13513513491489,241.2858799600508 121.6486486485228,241.473997779598 122.29729729727842,241.78752734995214 125.70270270272158,242.4772918384988 126.6756756757386,242.85352668579435 126.89189189160243,243.1043497888022 127.0,243.73140709544532 126.78378378367051,244.42116938967956 126.5135135136079,244.9855197784491 126.56756756734103,245.8633971249219 126.5135135136079,246.30233532527927 124.78378378367051,248.93595790566178 123.81081081065349,250.94251987180905 122.56756756734103,252.57284661766607 122.13513513491489,253.764236488787 120.83783783763647,255.6453736613039 120.18918918911368,257.2756878597429 119.59459459455684,258.21625176491216 119.05405405396596,259.34492654015776 118.62162162153982,260.1600792480167 118.02702702698298,260.9125269362121 117.75675675668754,261.47686209442327 117.3243243242614,262.2920119583141" stroke="#4dd2ff" stroke-linecap="round" stroke-linejoin="round" stroke-width="0.5"><title>2022-05-21 1.5km</title></polyline><polyline fill="none" points="187.0,240.00014705926878 186.2964169383049,239.3879695754731 185.59283387614414,239.08188055071514 185.02117263851687,238.7247764504864 184.00977198709734,237.70447760715615 183.614006514661,237.55143260009936 182.64657980483025,237.29635748342844 182.0309446256142,236.58214646045235 181.32736156368628,236.2250405640807 180.62377850175835,235.61285843042424 180.18403908819892,235.45981277912506 179.52442996762693,234.94966026797192 177.58957654726692,234.03138442820637 176.44625407177955,233.1131068917748 175.56677524442784,232.8580294973799 173.85179153108038,231.53162493533455 173.32410423457623,230.97045270877425 172.40065146586858,230.51131132480805 170.94951140065677,230.15420106626698 170.55374592845328,230.3582641025423 169.05863192188554,231.88873420411255 167.6514657982625,233.0620914234314 166.37622149847448,234.84762970279553 165.9364820846822,235.30676708073588 165.40879478817806,235.66387363697868 164.79315960919484,235.91894959143247 163.91368078184314,237.24534244451206 163.16612377855927,237.85752256729756 162.81433224771172,238.57173175754724 162.1107491857838,238.7757913377427 161.75895765493624,239.0308656950947 159.5162866448518,241.2244997646485 158.46091205230914,242.09174777267617 157.53745928336866,243.11203760956414 156.48208469059318,244.48942556700786 155.4267100978177,245.40768208468216 154.67915309453383,246.47897921109688 153.49185667769052,247.6012880099006 153.14006514684297,248.00939967200975 152.1286644951906,248.77460813542712 151.77687296434306,249.28474645642564 151.46905537461862,249.48880163830472 150.98534201970324,250.10096668102778 150.23778501618654,250.7641446266789 149.49022801290266,251.580362421897 148.87459283391945,252.0394843427057 148.65472312713973,252.09049786318792 148.34690553764813,251.93745728585054 146.54397394158877,250.91718556534033 145.40065146586858,250.35603522634483 143.37785016279668,248.72359427440097 142.8941368078813,248.51953877846245 141.79478827374987,247.90737178790732 140.9592833877541,247.6523019859451 140.60749185667373,247.29520404330106 139.90390879497863,247.09114796103677 139.24429967440665,246.78506368031958 137.7491856678389,245.61173885824974 136.25407166127115,244.7955112614436 134.4511400652118,243.57116735266754 133.0,242.80595087836264 134.09934853413142,243.97928232417325 136.51791530963965,245.30565366646624 137.88110749190673,246.3259369058942 138.27687296434306,246.73404961527558 139.02442996762693,247.14216198938084 140.1677524431143,248.16244145896053 141.26710097724572,248.72359427440097 142.54234527703375,249.23373264778638 143.28990228031762,249.69285673621926 143.64169381116517,249.7438704976812 144.9169381109532,248.77460813542712 145.7964169383049,247.6523019859451 147.6433224757202,246.0198521539278 148.87459283391945,244.69348271758645 149.1384364820551,244.08131101471372 149.44625407177955,243.67319612714346 150.2817589577753,243.0100087201281 151.38110749190673,242.24479138167226 153.27198697067797,240.56130909029162 154.7231270361226,238.92883596778847 156.8778501630295,236.88823702457012 158.98859934858046,235.25575183756882 160.43973941379227,233.72529210461653 161.2752442995552,232.90904498673626 162.3306188925635,232.14381209609564 163.12214983720332,231.0214683918457 163.8697068404872,230.25623259480926 164.39739413699135,230.00115373404697 165.0570032573305,229.33794808309176 165.4967426713556,229.1338846280123 166.06840390898287,229.03185286890948 167.43159609124996,228.06255011327448 167.9592833877541,227.90950213681208 170.94951140065677,229.542011454585 171.82899022800848,230.3582641025423 172.70846905536018,230.86842132671154 173.67589576542377,231.6336561810167" stroke="#4dd2ff" stroke-linecap="round" stroke-linejoin="round" stroke-width="0.5"><title>2022-05-18 2.7km</title></polyline></svg>