<?xml version="1.0" encoding="utf-8" ?>
<svg baseProfile="full" height="300mm" version="1.1" viewBox="0,0,200,300" width="200mm" xmlns="http://www.w3.org/2000/svg" xmlns:ev="http://www.w3.org/2001/xml-events" xmlns:xlink="http://www.w3.org/1999/xlink"><defs /><rect fill="#222222" height="300" width="200" x="0" y="0" /><text fill="#FFFFFF" style="font-size:12px; font-family:Arial; font-weight:bold;" x="10" y="20">Over 1km Runs</text><text fill="#FFFFFF" style="font-size:4px; font-family:Arial" x="10" y="280">ATHLETE</text><text fill="#FFFFFF" style="font-size:9px; font-family:Arial" x="10" y="290">bjing</text><text fill="#FFFFFF" style="font-size:4px; font-family:Arial" x="120" y="280">STATISTICS</text><text fill="#FFFFFF" style="font-size:3px; font-family:Arial" x="120" y="285">Number: 16</text><text fill="#FFFFFF" style="font-size:3px; font-family:Arial" x="120" y="290">Weekly: 1.8</text><text fill="#FFFFFF" style="font-size:3px; font-family:Arial" x="141" y="285">Total: 24.0 km</text><text fill="#FFFFFF" style="font-size:3px; font-family:Arial" x="141" y="290">Avg: 1.5 km</text><text fill="#FFFFFF" style="font-size:3px; font-family:Arial" x="167" y="285">Min: 1.0 km</text><text fill="#FFFFFF" style="font-size:3px; font-family:Arial" x="167" y="290">Max: 2.7 km</text><polyline fill="none" points="40.33123569795862,47.23190886597149 35.69736842112616,44.866569021949545 32.639016018249094,42.28619219129905 29.766018306836486,40.88848542061169 28.37585812387988,40.35090539720841 26.151601830963045,39.06071221479215 24.761441647540778,37.555484826210886 23.18592677358538,36.48032108147163 21.425057208165526,35.83522230538074 19.664187642745674,35.83522230538074 17.810640732757747,34.975089985411614 16.69851258583367,35.942738795652986 15.864416476339102,37.12541946093552 15.679061784874648,39.27574452199042 15.308352402877063,39.7058090044884 14.659610983915627,40.673453444615006 12.25,42.71625543816481 12.991418764460832,44.22147541039158 13.918192219920456,44.866569021949545 14.288901602383703,45.40414672845509 15.493707093875855,46.04923961183522 18.45938215125352,46.909362838370726 20.59096109867096,48.84463751572184 21.517734553664923,49.16718294750899 22.44450800959021,49.812273513525724 23.463958810083568,50.99493851931766 24.668764302507043,51.317483289400116 26.707665904425085,52.50014659552835 28.283180778380483,53.790323224966414 29.67334096133709,54.00535250909161 32.08295194525272,54.972983739571646 36.34610984008759,58.19841472012922 40.51659038895741,60.67123841261491 41.999427917879075,61.8538911587093 44.5017162472941,63.03654256951995 47.652745995204896,65.18681444134563 48.57951945113018,65.61686828604434 50.71109839854762,67.44459515623748 51.82322654500604,69.16480576817412 52.75,70.0249100147048" stroke="#4dd2ff" stroke-linecap="round" stroke-linejoin="round" stroke-width="0.5"><title>2022-09-28 1.1km</title></polyline><polyline fill="none" points="88.52499999990687,47.93224213481881 87.5124999997206,47.14917113154661 84.9250000002794,44.538930971873924 77.5,40.493048134609126 72.77499999990687,36.96920420683455 68.27499999990687,34.4894563293783 65.8000000002794,33.445350512862206 64.78750000009313,33.18432392482646 64.0,33.314837225712836 63.21249999990687,33.96740352839697 61.1875,38.01330712949857 59.83749999990687,40.36253557074815 57.25,44.9304673372535 60.96249999990687,49.49838269397151 66.13750000018626,52.239124031504616 75.25,58.24263203248847 80.20000000018626,60.85284406167921 84.81250000046566,63.854581271414645 88.1875,65.81223215593491 93.4750000005588,69.59701532009058 97.75,71.81567607517354" stroke="#4dd2ff" stroke-linecap="round" stroke-linejoin="round" stroke-width="0.5"><title>2022-09-14 1.1km</title></polyline><polyline fill="none" points="110.86242554779164,72.75 111.12219283450395,71.60494907747488 111.27805320662446,71.30361951648956 112.78470347076654,68.95324363413965 113.25228458712809,67.92871787038166 113.92767953313887,67.20552213751944 113.09642421500757,66.54259193351027 112.99251730018295,66.30152621940942 114.23940027714707,62.50472816918045 114.4991675640922,62.50472816918045 116.83707314613275,62.86632904096041 118.03200266580097,62.68552863301011 118.70739761157893,62.323927649937104 119.53865292971022,61.48019115708303 120.57772207725793,60.03378292085836 120.88944282126613,59.2503103055642 121.1492101084441,58.10523306496907 121.92851196881384,57.56282727693906 122.81172074424103,58.16550034371903 124.31837100815028,56.29721182381036 126.65627659019083,51.53606259537628 126.70823004748672,51.35525869950652 126.24064893112518,50.51150644919835 126.2926023886539,50.14989797078306 127.95511302445084,47.07621691538952 129.77348403260112,43.94225104118232 129.87739094765857,43.761444807460066 130.1891116918996,43.64090728730662 130.34497206378728,43.46010096085956 130.86450663767755,41.83284151717089 132.83873801818117,37.01130558218574 133.82585370820016,35.02241047669668 134.13757445244119,34.118365020200144 134.13757445244119,33.87728599680122 133.98171408032067,33.575937078217976 133.30631913454272,33.2745880051516 131.90357578522526,32.25" stroke="#4dd2ff" stroke-linecap="round" stroke-linejoin="round" stroke-width="0.5"><title>2022-08-14 1.0km</title></polyline><polyline fill="none" points="154.8511519995518,37.70080632576719 155.34901563543826,38.02568615443306 156.03357813495677,38.6393472343334 156.25139347556978,38.78373792106868 157.40270313376095,39.03642148009385 157.8383338151034,39.39739767822903 158.67847870080732,39.830568626959575 159.17634233669378,39.938861280854326 159.70532244991045,39.938861280854326 160.35876847221516,39.433495277684415 162.07017472048756,36.942752225120785 162.53692187927663,36.07640268089017 162.63027131103445,35.823716995219 163.37706676498055,34.56028584350133 163.43929971952457,34.27150094305398 163.62599858292378,33.7661267966032 163.93716335529462,33.40514481876744 164.18609517335426,33.18855545425322 164.3416775596561,32.57488486386137 164.87065767287277,32.28609833304654 165.15070596791338,32.25 165.39963778597303,32.35829498799285 165.64856960391626,32.53878656050074 166.17754971713293,32.827572883688845 166.39536505774595,33.044162470527226 167.14216051169205,33.36904660053551 168.1690042607952,34.09101025972632 168.63575141946785,34.66858012005105 168.97803266940173,34.84907050689799 170.56497300881892,35.6071291200642 171.00060369016137,35.751521051628515 171.2184190308908,35.751521051628515 171.74739914410748,36.004206789220916 171.8407485758653,36.184696490701754 172.02744743938092,36.365186099370476 173.64550425612833,37.26763275405392 174.2056008465588,37.70080632576719 174.92127982329112,37.664708548545605 175.07686220947653,37.736904099263484 175.6680752771208,38.24227254019934 176.2281718676677,38.567151868744986 176.72603550343774,39.0003238399222 177.28613209398463,39.325202468346106 177.7528792526573,39.722275939857354 178.00181107060052,39.86666618191521 178.21962641121354,40.15544648838113 179.89991618250497,41.20227311179042 180.0866150460206,41.34666274636402 180.1488480005646,41.49105232171132 180.1177315233508,41.92422069198801 179.89991618250497,41.99641536845593 179.86879970529117,42.0686100301682 179.80656675074715,42.35738852879149 179.4020525466185,42.64616679024766 178.84195595618803,44.01786029461073 178.49967470648699,44.48712263384368 178.18850993411615,45.13686945461086 178.00181107060052,45.858808958757436 178.03292754781432,46.43635949539021 177.90846163895912,47.086102715402376 177.7528792526573,47.23048993467819 177.037200275925,47.66365123676951 176.10370595857967,48.060715295083355 175.82365766330622,48.34948887414066 175.6369587997906,48.78264879831113 175.574725845363,49.14361499430379 175.35691050463356,49.68506359361345 175.35691050463356,50.22651135959313 175.13909516390413,50.76795829201001 174.89016334607732,51.128922450734535 174.54788209637627,51.34550076798769 174.0811349375872,51.8508496566501 173.67662073334213,52.50058287536376 173.17875709745567,53.511276607750915 172.99205823394004,54.124910671438556 172.77424289332703,54.70244763576193 172.7431264159968,54.99121576236212 172.8053593704244,55.53265536093386 172.77424289332703,55.71313504179125 172.89870880218223,56.07409412594279 172.49419459805358,57.62621396704344 172.43196164350957,57.69840542101883 171.65404971234966,58.42031914458494 171.06283664470538,58.81737106107175 170.59608948603272,59.03394464487792 169.94264346384443,59.070040229096776 169.0091491464991,58.78127545074676 168.66686789679807,58.78127545074676 168.48016903328244,58.92565786966588 168.1690042607952,59.43099586875178 168.04453835182358,59.8641421473294 168.04453835182358,60.87481472332729 167.95118892006576,61.307959224126535 168.01342187449336,61.81329380100942 167.92007244285196,62.39081814291421 167.17327698902227,63.61805422138423 166.39536505774595,65.56718507601181 165.8663849446457,66.07251353483298 165.49298721773084,66.14470325538423 165.2129389224574,66.00032379929326 165.05735653627198,65.60327999005676 164.96400710451417,65.56718507601181 164.83954119554255,65.67546980685438 164.65284233214334,66.07251353483298 163.99939630983863,66.28908265198697 164.4972599458415,66.39736716068 164.27944460499566,66.79441007386777 164.06162926438265,67.01097874666448 163.43929971952457,67.08316827463568 163.09701846982352,67.37192623849842 162.38133949309122,68.70742873818381 161.35449574387167,70.72872017559712 160.8566321079852,71.16185254426091 160.7943991534412,71.16185254426091 160.825515630655,71.45060716031003 160.54546733549796,72.0642099325778 160.38988494931255,72.20858690000023 159.61197301815264,72.64171744670602 159.2696917684516,72.67781163481413 158.74071165535133,72.4251522400009 158.3984304056503,72.4973406570789 158.30508097389247,72.67781163481413 157.8072173378896,72.75" stroke="#4dd2ff" stroke-linecap="round" stroke-linejoin="round" stroke-width="0.5"><title>2022-08-14 2.4km</title></polyline><polyline fill="none" points="13.747296133544296,137.75 15.47518754680641,135.92255058448063 17.304719631560147,133.50559243088355 19.286712723085657,131.44232742651366 20.760502457851544,129.37905501323985 22.99659722764045,127.13892229000339 24.11464461265132,125.66514599852962 26.60484106116928,123.13024193415185 27.417966432170942,122.48177630733699 28.434373145690188,121.06693967181491 29.29831885220483,120.24161669233581 30.670467915479094,118.7088708707015 32.19507798622362,117.47088087594602 35.396759134018794,113.87479957210599 37.073830211535096,112.34203676501056 39.56402665982023,109.33545168914134 42.562426464864984,106.3878039874835 44.0362161998637,104.73711466853274 44.64606022811495,104.14758161955979 46.119849962880835,102.3789788428112 47.39035835489631,101.25886093464214 48.35594473266974,100.25664832361508 49.82973446743563,98.8417569550802 51.252703866455704,97.25" stroke="#4dd2ff" stroke-linecap="round" stroke-linejoin="round" stroke-width="0.5"><title>2022-07-12 1.0km</title></polyline><polyline fill="none" points="90.78043853817508,97.25 87.08539017243311,102.6468304505106 86.3029093418736,103.50426534318831 85.60737082595006,104.56344755599275 85.30307272518985,105.16869350915658 76.91313937702216,116.66822492005304 76.30454317550175,117.62650705195847 76.00024507497437,118.43348002905259 75.6090046595782,118.78653028953704 75.30470655905083,119.24045168008888 74.69611035753042,119.79524392148596 72.95726406783797,122.3674543070374 72.04436976555735,123.57790159262368 70.65329273371026,125.89791721958318 69.95775421801955,126.90661624845234 69.17527338746004,128.47009564991458 67.65378288389184,131.29443292264477 67.65378288389184,131.8996459399932 67.21907131141052,132.55529253397253 67.0886578396894,133.11006973756594 66.56700395280495,133.56397789280163 66.30617700936273,133.86658309664926 65.13245576387271,136.2369840775791 64.2195614615921,137.75" stroke="#4dd2ff" stroke-linecap="round" stroke-linejoin="round" stroke-width="0.5"><title>2022-07-04 1.1km</title></polyline><polyline fill="none" points="111.30750877829269,97.25 112.67662085429765,98.28237926849397 113.90882172295824,98.91768890299136 115.41484500654042,99.87065237649949 116.37322345958091,100.18830660678213 118.15306915855035,101.14126851572655 121.23357132961974,103.36484173871577 123.97179548162967,104.5560390513856 125.06708514271304,105.42958258179715 128.6267765404191,107.33549231622601 130.54353344696574,108.44727082672762 133.00793518382125,109.71787288284395 133.5555800141301,110.11493559740484 133.69249122194014,110.35317312862026 133.62403561803512,110.98847285285592 133.07639078749344,111.70318441878771 131.63882310781628,112.49730760714738 130.68044465454295,113.29142998025054 128.76368774822913,115.1973203511443 126.71001963410527,117.10320602782303 121.57584934867918,122.18554488470545 120.27519287634641,123.29730205982924 119.04299200815149,124.64729076862568 118.28998036612757,125.28257875796407 114.79874457209371,128.69724276434863 112.67662085429765,130.68250560940942 112.1289760239888,131.39719898672774 112.26588723156601,132.11189170432044 113.42963249608874,133.4618650363409 117.94770234730095,136.0823947819299 119.65909244236536,137.27354173304047 120.069826065097,137.35295146453427 121.23357132961974,137.1941319932812 123.01341702858917,136.55885378242237 123.28723944397643,136.63826358725782 124.58789591607638,137.75 124.99862953880802,137.67059030925157 125.2724519544281,137.35295146453427" stroke="#4dd2ff" stroke-linecap="round" stroke-linejoin="round" stroke-width="0.5"><title>2022-06-28 1.0km</title></polyline><polyline fill="none" points="152.101973941084,137.75 153.4535248177126,136.1255766019458 155.52912080683745,134.72520771826385 156.30143559351563,134.10904426965863 157.21855940273963,133.15679029736202 158.763188976096,130.91618615359766 159.82512180763297,128.22744902345585 160.45262757176533,127.27518477616832 162.28687519021332,123.91423884086544 163.10745965107344,122.79391892376589 164.8451679206919,120.60928846237948 166.00364010082558,119.32091254694387 167.30692130327225,118.03253358631628 170.63752882066183,114.95161502721021 172.13388871983625,113.27110665466171 173.29236089996994,111.81466187373735 173.6785182931926,111.47855867928592 175.2714175407309,109.46193516021594 175.89892330486327,108.34158553654561 177.153934833128,106.66105678281747 178.02278896817006,105.03654072881909 178.5054857097566,103.69210998760536 179.18126114807092,101.39536646578927 179.95357593451627,99.99490834865719 180.67762104724534,99.04259477352025 181.3533964853268,98.31435385794612 182.07744159805588,97.64213061064947 182.898026058916,97.25 182.5118686654605,97.30601867596852 181.6912842048332,98.03426093899179 181.40166615974158,98.20231670758221 181.063778440468,98.5384280893486 179.90530626056716,100.10694513062481 179.47087919316255,100.4990736853797 179.22953082225285,100.94722025992814 179.18126114807092,101.4513847156777 178.93991277739406,102.34767592995195 178.21586766466498,104.19627190416213 177.54009222635068,105.54070140153635 177.25047418149188,106.26893266139086 175.9471929790452,108.00548020045971 174.7404511247296,108.39760307245888 173.38890024810098,109.23786541959271 170.83060751738958,110.63829978654394 168.46539348340593,111.59059310064185 166.34152781986631,112.878987288801 164.41074085328728,113.66322573833168" stroke="#4dd2ff" stroke-linecap="round" stroke-linejoin="round" stroke-width="0.5"><title>2022-06-15 1.5km</title></polyline><polyline fill="none" points="15.793823088984936,202.75 16.43636835482903,201.4942505636136 17.07891362067312,200.55243577703368 18.161095120827667,199.53213380431407 19.24327662109863,198.2763737886853 19.953458230826072,197.57000696548494 20.460730809136294,197.21682306416915 21.03563973121345,196.5496970259701 21.61054865317419,196.15726940039895 23.03091187227983,195.41165580091183 24.349820575793274,194.5090689699573 25.330547560355626,193.6457230488304 25.601092935423367,193.2925355186162 26.07454734190833,193.09632008284098 26.277456373209134,192.9001045463665 26.98763798282016,192.07599819242023 27.292001529829577,191.840538907476 27.765455936198123,191.40886317487457 28.7123647488188,189.95685940270778 29.050546467886306,189.60366846129182 29.354910014779307,188.89728559859213 29.726909905439243,188.3086322149611 29.92981893674005,187.75922157175955 30.403273343108594,187.01359157756087 30.707636890001595,186.2679601275304 30.978182265302166,185.3261077941861 31.214909468311816,184.73744890643866 31.82363656233065,183.7955927986186 32.026545593631454,183.20693155174376 32.60145451570861,182.26507166944793 32.93963623442687,181.91187361479388 33.41309064091183,181.3232094644336 34.359999453648925,180.45983373592026 36.62581696989946,178.89005468337564 37.03163503261749,178.34063049062388 37.50508943886962,177.51649271932547 38.316725564189255,175.67198745335918 39.06072534562554,174.21992384913028 39.26363437704276,173.90596342497156 39.43272523640189,173.78822819935158 39.80472512706183,172.84634508768795 40.5487249083817,171.78672381027718 40.92072479927447,171.1195533494756 42.91599694045726,168.8825615334208 44.97890542529058,167.1165061063366 45.41854165995028,166.68480242640362 45.790541550610214,166.09611480345484 47.17708659800701,164.91873683498125 47.78581369179301,164.13381617265986 48.259268098161556,163.6628630007035 49.13854056713171,162.4462312849064 49.20617691101506,162.25 49.10472239530645,162.28924626507796 48.83417702023871,162.56397000752622" stroke="#4dd2ff" stroke-linecap="round" stroke-linejoin="round" stroke-width="0.5"><title>2022-06-13 1.5km</title></polyline><polyline fill="none" points="65.4166027456522,202.75 65.93078986275941,197.81643101526424 65.83730129618198,195.4309525770368 65.93078986275941,194.23820932168746 66.11776699637994,193.47918948542792 66.25799984671175,193.15389493625844 66.35148841328919,192.39487354329322 66.53846554690972,191.6900669883471 67.3331183642149,189.62985782511532 68.08102689846419,188.59975023264997 68.68870258238167,188.00337123556528 69.76382110035047,186.5395290265442 70.41824106755666,185.99736421677517 71.16614960180596,185.61784851900302 71.91405813582242,185.0756827641162 72.80219952017069,184.15399970457656 73.36313092056662,183.82869941770332 73.92406232119538,183.2865318278782 75.27964653936215,182.2564118754235 76.54174219048582,181.00942187884357 77.24290644121356,180.57568553846795 77.85058212536387,180.35881723480998 78.27128067589365,179.76242894108873 79.43988776043989,178.56965033500455 81.30965909571387,177.32265164190903 82.43152189673856,176.12986753100995 83.36640756437555,175.47925688151736 84.48827036563307,174.34068631823175 84.72199178254232,173.9069445062196 86.5917631178163,171.6297941544908 87.8538587691728,169.5152886158903 88.18106875289232,168.37670520722168 88.46153445309028,167.8345217697206 88.7887444368098,166.9670271128416 89.48990868753754,164.58140946610365 89.53665297082625,164.03922213579062 89.48990868753754,163.33437777491054 89.5833972543478,162.25" stroke="#4dd2ff" stroke-linecap="round" stroke-linejoin="round" stroke-width="0.5"><title>2022-05-29 1.0km</title></polyline><polyline fill="none" points="123.02305001416244,162.25 122.93730411014985,162.44894012412988 122.28563523996854,163.54310715783504 121.87405490089441,164.35875492880587 121.17093848832883,165.47280487623357 119.81615320552373,173.7682969202433 123.0401991949766,178.9005818987498 123.46892871486489,179.39788911529467 124.15489594667451,180.4123918820842 124.41213365859585,180.88980311223713 125.64687467587646,182.8193281920394 126.33284190768609,183.93327207375842 126.36714026919799,184.05262282438343 126.34999108844204,184.39078288560268 126.40143863088451,184.62948375027918 126.57293043879326,185.08699291964876 126.8301681507728,186.419730869864 127.00165995868156,186.9170188033313 127.01880913949572,187.35463112998696 126.9845107778674,187.9314822335873 126.77872060833033,189.0056141990499 126.47003535402473,189.9802843525831 126.0584550149506,190.77592982600618 125.73262057977263,191.29309763325728 125.42393532552524,191.63124506924942 125.02950416720705,192.12851963948924 124.36068611621158,192.76502922875807 123.24598936451366,193.62033569984487 120.89655159559334,195.54973412053369 120.09054009825923,196.26579463026428 119.59321385523072,196.80283827763924 119.19878269691253,197.30009958824667 118.83864990016446,197.8371403716883 118.70145645382581,198.0957150334434 118.44421874190448,198.851546683567 118.25557775318157,199.66704595006013 118.22127939161146,199.96539848353132 118.22127939161146,200.76100299599057 118.1698318492272,201.57649423452676 117.98119086050428,202.7102202597598 118.0497875836445,202.75 118.08408594527282,202.69033038665657" stroke="#4dd2ff" stroke-linecap="round" stroke-linejoin="round" stroke-width="0.5"><title>2022-05-29 2.6km</title></polyline><polyline fill="none" points="184.1930820418056,162.25 184.06020178669132,162.32707360526547 183.36258044769056,163.0207353416481 182.96393968258053,163.6373224760464 181.63513713201974,164.9861033030029 180.27311451756395,166.25780650301022 179.30973266833462,167.22121515113395 177.2500887149945,169.57192188035697 176.78500782232732,170.03435425908538 176.4528071845416,170.2270342488191 175.85484603687655,170.95921730817645 175.19044476165436,171.53725555731216 173.52944157330785,173.38697197576403 171.6026778749656,175.35228568839375 169.67591417673975,177.47173012717394 167.31728964939248,179.93797769051162 166.68610843783244,180.70867673287285 165.8556068437174,181.51790902533685 163.36410206137225,184.3694755876204 162.26783995726146,185.71818196077948 161.3044581079157,187.14395200356375 160.50717657769565,187.99170459836023 159.37769440968987,189.57160205589025 158.87939345324412,190.14961166039575 158.38109249668196,190.997357471555 157.94923166779336,191.57536488198093 157.08551000989974,192.88551171965082 156.72008930856828,193.34791539481375 152.66724152921233,199.7829741249152 152.1689405727666,200.4765666880703 150.8069179583108,202.75" stroke="#4dd2ff" stroke-linecap="round" stroke-linejoin="round" stroke-width="0.5"><title>2022-05-25 1.5km</title></polyline><polyline fill="none" points="49.21979366638698,227.25 48.92502747057006,227.32598913882975 48.106232481775805,228.19986311424873 48.07348068244755,228.31384652428096 47.61495548882522,228.9217574512004 46.992671297397465,229.45367869341862 46.63240150245838,229.94760487691383 45.74810291477479,230.82147266415996 45.0275633247802,231.42937947349856 44.50353453226853,232.0372852846922 44.11051293765195,232.3412378159992 43.881250340957195,232.68318411539076 42.341915762401186,234.4309047133138 41.686879771528766,235.03880559594836 41.35936177615076,235.19078066077782 40.83533298340626,235.9126613662811 40.180296992650256,236.4825661921932 38.47720341652166,238.45822946351836 38.215189020032994,238.61020312452456 37.49464943015482,239.37007049453678 36.905117038520984,239.90197672552313 36.05357025016565,240.88980055577122 35.49678965797648,241.42170460356283 34.67799466953147,242.40952437915257 34.415980273275636,242.56149641843513 33.82644788140897,243.32135567907244 33.30241908878088,243.81526336228126 32.77839029615279,244.385156024131 32.450872300658375,244.7270912003005 31.730332710780203,245.60092410453944 30.91153772221878,246.3607771275274 30.059990934096277,247.42456874012714 29.17569234641269,248.37438009720063 28.02937936235685,249.70411190402228 27.341591572156176,250.5399408811645 27.14508077490609,250.95785466220696 26.424541184911504,251.94564899706165 25.900512392167002,252.47753716271836 25.24547640129458,253.35135177645134 24.819703007349744,253.8832379229425 24.72144760878291,254.11118889471982 24.295674214721657,254.64307394978823 24.16466701659374,254.71905746663106 24.000908018788323,254.94700792385265 23.47687922604382,255.82081671006745 23.116609431104735,256.23872453093645 23.051105832098983,256.46667405273183 22.8218432351714,256.73261498403735 22.232310843653977,257.6444110129087 21.87204104848206,257.9863339449221 21.544523053104058,258.6701788617356 21.315260456176475,258.974109530478 21.118749659042805,259.316031234659 20.234451071475632,260.6457237498835 19.15364168654196,262.4692942920956 18.79337189148646,262.8871946098516 18.49860569566954,263.495048775716 17.909073303919286,264.40682815384935 17.516051709419116,264.90070771286264 16.205979727674276,267.1041623362689 15.878461732296273,267.6360287293501 15.780206333729438,267.67401915686787 15.84570993273519,267.6360287293501 15.911213531740941,267.75 15.94396533141844,267.71200958031113 16.04222073010169,267.44607653381536" stroke="#4dd2ff" stroke-linecap="round" stroke-linejoin="round" stroke-width="0.5"><title>2022-05-25 1.6km</title></polyline><polyline fill="none" points="86.3191588781774,248.0270398054272 83.59392523299903,245.91934592498 81.4742990648374,244.51421378715895 78.90046728914604,243.10907934140414 74.28271028026938,239.85969709797064 69.96775700896978,237.40069692698307 67.99953270982951,235.81990737083834 65.42570093413815,234.6782242085319 63.30607476597652,234.15129300422268 62.09485981287435,233.44871756067732 61.86775700887665,233.36089558980893 61.56495327083394,233.71218341961503 60.73224299028516,235.1173332973849 59.06682242965326,237.57634003064595 57.25,241.0891945331823 57.47710280306637,241.70394258835586 58.309813083615154,242.40651125321165 59.74813084071502,242.93343737343093 61.716355139855295,244.07510952069424 63.15467289695516,245.56806310691172 63.98738317703828,246.27062859898433 66.63691588770598,247.67575785255758 71.2546728970483,250.66164985485375 75.49392523337156,252.85715203249129 76.70514018647373,253.7353513262933 77.91635514004156,254.78918928891653 78.97616822412238,255.22828805696918 80.49018691573292,256.4577634088928 81.77710280334577,256.6334026007098 86.62196261622012,259.35580546275014 89.6499999994412,261.28782804554794 91.69392523355782,261.63910441013286 92.4509345786646,261.3756471502711 93.20794392516837,260.93655153666623 93.66214953223243,260.3218172995257 93.88925233623013,260.4096365029691 94.04065420525149,260.2339980865363 94.57056074729189,259.35580546275014 95.93317756941542,258.03851483686594 96.38738317694515,256.72122218320146 97.67429906502366,255.0526485769078 97.75,254.78918928891653 97.75,254.6135497185751 97.06869158847257,254.26227046991698 95.70607476588339,254.0866307914839 94.72196261677891,253.20843185833655 94.19205607427284,251.97895183751825 93.51074766321108,251.3642111645895 91.08831775654107,250.39818921498954 89.49859813041985,249.25652550463565 84.80514018656686,246.35844924475532" stroke="#4dd2ff" stroke-linecap="round" stroke-linejoin="round" stroke-width="0.5"><title>2022-05-23 1.3km</title></polyline><polyline fill="none" points="102.25,230.78099103126442 102.97972972970456,231.20427232867223 103.75,231.48645964308525 104.64189189183526,232.1448960341222 105.73648648662493,232.28598942336976 106.26351351337507,232.52114497564617 106.79054054059088,233.64988994665327 107.0743243242614,233.97910670607234 107.60135135124438,234.3553541415895 108.20945945940912,235.24894056265475 108.65540540544316,235.71924850545474 110.11486486485228,236.1895559654513 110.35810810816474,236.377678814315 111.25,236.51877090026392 112.18243243242614,236.800954941893 114.49324324331246,237.88265882484848 114.85810810816474,237.83562827442074 115.06081081065349,238.07078097868362 115.83108108118176,238.49405554230907 116.19594594580121,238.5410860251577 116.68243243242614,238.77623836751445 117.5743243242614,239.52872505193227 119.0743243242614,240.61042249575257 119.72297297301702,241.26884577670717 120.81756756734103,241.88023797626374 121.99324324307963,242.67974962174776 123.29054054059088,243.90252944017993 123.33108108094893,243.7144096804259 123.81756756734103,243.90252944017993 124.62837837822735,244.043619209202 125.11486486485228,244.23173883376876 126.85810810816474,245.2193655957817 127.87162162153982,245.97184169990942 128.52027027029544,246.25401992048137 129.0878378378693,246.67728692560922 130.02027027029544,246.91243509267224 130.74999999976717,246.86540546891047 131.72297297301702,247.1475831393036 134.15540540544316,247.61787887042738 137.60135135124438,248.464409970009 138.7364864863921,248.60549833465484 139.22297297301702,248.84064551244956 141.77702702698298,249.35796887884499 142.50675675692037,249.6401450143021 142.66891891881824,249.8282623415871 142.75,250.2985553215549 142.5878378378693,250.81587704221602 142.38513513514772,251.2391398338077 142.42567567550577,251.89754784369143 142.38513513514772,252.22675149393035 141.0878378378693,254.20196842923178 140.3581081079319,255.70688990384224 139.42567567550577,256.92963496324955 139.10135135124438,257.8231773665466 138.12837837846018,259.2340302459488 137.6418918920681,260.4567658947781 137.1959459458012,261.1621888236259 136.79054054059088,262.0086949050892 136.46621621632949,262.6200594359834 136.02027027029544,263.1843952021445 135.81756756757386,263.6076465707738 135.49324324331246,264.2190089687356" stroke="#4dd2ff" stroke-linecap="round" stroke-linejoin="round" stroke-width="0.5"><title>2022-05-21 1.5km</title></polyline><polyline fill="none" points="187.75,247.50011029446614 187.22231270372868,247.04097718160483 186.6946254071081,246.81141041303636 186.26587947888765,246.54358233787934 185.5073289902648,245.7783582053671 185.21050488599576,245.66357445009635 184.48493485350627,245.47226811258588 184.02320846915245,244.93660984534654 183.4955211727647,244.66878042306053 182.96783387626056,244.20964382283273 182.63802931597456,244.09485958435107 182.1433224757202,243.7122452009935 180.69218241039198,243.02353832116933 179.83469055371825,242.33483016883838 179.17508143314626,242.14352212304948 177.88884364825208,241.1487187015009 177.49307817581575,240.7278395316098 176.80048859934323,240.3834834936133 175.71213355043437,240.1156507997075 175.41530944616534,240.26869807692128 174.29397394135594,241.4165506530844 173.23859934858046,242.29656856757356 172.28216612373944,243.63572227710392 171.95236156345345,243.98007531056646 171.55659609113354,244.247905227734 171.09486970677972,244.43921219359618 170.43526058620773,245.43400683338405 169.87459283380304,245.89314192548045 169.61074918566737,246.42879881817498 169.08306188916322,246.5818435033143 168.81921824102756,246.77314927132102 167.13721498358063,248.41837482349365 166.34568403917365,249.0688108295144 165.6530944624683,249.8340282071731 164.8615635179449,250.86706917526317 164.07003257330507,251.55576156350435 163.50936482090037,252.35923440832994 162.61889250820968,253.20096600742545 162.3550488599576,253.50704975402914 161.59649837121833,254.08095610156306 161.33265472308267,254.46355984234833 161.10179153096396,254.616601228714 160.739006514661,255.07572501077084 160.1783387621399,255.57310847000917 159.6176710097352,256.1852718164446 159.15594462538138,256.52961325703654 158.9910423452966,256.5678733974055 158.76017915306147,256.4530929643952 157.40798045601696,255.68788917400525 156.55048859934323,255.26702641978045 155.0333876220975,254.042695705808 154.67060260591097,253.88965408384684 153.8460912052542,253.43052884095232 153.21946254069917,253.23922648947337 152.9556188924471,252.97140303248307 152.42793159617577,252.81836097079213 151.93322475568857,252.58879776025424 150.81188925076276,251.70880414370913 149.69055374595337,251.0966334460827 148.33835504890885,250.1783755145152 147.25,249.60446315878653 148.07451140065677,250.48446174312267 149.88843648217153,251.4792402498424 150.91083061893005,252.24445267944247 151.20765472319908,252.55053721147124 151.76832247560378,252.8566214920429 152.6258143322775,253.62183109420585 153.4503257329343,254.042695705808 154.4067589576589,254.42529948585434 154.96742671018,254.76964255218627 155.23127035831567,254.8079028732609 156.1877035831567,254.08095610156306 156.84731270361226,253.23922648947337 158.23249185667373,252.01488911543856 159.15594462538138,251.02011203821166 159.35382736148313,250.5609832610353 159.58469055371825,250.25489709535032 160.21131921827327,249.75750654010335 161.03583061881363,249.18359353626147 162.45399022800848,247.92098181773326 163.54234527703375,246.69662697584135 165.15838762221392,245.16617776843486 166.74144951137714,243.94181387819117 167.829804560286,242.79396907845512 168.4564332247246,242.18178374005947 169.24796416936442,241.60785907207173 169.84161237778608,240.7661012939061 170.4022801303072,240.19217444612877 170.7980456026271,240.00086530053522 171.29275244299788,239.5034610623261 171.6225570034003,239.35041347102378 172.05130293162074,239.27388965169666 173.07369706837926,238.5469125849777 173.46946254069917,238.4321266026236 175.71213355043437,239.65650859093876 176.37174267100636,240.26869807692128 177.03135179157835,240.65131599505548 177.75692182406783,241.22524213575525" stroke="#4dd2ff" stroke-linecap="round" stroke-linejoin="round" stroke-width="0.5"><title>2022-05-18 2.7km</title></polyline></svg>